<svg width="85" height="85" viewBox="0 0 85 85" fill="none" xmlns="http://www.w3.org/2000/svg">
<path d="M74.8081 34.5563C74.4949 29.5315 72.1713 24.8101 68.3123 21.3572C64.4533 17.9044 59.3504 15.9809 54.0469 15.9801H29.9576C24.618 15.9932 19.4874 17.9509 15.6243 21.4494C11.7612 24.9479 9.46037 29.7203 9.19645 34.7819C8.29438 47.0362 11.6635 59.2321 18.7846 69.49C21.3894 73.1355 24.464 76.4578 27.937 79.3797C31.7876 82.6678 36.7829 84.4892 41.9626 84.4938C46.9284 84.4776 51.7229 82.7696 55.4733 79.6805C59.1973 76.7393 62.4888 73.3372 65.2595 69.5652C72.5052 59.2489 75.8697 46.9134 74.8081 34.5563ZM61.8522 67.497C59.2979 71.0119 56.2447 74.1753 52.7791 76.8979C49.6511 79.3935 45.677 80.7302 41.5913 80.6611C37.5055 80.592 33.5842 79.1217 30.5519 76.5218C27.3205 73.7951 24.471 70.6863 22.0731 67.2714C15.3909 57.7062 12.2544 46.3017 13.1585 34.8571C13.411 30.79 15.2906 26.9681 18.413 24.1723C21.5354 21.3766 25.665 19.8182 29.9576 19.8157H54.0469C58.3396 19.8182 62.4691 21.3766 65.5915 24.1723C68.714 26.9681 70.5935 30.79 70.846 34.8571C71.8828 46.3824 68.7069 57.8951 61.8522 67.4594V67.497Z" fill="black"/>
<path d="M29.483 8.23409C31.9005 8.31716 34.2685 8.90792 36.4166 9.96383C37.1233 10.2746 37.7532 10.7232 38.2652 11.2804C38.7772 11.8376 39.1598 12.4908 39.3881 13.1977C39.4433 13.4417 39.5512 13.6721 39.7051 13.8745C39.8748 14.0558 40.0758 14.2084 40.2994 14.3258H40.5371C41.8861 14.8887 43.3425 15.1831 44.8161 15.1906C46.2411 15.198 47.653 14.9319 48.9671 14.4085C50.2811 13.8851 51.4701 13.1151 52.4629 12.1448C53.7722 10.8429 54.6933 9.23402 55.132 7.48303C55.5706 5.73205 55.5109 3.90188 54.959 2.18C54.8727 1.87936 54.7075 1.60439 54.4789 1.3808C54.2502 1.1572 53.9655 0.9923 53.6515 0.901502C51.9441 0.460754 50.1547 0.387327 48.4136 0.686579C46.6726 0.98583 45.0239 1.65021 43.5879 2.63124C41.7724 3.88713 40.3929 5.62843 39.6258 7.63244C39.1598 7.25937 38.6554 6.93182 38.1202 6.65476C35.5135 5.34011 32.6302 4.59496 29.6811 4.47379C29.1833 4.46354 28.7011 4.63896 28.3382 4.96237C27.9752 5.28579 27.7603 5.73141 27.7397 6.20353C27.7123 6.44572 27.7358 6.69066 27.8088 6.92418C27.8818 7.1577 28.0028 7.37517 28.1649 7.564C28.3271 7.75283 28.527 7.90928 28.7533 8.0243C28.9795 8.13932 29.2275 8.21062 29.483 8.23409ZM46.084 5.71469C47.6536 4.6451 49.6014 4.19982 51.512 4.47379C51.6486 5.4162 51.5593 6.37573 51.2505 7.28077C50.9418 8.18582 50.4217 9.01301 49.7291 9.70061C48.8796 10.5089 47.821 11.0907 46.6595 11.3878C45.4981 11.6848 44.2748 11.6865 43.1124 11.3927C43.0922 10.2789 43.351 9.17649 43.8676 8.17623C44.3843 7.17597 45.1439 6.30651 46.084 5.63948V5.71469Z" fill="black"/>
<path d="M25.7581 27.0357C25.2327 27.0357 24.7288 27.2338 24.3573 27.5864C23.9857 27.939 23.777 28.4172 23.777 28.9159V33.0899C23.777 33.5886 23.9857 34.0668 24.3573 34.4194C24.7288 34.772 25.2327 34.9701 25.7581 34.9701C26.2835 34.9701 26.7874 34.772 27.159 34.4194C27.5305 34.0668 27.7392 33.5886 27.7392 33.0899V28.8031C27.7089 28.3242 27.4869 27.8745 27.1186 27.5459C26.7503 27.2173 26.2636 27.0348 25.7581 27.0357Z" fill="black"/>
<path d="M60.664 30.0437C60.1386 30.0437 59.6347 30.2418 59.2632 30.5944C58.8917 30.947 58.683 31.4252 58.683 31.9239V36.2108C58.683 36.7094 58.8917 37.1877 59.2632 37.5403C59.6347 37.8929 60.1386 38.091 60.664 38.091C61.1894 38.091 61.6932 37.8929 62.0647 37.5403C62.4363 37.1877 62.645 36.7094 62.645 36.2108V31.9239C62.645 31.4252 62.4363 30.947 62.0647 30.5944C61.6932 30.2418 61.1894 30.0437 60.664 30.0437Z" fill="black"/>
<path d="M57.0188 57.1187C56.4934 57.1187 55.9895 57.3167 55.618 57.6694C55.2465 58.022 55.0378 58.5002 55.0378 58.9989V63.3233C55.0378 63.822 55.2465 64.3002 55.618 64.6528C55.9895 65.0054 56.4934 65.2035 57.0188 65.2035C57.5442 65.2035 58.048 65.0054 58.4196 64.6528C58.7911 64.3002 58.9998 63.822 58.9998 63.3233V58.9989C58.9998 58.5002 58.7911 58.022 58.4196 57.6694C58.048 57.3167 57.5442 57.1187 57.0188 57.1187Z" fill="black"/>
<path d="M24.6082 45.5367C24.0828 45.5367 23.579 45.7348 23.2075 46.0874C22.8359 46.44 22.6272 46.9183 22.6272 47.417V51.7038C22.6272 52.2025 22.8359 52.6807 23.2075 53.0333C23.579 53.3859 24.0828 53.584 24.6082 53.584C25.1336 53.584 25.6375 53.3859 26.009 53.0333C26.3805 52.6807 26.5892 52.2025 26.5892 51.7038V47.417C26.5892 46.9183 26.3805 46.44 26.009 46.0874C25.6375 45.7348 25.1336 45.5367 24.6082 45.5367Z" fill="black"/>
<path d="M45.2509 23.5764C44.7255 23.5764 44.2216 23.7745 43.85 24.1271C43.4785 24.4797 43.2698 24.9579 43.2698 25.4566V29.7435C43.2698 30.2421 43.4785 30.7204 43.85 31.073C44.2216 31.4256 44.7255 31.6237 45.2509 31.6237C45.7764 31.6237 46.2803 31.4256 46.6518 31.073C47.0233 30.7204 47.2321 30.2421 47.2321 29.7435V25.4566C47.2321 24.9579 47.0233 24.4797 46.6518 24.1271C46.2803 23.7745 45.7764 23.5764 45.2509 23.5764Z" fill="black"/>
<path d="M34.1174 56.0656C33.592 56.0656 33.0881 56.2637 32.7165 56.6164C32.345 56.969 32.1363 57.4472 32.1363 57.9459V62.2329C32.1363 62.7316 32.345 63.2098 32.7165 63.5625C33.0881 63.9151 33.592 64.1132 34.1174 64.1132C34.6428 64.1132 35.1467 63.9151 35.5182 63.5625C35.8898 63.2098 36.0985 62.7316 36.0985 62.2329V57.9459C36.0985 57.4472 35.8898 56.969 35.5182 56.6164C35.1467 56.2637 34.6428 56.0656 34.1174 56.0656Z" fill="black"/>
<path d="M38.199 37.9784C37.6767 37.988 37.1787 38.1892 36.8093 38.5397C36.44 38.8902 36.228 39.3629 36.2178 39.8585V44.1828C36.228 44.6785 36.44 45.1511 36.8093 45.5017C37.1787 45.8522 37.6767 46.0534 38.199 46.063C38.7244 46.063 39.2283 45.8649 39.5999 45.5123C39.9714 45.1597 40.1801 44.6815 40.1801 44.1828V39.8585C40.1801 39.3599 39.9714 38.8816 39.5999 38.529C39.2283 38.1765 38.7244 37.9784 38.199 37.9784Z" fill="black"/>
<path d="M51.5116 43.807C50.9862 43.807 50.4823 44.0051 50.1108 44.3578C49.7393 44.7104 49.5305 45.1886 49.5305 45.6873V49.9743C49.5305 50.473 49.7393 50.9513 50.1108 51.3039C50.4823 51.6565 50.9862 51.8546 51.5116 51.8546C52.037 51.8546 52.5409 51.6565 52.9124 51.3039C53.2839 50.9513 53.4926 50.473 53.4926 49.9743V45.8377C53.5145 45.5785 53.4795 45.3177 53.3899 45.0719C53.3002 44.8261 53.1577 44.6007 52.9715 44.4098C52.7853 44.219 52.5595 44.0669 52.3082 43.9631C52.0569 43.8594 51.7856 43.8062 51.5116 43.807Z" fill="black"/>
<path d="M43.8646 67.6852C43.3392 67.6852 42.8354 67.8833 42.4639 68.2359C42.0924 68.5885 41.8836 69.0667 41.8836 69.5653V73.8521C41.8836 74.3507 42.0924 74.8289 42.4639 75.1815C42.8354 75.5341 43.3392 75.7322 43.8646 75.7322C44.39 75.7322 44.8939 75.5341 45.2654 75.1815C45.6369 74.8289 45.8456 74.3507 45.8456 73.8521V69.5653C45.8456 69.0667 45.6369 68.5885 45.2654 68.2359C44.8939 67.8833 44.39 67.6852 43.8646 67.6852Z" fill="black"/>
</svg>
