<svg width="70" height="53" viewBox="0 0 70 53" fill="none" xmlns="http://www.w3.org/2000/svg">
<path d="M66.1377 52.1999C66.6703 52.1999 67.0255 51.8448 67.0255 51.3121C67.0255 50.7795 66.6703 50.4244 66.1377 50.4244H2.84076C2.3081 50.4244 1.953 50.7795 1.953 51.3121C1.953 51.8448 2.3081 52.1999 2.84076 52.1999H66.1377Z" fill="black"/>
<path d="M69.6 19.3531C69.6 17.7551 68.8898 16.2459 67.7357 15.4469C68.002 14.8255 68.0908 14.2041 68.0908 13.5827C68.0908 11.8071 67.2031 10.1204 65.7826 9.4102C65.7826 9.14388 65.8714 8.96633 65.8714 8.7C65.8714 6.48061 64.5398 4.7051 62.8531 4.26123C62.5867 1.95306 60.9888 0.177552 58.9469 0.177552C56.9939 0.177552 55.3071 1.95306 55.0408 4.17245C53.1765 4.52755 51.7561 6.39184 51.7561 8.7C51.7561 9.0551 51.7561 9.4102 51.8449 9.76531C50.7796 10.5643 50.0694 11.9847 50.0694 13.5827C50.0694 14.2041 50.1582 14.9143 50.4245 15.4469C49.2704 16.2459 48.5602 17.7551 48.5602 19.3531C48.5602 21.2173 49.5367 22.8153 50.8684 23.5255C50.4245 24.2357 49.9806 25.2122 49.9806 26.3663C49.9806 28.2306 51.0459 30.0061 53.1765 31.6929C57.7929 35.3326 58.2367 39.5939 58.2367 40.6592V40.8367C58.2367 40.9255 58.2367 40.9255 58.2367 40.9255V45.7194H35.6877V40.9255C35.6877 40.9255 35.6877 40.8367 35.6877 40.748C35.6877 39.949 36.0429 35.4214 40.8367 31.6929C42.9673 30.0061 44.0326 28.2306 44.0326 26.3663C44.0326 25.1235 43.5888 24.1469 43.0561 23.4367C44.3878 22.7265 45.2755 21.1286 45.2755 19.2643C45.2755 17.6663 44.5653 16.1571 43.4112 15.3582C43.6775 14.7367 43.7663 14.1153 43.7663 13.4939C43.7663 11.7184 42.8786 10.0316 41.4582 9.32143C41.4582 9.0551 41.5469 8.87755 41.5469 8.61122C41.5469 6.39184 40.2153 4.61633 38.5286 4.17245C38.2622 1.86429 36.6643 0.0887758 34.6224 0.0887758C32.6694 0.0887758 30.9826 1.86429 30.7163 4.08367C28.852 4.43878 27.4316 6.30306 27.4316 8.61122C27.4316 8.96633 27.4316 9.32143 27.5204 9.67653C26.4551 10.4755 25.7449 11.8959 25.7449 13.4939C25.7449 14.1153 25.8337 14.8255 26.1 15.3582C24.9459 16.1571 24.2357 17.6663 24.2357 19.2643C24.2357 21.1286 25.2122 22.7265 26.5439 23.4367C26.1 24.1469 25.6561 25.1235 25.6561 26.2775C25.6561 28.1418 26.7214 29.9173 28.852 31.6041C33.4684 35.2439 33.9122 39.5051 33.9122 40.5704V40.748C33.9122 40.8367 33.9122 40.8367 33.9122 40.8367V45.6306H11.452V40.8367C11.452 40.8367 11.452 40.748 11.452 40.6592C11.452 39.8602 11.8071 35.3326 16.601 31.6041C18.7316 29.9173 19.7969 28.1418 19.7969 26.2775C19.7969 25.0347 19.3531 24.0582 18.8204 23.348C20.152 22.6378 21.0398 21.0398 21.0398 19.1755C21.0398 17.5776 20.3296 16.0684 19.1755 15.2694C19.4418 14.648 19.5306 14.0265 19.5306 13.4051C19.5306 11.6296 18.6429 9.94286 17.2224 9.23265C17.2224 8.96633 17.3112 8.78878 17.3112 8.52245C17.3112 6.30306 15.9796 4.52755 14.2929 4.08367C14.0265 1.77551 12.4286 0 10.3867 0C8.43367 0 6.74694 1.77551 6.48061 3.9949C4.61633 4.35 3.19592 6.21429 3.19592 8.52245C3.19592 8.87755 3.19592 9.23265 3.28469 9.58776C2.21939 10.3867 1.50918 11.8959 1.50918 13.4051C1.50918 14.0265 1.59796 14.648 1.86429 15.2694C0.710204 16.0684 0 17.5776 0 19.1755C0 21.0398 0.976531 22.6378 2.30816 23.348C1.86429 24.0582 1.42041 25.0347 1.42041 26.1888C1.42041 28.0531 2.48571 29.8286 4.61633 31.5153C9.23265 35.1551 9.67653 39.4163 9.67653 40.4816V40.6592C9.67653 40.748 9.67653 40.748 9.67653 40.748V45.5418H2.84082C2.30816 45.5418 1.95306 45.8969 1.95306 46.4296C1.95306 46.9622 2.30816 47.3173 2.84082 47.3173H66.049C66.5816 47.3173 66.9367 46.9622 66.9367 46.4296C66.9367 45.8969 66.5816 45.5418 66.049 45.5418H59.8347V40.748C59.8347 40.748 59.8347 40.6592 59.8347 40.5704C59.8347 39.7714 60.1898 35.2439 64.9837 31.5153C67.1143 29.8286 68.1796 28.0531 68.1796 26.1888C68.1796 24.9459 67.7357 23.9694 67.2031 23.2592C68.6235 22.7265 69.6 21.1286 69.6 19.3531ZM10.5643 7.45714C10.0316 7.45714 9.67653 7.81224 9.67653 8.3449V12.6061L7.72347 10.6531C7.36837 10.298 6.83571 10.298 6.48061 10.6531C6.12551 11.0082 6.12551 11.5408 6.48061 11.8959L9.67653 15.0918V19.1755L7.72347 17.2224C7.36837 16.8673 6.83571 16.8673 6.48061 17.2224C6.12551 17.5775 6.12551 18.1102 6.48061 18.4653L9.67653 21.6612V25.4786L7.72347 23.6143C7.36837 23.2592 6.83571 23.2592 6.48061 23.6143C6.12551 23.9694 6.12551 24.502 6.48061 24.8571L9.67653 28.0531V34.7112C8.78877 33.202 7.54592 31.6929 5.77041 30.1837C4.08367 29.0296 3.19592 27.698 3.19592 26.3663C3.19592 24.7684 4.52755 23.7031 4.52755 23.7031C4.79388 23.4367 4.97143 23.0816 4.79388 22.7265C4.61633 22.3714 4.35 22.1051 3.9949 22.1051C2.84082 22.1051 1.86429 20.8622 1.86429 19.2643C1.86429 18.0214 2.48571 16.8673 3.46225 16.5122C3.72857 16.4235 3.90612 16.2459 3.9949 15.9796C4.08367 15.7133 4.08367 15.4469 3.90612 15.1806C3.55102 14.648 3.37347 14.0265 3.37347 13.4051C3.37347 12.251 3.90612 11.1857 4.79388 10.7418C5.23775 10.5643 5.41531 10.0316 5.23775 9.67653C5.14898 9.32143 5.0602 8.87755 5.0602 8.52245C5.0602 7.01327 6.03673 5.68163 7.19082 5.68163C7.19082 5.68163 7.27959 5.68163 7.36837 5.68163C7.63469 5.68163 7.90102 5.59286 8.07857 5.41531C8.25612 5.23775 8.3449 4.97143 8.3449 4.7051C8.3449 4.61633 8.3449 4.61633 8.3449 4.52755C8.3449 3.01837 9.32143 1.68673 10.4755 1.68673C11.6296 1.68673 12.6061 2.92959 12.6061 4.52755V4.7051C12.6061 4.97143 12.6949 5.14898 12.8724 5.32653C13.05 5.50408 13.3163 5.59286 13.5827 5.59286C14.7367 5.59286 15.7133 6.83571 15.7133 8.43367C15.7133 8.78877 15.6245 9.14388 15.5357 9.4102C15.4469 9.67653 15.5357 9.85408 15.6245 10.1204C15.7133 10.298 15.9796 10.4755 16.1571 10.5643C17.1337 10.8306 17.9327 11.9847 17.9327 13.3163C17.9327 13.9378 17.7551 14.5592 17.4 15.0918C17.2224 15.3582 17.2224 15.6245 17.3112 15.8908C17.4 16.1571 17.5776 16.3347 17.8439 16.4235C18.7316 16.7786 19.4418 17.8439 19.4418 19.0867C19.4418 20.5959 18.4653 21.9275 17.3112 21.9275C16.7786 21.9275 16.4235 22.2826 16.4235 22.8153C16.4235 23.1704 16.6898 23.5255 17.0449 23.7031C17.4 24.0582 18.199 25.0347 18.199 26.1888C18.199 27.4316 17.3112 28.7633 15.7133 30.0949C13.7602 31.6041 12.5173 33.202 11.6296 34.7112V27.9643L14.9143 24.6796C15.2694 24.3245 15.2694 23.7918 14.9143 23.4367C14.5592 23.0816 14.0265 23.0816 13.6714 23.4367L11.6296 25.4786V21.8388L14.9143 18.5541C15.2694 18.199 15.2694 17.6663 14.9143 17.3112C14.5592 16.9561 14.0265 16.9561 13.6714 17.3112L11.6296 19.3531V15.2694L14.9143 11.9847C15.2694 11.6296 15.2694 11.0969 14.9143 10.7418C14.5592 10.3867 14.0265 10.3867 13.6714 10.7418L11.6296 12.7837V8.43367C11.452 7.90102 11.0082 7.45714 10.5643 7.45714ZM34.8 7.45714C34.2673 7.45714 33.9122 7.81224 33.9122 8.3449V12.6061L31.9592 10.6531C31.6041 10.298 31.0714 10.298 30.7163 10.6531C30.3612 11.0082 30.3612 11.5408 30.7163 11.8959L33.9122 15.0918V19.1755L31.9592 17.2224C31.6041 16.8673 31.0714 16.8673 30.7163 17.2224C30.3612 17.5775 30.3612 18.1102 30.7163 18.4653L33.9122 21.6612V25.4786L31.9592 23.6143C31.6041 23.2592 31.0714 23.2592 30.7163 23.6143C30.3612 23.9694 30.3612 24.502 30.7163 24.8571L33.9122 28.0531V34.7112C33.0245 33.202 31.7816 31.6929 30.0061 30.1837C28.3194 28.852 27.5204 27.6092 27.5204 26.2775C27.5204 24.6796 28.852 23.6143 28.852 23.6143C29.1184 23.348 29.2959 22.9929 29.1184 22.6378C28.9408 22.2827 28.6745 22.0163 28.3194 22.0163C27.1653 22.0163 26.1888 20.7735 26.1888 19.1755C26.1888 17.9327 26.8102 16.7786 27.7867 16.4235C28.0531 16.3347 28.2306 16.1571 28.3194 15.8908C28.4082 15.6245 28.4082 15.3582 28.2306 15.0918C27.8755 14.5592 27.698 13.9378 27.698 13.3163C27.698 12.1622 28.2306 11.0969 29.1184 10.6531C29.5622 10.4755 29.7398 9.94286 29.5622 9.58776C29.4735 9.23265 29.3847 8.78877 29.3847 8.43367C29.3847 6.92449 30.3612 5.59286 31.5153 5.59286C31.5153 5.59286 31.6041 5.59286 31.6929 5.59286C31.9592 5.59286 32.2255 5.50408 32.4031 5.32653C32.5806 5.14898 32.6694 4.88265 32.6694 4.61633C32.6694 4.52755 32.6694 4.52755 32.6694 4.43878C32.6694 2.92959 33.6459 1.59796 34.8 1.59796C35.9541 1.59796 36.9306 2.84082 36.9306 4.43878V4.61633C36.9306 4.88265 37.0194 5.0602 37.1969 5.23775C37.3745 5.41531 37.6408 5.50408 37.9071 5.50408C39.0612 5.50408 40.0378 6.74694 40.0378 8.3449C40.0378 8.7 39.949 9.0551 39.8602 9.32143C39.7714 9.58775 39.8602 9.76531 39.949 10.0316C40.0378 10.2092 40.3041 10.3867 40.4816 10.4755C41.4582 10.7418 42.2571 11.8959 42.2571 13.2275C42.2571 13.849 42.0796 14.4704 41.7245 15.0031C41.5469 15.2694 41.5469 15.5357 41.6357 15.802C41.7245 16.0684 41.902 16.2459 42.1684 16.3347C43.0561 16.6898 43.7663 17.7551 43.7663 18.998C43.7663 20.5071 42.7898 21.8388 41.6357 21.8388C41.1031 21.8388 40.748 22.1939 40.748 22.7265C40.748 23.0816 41.0143 23.4367 41.3694 23.6143C41.7245 23.9694 42.5235 24.9459 42.5235 26.1C42.5235 27.3429 41.6357 28.6745 40.0378 30.0061C38.0847 31.5153 36.8418 33.1133 35.9541 34.6224V27.8755L39.2388 24.5908C39.5939 24.2357 39.5939 23.7031 39.2388 23.348C38.8837 22.9929 38.351 22.9929 37.9959 23.348L35.9541 25.3898V21.8388L39.2388 18.5541C39.5939 18.199 39.5939 17.6663 39.2388 17.3112C38.8837 16.9561 38.351 16.9561 37.9959 17.3112L35.9541 19.3531V15.2694L39.2388 11.9847C39.5939 11.6296 39.5939 11.0969 39.2388 10.7418C38.8837 10.3867 38.351 10.3867 37.9959 10.7418L35.9541 12.7837V8.43367C35.6878 7.90102 35.2439 7.45714 34.8 7.45714ZM65.6939 22.1939C65.1612 22.1939 64.8061 22.549 64.8061 23.0816C64.8061 23.4367 65.0724 23.7918 65.4275 23.9694C65.7826 24.3245 66.5816 25.301 66.5816 26.4551C66.5816 27.698 65.6939 29.0296 64.0959 30.3612C62.1428 31.8704 60.9 33.4684 60.0122 34.9776V28.2306L63.2969 24.9459C63.652 24.5908 63.652 24.0582 63.2969 23.7031C62.9418 23.348 62.4092 23.348 62.0541 23.7031L60.0122 25.7449V21.8388L63.2969 18.5541C63.652 18.199 63.652 17.6663 63.2969 17.3112C62.9418 16.9561 62.4092 16.9561 62.0541 17.3112L60.0122 19.3531V15.2694L63.2969 11.9847C63.652 11.6296 63.652 11.0969 63.2969 10.7418C62.9418 10.3867 62.4092 10.3867 62.0541 10.7418L60.0122 12.7837V8.43367C60.0122 7.90102 59.6571 7.54592 59.1245 7.54592C58.5918 7.54592 58.2367 7.90102 58.2367 8.43367V12.6949L56.2837 10.7418C55.9286 10.3867 55.3959 10.3867 55.0408 10.7418C54.6857 11.0969 54.6857 11.6296 55.0408 11.9847L58.2367 15.1806V19.2643L56.2837 17.3112C55.9286 16.9561 55.3959 16.9561 55.0408 17.3112C54.6857 17.6663 54.6857 18.199 55.0408 18.5541L58.2367 21.75V25.5673L56.1949 23.6143C55.8398 23.2592 55.3071 23.2592 54.952 23.6143C54.5969 23.9694 54.5969 24.502 54.952 24.8571L58.148 28.0531V34.7112C57.2602 33.202 56.0173 31.6929 54.2418 30.1837C52.5551 28.852 51.7561 27.6092 51.7561 26.2775C51.7561 24.6796 53.0877 23.6143 53.0877 23.6143C53.3541 23.348 53.5316 22.9929 53.3541 22.6378C53.1765 22.2827 52.9102 22.0163 52.5551 22.0163C51.401 22.0163 50.4245 20.7735 50.4245 19.1755C50.4245 17.9327 51.0459 16.7786 52.0224 16.4235C52.2888 16.3347 52.4663 16.1571 52.5551 15.8908C52.6439 15.6245 52.6439 15.3582 52.4663 15.0918C52.1112 14.5592 51.9337 13.9378 51.9337 13.3163C51.9337 12.1622 52.4663 11.0969 53.3541 10.6531C53.798 10.4755 53.9755 9.94286 53.798 9.58776C53.7092 9.23265 53.6204 8.78877 53.6204 8.43367C53.6204 6.92449 54.5969 5.59286 55.751 5.59286C55.751 5.59286 55.8398 5.59286 55.9286 5.59286C56.1949 5.59286 56.4612 5.50408 56.6388 5.32653C56.8163 5.14898 56.9051 4.88265 56.9051 4.61633C56.9051 4.52755 56.9051 4.52755 56.9051 4.43878C56.9051 2.92959 57.8816 1.59796 59.0357 1.59796C60.1898 1.59796 61.1663 2.84082 61.1663 4.43878C61.1663 4.52755 61.1663 4.52755 61.1663 4.61633C61.1663 4.88265 61.2551 5.0602 61.4326 5.23775C61.6102 5.41531 61.8765 5.50408 62.1429 5.50408C63.2969 5.50408 64.2735 6.74694 64.2735 8.3449C64.2735 8.7 64.1847 9.0551 64.0959 9.32143C64.0071 9.58775 64.0959 9.76531 64.1847 10.0316C64.2735 10.2092 64.5398 10.3867 64.7173 10.4755C65.6939 10.7418 66.4929 11.8959 66.4929 13.2275C66.4929 13.849 66.3153 14.4704 65.9602 15.0031C65.7826 15.2694 65.7826 15.5357 65.8714 15.802C65.9602 16.0684 66.1377 16.2459 66.4041 16.3347C67.2918 16.6898 68.002 17.7551 68.002 18.998C67.8245 20.8622 66.848 22.1939 65.6939 22.1939Z" fill="black"/>
</svg>
