<svg width="208" height="110" viewBox="0 0 208 110" fill="none" xmlns="http://www.w3.org/2000/svg">
<rect width="208" height="110" fill="white"/>
<path d="M50.7387 64V62.5677L52.3843 62.2021C52.4046 61.4707 52.4148 60.6784 52.4148 59.8251C52.4148 58.9718 52.4148 58.2303 52.4148 57.6005V44.832L50.5254 44.5273V43.2474L56.8335 41.8761L57.3211 42.1808L57.1992 46.4472V51.3534C58.0118 50.3986 58.794 49.7383 59.5456 49.3726C60.3176 48.9866 61.1506 48.7936 62.0445 48.7936C63.3853 48.7936 64.4621 49.2304 65.2747 50.104C66.0873 50.9776 66.4936 52.2879 66.4936 54.0351V57.6005C66.4936 58.2709 66.4936 59.0328 66.4936 59.8861C66.4936 60.719 66.5038 61.5113 66.5241 62.263L68.0478 62.5677V64H60.0332V62.5677L61.6178 62.2325C61.6382 61.4808 61.6483 60.6885 61.6483 59.8556C61.6483 59.0023 61.6483 58.2506 61.6483 57.6005V54.4008C61.6483 53.4053 61.5264 52.7146 61.2826 52.3286C61.0592 51.9426 60.6325 51.7496 60.0027 51.7496C59.5964 51.7496 59.1596 51.8715 58.6924 52.1153C58.2251 52.359 57.7578 52.7044 57.2906 53.1514V57.6005C57.2906 58.2303 57.2906 58.982 57.2906 59.8556C57.2906 60.7088 57.3007 61.5113 57.3211 62.263L58.7533 62.5677V64H50.7387ZM77.1042 50.3783C76.5354 50.3783 76.0071 50.7338 75.5196 51.4448C75.0523 52.1356 74.7882 53.4155 74.7272 55.2845H77.3175C78.0489 55.2845 78.5365 55.1423 78.7802 54.8579C79.0444 54.5532 79.1764 54.0554 79.1764 53.3647C79.1764 52.3489 78.9732 51.5972 78.5669 51.1096C78.1606 50.622 77.673 50.3783 77.1042 50.3783ZM77.1651 64.4571C75.6821 64.4571 74.3717 64.1524 73.234 63.5429C72.0964 62.9131 71.2025 62.0192 70.5524 60.8612C69.9022 59.6829 69.5772 58.2811 69.5772 56.6558C69.5772 54.9493 69.953 53.517 70.7047 52.359C71.4767 51.1807 72.462 50.297 73.6607 49.7078C74.8593 49.0984 76.1087 48.7936 77.4089 48.7936C78.7498 48.7936 79.8875 49.078 80.822 49.6469C81.7768 50.2157 82.498 50.9877 82.9856 51.9629C83.4732 52.9177 83.717 54.0148 83.717 55.2541C83.717 55.8432 83.656 56.3816 83.5341 56.8692H74.7272C74.8288 58.4741 75.2656 59.6626 76.0376 60.4346C76.8299 61.1863 77.7543 61.5621 78.8107 61.5621C79.6437 61.5621 80.3547 61.4097 80.9439 61.105C81.533 60.7799 82.0511 60.3838 82.498 59.9165L83.5646 60.8917C82.9348 62.0903 82.0816 62.9842 81.0048 63.5734C79.9281 64.1625 78.6482 64.4571 77.1651 64.4571ZM84.9628 64.0305V62.5982L86.5779 62.263C86.5983 61.5316 86.6084 60.7393 86.6084 59.8861C86.6084 59.0125 86.6084 58.2608 86.6084 57.631V44.7711L84.719 44.5273V43.2474L91.0271 41.8761L91.5147 42.1808L91.3928 46.4472V50.7439C92.6727 49.4437 94.1456 48.7936 95.8115 48.7936C96.9288 48.7936 97.9345 49.0882 98.8284 49.6774C99.7223 50.2462 100.433 51.1096 100.962 52.2676C101.51 53.4053 101.784 54.8173 101.784 56.5035C101.784 58.1491 101.48 59.5712 100.87 60.7698C100.261 61.9481 99.4582 62.8623 98.4627 63.5124C97.4875 64.1422 96.4209 64.4571 95.2629 64.4571C93.597 64.4571 92.2562 63.8578 91.2404 62.6592L90.7224 64.4266L84.9628 64.0305ZM93.5869 51.4448C93.2009 51.4448 92.8352 51.5261 92.4898 51.6886C92.1445 51.8512 91.8093 52.0645 91.4842 52.3286V61.0441C92.114 61.6129 92.8047 61.8973 93.5564 61.8973C94.4503 61.8973 95.1817 61.4605 95.7505 60.5869C96.3397 59.7134 96.6343 58.3827 96.6343 56.5949C96.6343 54.7868 96.3498 53.4764 95.781 52.6638C95.2325 51.8512 94.5011 51.4448 93.5869 51.4448ZM111.511 64.4571C109.927 64.4571 108.555 64.1321 107.397 63.4819C106.239 62.8115 105.345 61.8872 104.716 60.7088C104.086 59.5102 103.771 58.1287 103.771 56.5644C103.771 55.0001 104.106 53.6389 104.776 52.4809C105.467 51.3229 106.402 50.4189 107.58 49.7688C108.758 49.1187 110.069 48.7936 111.511 48.7936C112.954 48.7936 114.254 49.1085 115.412 49.7383C116.59 50.3681 117.525 51.2722 118.215 52.4505C118.906 53.6085 119.251 54.9798 119.251 56.5644C119.251 58.1491 118.937 59.5305 118.307 60.7088C117.677 61.8872 116.783 62.8115 115.625 63.4819C114.467 64.1321 113.096 64.4571 111.511 64.4571ZM111.511 62.8725C112.364 62.8725 113.004 62.3747 113.431 61.3793C113.858 60.3838 114.071 58.8093 114.071 56.6558C114.071 54.4821 113.858 52.8974 113.431 51.9019C113.004 50.9065 112.364 50.4087 111.511 50.4087C110.638 50.4087 109.987 50.9065 109.561 51.9019C109.134 52.8974 108.921 54.4821 108.921 56.6558C108.921 58.8093 109.134 60.3838 109.561 61.3793C109.987 62.3747 110.638 62.8725 111.511 62.8725ZM120.941 64V62.5677L122.617 62.2325C122.637 61.4808 122.647 60.6784 122.647 59.8251C122.647 58.9718 122.647 58.2303 122.647 57.6005V55.8026C122.647 55.2337 122.637 54.7665 122.617 54.4008C122.617 54.0351 122.606 53.6999 122.586 53.3952C122.586 53.0701 122.576 52.7044 122.556 52.2981L120.697 52.0238V50.8354L126.7 48.7936L127.249 49.1288L127.523 52.7247C127.95 51.4245 128.549 50.4494 129.321 49.7993C130.093 49.1288 130.855 48.7936 131.606 48.7936C132.277 48.7936 132.856 48.9866 133.343 49.3726C133.831 49.7383 134.136 50.297 134.258 51.0487C134.237 51.841 134.024 52.4606 133.618 52.9076C133.211 53.3342 132.703 53.5475 132.094 53.5475C131.241 53.5475 130.459 53.0701 129.747 52.1153L129.565 51.8715C129.118 52.2981 128.701 52.8365 128.315 53.4866C127.95 54.1367 127.685 54.8173 127.523 55.5283V57.6005C127.523 58.2303 127.523 58.9515 127.523 59.7642C127.523 60.5768 127.533 61.3386 127.553 62.0497L129.961 62.5677V64H120.941ZM135.198 64V62.5677L136.843 62.2021C136.863 61.4707 136.874 60.6784 136.874 59.8251C136.874 58.9718 136.874 58.2303 136.874 57.6005V56.1378C136.874 55.3048 136.863 54.6141 136.843 54.0656C136.843 53.4967 136.823 52.9076 136.782 52.2981L134.893 52.0238V50.8354L141.292 48.7936L141.81 49.1288L141.719 53.5475V57.6005C141.719 58.2303 141.719 58.982 141.719 59.8556C141.719 60.7088 141.729 61.5113 141.749 62.263L143.273 62.5677V64H135.198ZM139.251 46.5386C138.539 46.5386 137.93 46.3151 137.422 45.8682C136.914 45.4009 136.66 44.8219 136.66 44.1312C136.66 43.4201 136.914 42.8411 137.422 42.3942C137.93 41.9269 138.539 41.6933 139.251 41.6933C139.962 41.6933 140.571 41.9269 141.079 42.3942C141.587 42.8411 141.841 43.4201 141.841 44.1312C141.841 44.8219 141.587 45.4009 141.079 45.8682C140.571 46.3151 139.962 46.5386 139.251 46.5386ZM156.572 64.4266C154.804 64.4266 153.687 63.6953 153.22 62.2325C152.57 62.9233 151.94 63.4718 151.33 63.8781C150.741 64.2641 149.919 64.4571 148.862 64.4571C147.684 64.4571 146.719 64.1219 145.967 63.4515C145.236 62.7811 144.87 61.8161 144.87 60.5565C144.87 59.8251 145.033 59.1648 145.358 58.5757C145.683 57.9865 146.272 57.438 147.125 56.9301C147.978 56.4222 149.187 55.9448 150.751 55.4978C151.056 55.3963 151.412 55.2947 151.818 55.1931C152.224 55.0915 152.641 54.9899 153.067 54.8884V53.8827C153.067 52.5216 152.895 51.5972 152.549 51.1096C152.224 50.622 151.574 50.3783 150.599 50.3783C150.457 50.3783 150.325 50.3783 150.203 50.3783C150.081 50.3783 149.939 50.3884 149.776 50.4087L149.624 51.7496C149.604 52.7451 149.37 53.4663 148.923 53.9132C148.496 54.3602 147.989 54.5836 147.399 54.5836C146.282 54.5836 145.601 54.0757 145.358 53.0599C145.439 51.8004 146.079 50.7744 147.277 49.9821C148.476 49.1898 150.172 48.7936 152.367 48.7936C154.317 48.7936 155.709 49.2406 156.541 50.1345C157.395 51.0284 157.821 52.5013 157.821 54.5532V61.3793C157.821 61.9684 158.045 62.263 158.492 62.263C158.654 62.263 158.807 62.2224 158.949 62.1411C159.091 62.0395 159.243 61.8567 159.406 61.5926L160.229 62.1411C159.863 62.9537 159.386 63.5429 158.797 63.9086C158.228 64.2539 157.486 64.4266 156.572 64.4266ZM149.38 59.7642C149.38 60.5158 149.553 61.0745 149.898 61.4402C150.264 61.8059 150.701 61.9887 151.209 61.9887C151.432 61.9887 151.666 61.9379 151.909 61.8364C152.153 61.7348 152.539 61.5012 153.067 61.1355V56.1987C152.803 56.28 152.539 56.3714 152.275 56.473C152.031 56.5543 151.818 56.6355 151.635 56.7168C150.944 57.0012 150.396 57.4075 149.99 57.9357C149.583 58.4436 149.38 59.0531 149.38 59.7642Z" fill="#7C7C7C"/>
</svg>
