<svg width="85" height="86" viewBox="0 0 85 86" fill="none" xmlns="http://www.w3.org/2000/svg">
<path d="M39.4439 73.5468L41.083 73.8864L41.2087 73.2796L40.909 72.7372L39.4439 73.5468ZM42.8653 78.0973V79.7711H44.2951L44.5186 78.3589L42.8653 78.0973ZM81.9658 24.9607L83.6286 25.1526V25.1526L81.9658 24.9607ZM79.4716 23.3045L79.983 24.8983L79.983 24.8983L79.4716 23.3045ZM78.958 23.457L78.5724 21.8281L78.5723 21.8281L78.958 23.457ZM47.5965 39.2323L45.9784 39.6608L46.7149 42.4423L48.7688 40.4272L47.5965 39.2323ZM7.327 12.3087L6.81574 13.9026L6.87493 13.9216L6.93537 13.9361L7.327 12.3087ZM7.13695 12.245L7.67877 10.6612L7.67877 10.6612L7.13695 12.245ZM3.78718 16.5575L5.45846 16.6504L5.45846 16.6504L3.78718 16.5575ZM28.9203 65.8793L29.4998 64.3089H29.4998L28.9203 65.8793ZM33.4697 67.6339L34.1192 66.0912L34.1192 66.0912L33.4697 67.6339ZM34.6434 68.0648L35.1723 66.4767L35.1722 66.4767L34.6434 68.0648ZM39.8576 76.4234C40 76.4234 40.1964 76.4609 40.3912 76.5812C40.5789 76.6971 40.6804 76.8375 40.7254 76.9171C40.7902 77.0315 40.7398 77.0155 40.7261 76.6971C40.7004 76.0966 40.8248 75.1324 41.083 73.8864L37.8049 73.2072C37.54 74.4857 37.3368 75.7967 37.3815 76.8403C37.403 77.344 37.4873 77.9922 37.8116 78.5654C38.2054 79.2616 38.923 79.7711 39.8576 79.7711V76.4234ZM42.8653 76.4234H39.8576V79.7711H42.8653V76.4234ZM47.3768 69.6883C45.9086 69.6883 44.7812 70.4226 43.9899 71.2775C43.2153 72.1143 42.6675 73.1592 42.2824 74.0893C41.8904 75.036 41.6256 75.9661 41.4593 76.6488C41.3754 76.9932 41.3149 77.282 41.2748 77.4878C41.2547 77.5909 41.2397 77.6736 41.2294 77.7326C41.2242 77.7621 41.2202 77.7857 41.2173 77.803C41.2159 77.8116 41.2147 77.8187 41.2138 77.8242C41.2134 77.8269 41.213 77.8292 41.2127 77.8311C41.2125 77.8321 41.2124 77.8329 41.2123 77.8337C41.2122 77.834 41.2121 77.8345 41.2121 77.8347C41.212 77.8352 41.212 77.8356 42.8653 78.0973C44.5186 78.3589 44.5185 78.3593 44.5185 78.3596C44.5184 78.3597 44.5184 78.36 44.5184 78.3602C44.5183 78.3605 44.5183 78.3608 44.5182 78.3609C44.5182 78.3612 44.5182 78.3611 44.5183 78.3606C44.5185 78.3595 44.5189 78.357 44.5196 78.3529C44.5209 78.3447 44.5233 78.3305 44.5268 78.3107C44.5338 78.271 44.545 78.209 44.5608 78.1279C44.5924 77.9654 44.6421 77.728 44.712 77.4409C44.8533 76.8609 45.0703 76.1072 45.3755 75.3701C45.6875 74.6164 46.0523 73.9776 46.4466 73.5516C46.8243 73.1436 47.1222 73.036 47.3768 73.036V69.6883ZM80.3029 24.7688C78.7987 37.8049 76.6252 49.0712 71.787 57.0698C69.3909 61.0311 66.3573 64.1599 62.4386 66.3099C58.515 68.4626 53.6047 69.6883 47.3768 69.6883V73.036C54.0501 73.036 59.538 71.7198 64.0488 69.245C68.5645 66.7675 72.0016 63.1833 74.6515 58.8024C79.9052 50.1168 82.1251 38.1823 83.6286 25.1526L80.3029 24.7688ZM79.983 24.8983C80.1261 24.8524 80.252 24.8121 80.3772 24.7759C80.5013 24.74 80.6069 24.7134 80.6978 24.6955C80.79 24.6773 80.8474 24.6722 80.8763 24.6714C80.9063 24.6705 80.8786 24.6752 80.8137 24.6577C80.7415 24.6383 80.6321 24.5935 80.5227 24.5013C80.4115 24.4077 80.3511 24.308 80.3242 24.2467C80.3011 24.1938 80.3134 24.1943 80.3213 24.2858C80.3291 24.377 80.3303 24.532 80.3029 24.7688L83.6286 25.1526C83.7175 24.3825 83.6939 23.5959 83.3908 22.9038C83.0441 22.1119 82.4088 21.6201 81.6834 21.425C81.057 21.2564 80.4542 21.3315 80.0514 21.4107C79.6305 21.4936 79.2236 21.6261 78.9601 21.7107L79.983 24.8983ZM79.3436 25.0858C79.5676 25.0328 79.8123 24.9531 79.983 24.8983L78.9601 21.7107C78.7477 21.7789 78.6416 21.8117 78.5724 21.8281L79.3436 25.0858ZM48.7688 40.4272C57.385 31.9737 71.2457 27.0033 79.3437 25.0858L78.5723 21.8281C70.2663 23.7948 55.6914 28.9454 46.4242 38.0375L48.7688 40.4272ZM49.2146 38.8039C46.951 30.2546 41.363 24.3685 33.9758 20.0648C26.6355 15.7884 17.4262 13.0174 7.71863 10.6813L6.93537 13.9361C16.593 16.2602 25.3978 18.9417 32.2906 22.9574C39.1366 26.9458 44.0007 32.1914 45.9784 39.6608L49.2146 38.8039ZM7.83825 10.7148C7.79683 10.7015 7.74918 10.6853 7.67877 10.6612L6.59513 13.8287C6.65848 13.8504 6.73791 13.8776 6.81574 13.9026L7.83825 10.7148ZM7.67877 10.6612C7.29023 10.5283 5.68007 9.8725 4.22056 10.8721C3.50422 11.3627 3.02391 12.1169 2.70621 13.0113C2.38987 13.9018 2.19525 15.0381 2.11589 16.4645L5.45846 16.6504C5.52811 15.3986 5.6909 14.6102 5.86082 14.1319C6.02937 13.6574 6.16417 13.5986 6.11222 13.6341C5.98148 13.7237 5.8972 13.5899 6.59513 13.8287L7.67877 10.6612ZM2.11589 16.4645C1.01482 36.256 4.14663 47.8813 9.45493 55.1753C14.7695 62.478 22.0722 65.1367 28.3409 67.4496L29.4998 64.3089C23.1638 61.9711 16.8084 59.5902 12.1617 53.2054C7.5088 46.8119 4.37633 36.1016 5.45846 16.6504L2.11589 16.4645ZM28.3409 67.4496C29.9085 68.028 31.4009 68.579 32.8201 69.1766L34.1192 66.0912C32.6183 65.4592 31.0537 64.8822 29.4998 64.3089L28.3409 67.4496ZM32.8201 69.1766C33.3407 69.3958 33.7761 69.5402 34.1146 69.653L35.1722 66.4767C34.8364 66.3649 34.5095 66.2555 34.1192 66.0912L32.8201 69.1766ZM34.1146 69.653C34.8389 69.8942 35.0465 69.9707 35.4265 70.3693C35.9362 70.9042 36.6571 71.9644 37.9789 74.3564L40.909 72.7372C39.6008 70.3699 38.6956 68.947 37.8498 68.0596C36.8741 67.0359 35.9964 66.7511 35.1723 66.4767L34.1146 69.653Z" fill="black"/>
<path d="M27.8901 43.9207C27.8901 43.9207 26.4952 32.7615 16.7309 26.4845" stroke="black" stroke-width="3.34774"/>
<path d="M50.8859 59.5484C50.8859 48.0188 63.4181 42.5046 67.4284 38.4943" stroke="black" stroke-width="3.34774"/>
<path d="M49.6726 37.3228C42.5496 43.8979 37.0703 50.473 38.1662 60.3356C38.5314 63.6231 40.9058 68.0065 40.9058 68.0065C41.1508 69.5617 40.1837 72.3747 39.262 74.0336" stroke="black" stroke-width="3.28754"/>
</svg>
