<svg width="85" height="86" viewBox="0 0 85 86" fill="none" xmlns="http://www.w3.org/2000/svg">
<path d="M31.3189 12.8495L27.1844 19.9917L31.3189 27.1328H39.6111L43.7456 19.9917L39.6111 12.8495H31.3189ZM27.1844 38.1265L31.3189 45.2686H39.6111L43.7456 38.1265L39.6111 30.9853H31.3189L27.1844 38.1265ZM31.3189 49.1181L27.1844 56.2603L31.3189 63.4014H39.6111L43.7456 56.2603L39.6111 49.1181H31.3189ZM23.8644 58.1855H13.364L7 47.1929L12.2513 38.1265L7 29.0621L13.364 18.0664H23.8644L29.1106 9H41.8173L47.0666 18.0664H57.5671L62.8183 27.1348H73.3137L79.6777 38.1265L74.4285 47.1929L79.6777 56.2603L73.3137 67.2519H62.8163L57.5671 76.3183H44.8583L39.6111 67.2519H29.1106L23.8644 58.1855ZM15.5722 40.0517L11.4377 47.1929L15.5722 54.335H23.8644L27.9989 47.1929L23.8644 40.0517H15.5722ZM23.8644 21.9169H15.5742L11.4377 29.0601L15.5722 36.2012H23.8644L27.9989 29.0601L23.8644 21.9169ZM42.9321 29.058L47.0666 36.2012H55.3608L59.4953 29.0601L55.3578 21.9169H47.0666L42.9321 29.058ZM47.0666 40.0517L42.9321 47.1929L47.0666 54.335H55.3608L59.4953 47.1929L55.3608 40.0517H47.0666ZM59.4953 65.3267L55.3608 58.1855H47.0666L42.9321 65.3267L47.0666 72.4678H55.3608L59.4953 65.3267ZM58.6818 56.2603L62.8163 63.4014H71.1075L75.242 56.2603L71.1075 49.1181H62.8163L58.6818 56.2603ZM58.6818 38.1265L62.8163 45.2686H71.1075L75.242 38.1265L71.1075 30.9853H62.8163L58.6818 38.1265Z" fill="black"/>
</svg>
