<svg width="92" height="92" viewBox="0 0 92 92" fill="none" xmlns="http://www.w3.org/2000/svg">
<path d="M46.2 22.3766C33.2726 22.3766 22.5613 32.9032 22.5613 46.0153C22.5613 59.1274 33.0879 69.654 46.2 69.654C59.3121 69.654 69.8387 58.9427 69.8387 46.0153C69.8387 33.0879 59.1274 22.3766 46.2 22.3766ZM46.2 61.1588C37.8895 61.1588 31.0565 54.3258 31.0565 46.0153C31.0565 37.7048 37.8895 30.8717 46.2 30.8717C54.5105 30.8717 61.3436 37.7048 61.3436 46.0153C61.3436 54.3258 54.5105 61.1588 46.2 61.1588Z" fill="white"/>
<path d="M70.7621 27.1782C73.7199 27.1782 76.1178 24.7804 76.1178 21.8226C76.1178 18.8648 73.7199 16.4669 70.7621 16.4669C67.8043 16.4669 65.4065 18.8648 65.4065 21.8226C65.4065 24.7804 67.8043 27.1782 70.7621 27.1782Z" fill="white"/>
<path d="M84.6129 7.97178C79.8113 2.98549 72.9782 0.400009 65.2218 0.400009H27.1782C11.1113 0.400009 0.400009 11.1113 0.400009 27.1782V65.0371C0.400009 72.9782 2.98549 79.8113 8.15646 84.7976C13.1427 89.5992 19.7911 92 27.3629 92H65.0371C72.9782 92 79.6266 89.4145 84.4282 84.7976C89.4145 79.996 92 73.1629 92 65.2218V27.1782C92 19.4218 89.4145 12.7734 84.6129 7.97178ZM83.8742 65.2218C83.8742 70.9468 81.8427 75.5637 78.5186 78.7032C75.1944 81.8428 70.5774 83.5048 65.0371 83.5048H27.3629C21.8226 83.5048 17.2057 81.8428 13.8815 78.7032C10.5573 75.379 8.89517 70.7621 8.89517 65.0371V27.1782C8.89517 21.6379 10.5573 17.021 13.8815 13.6968C17.021 10.5573 21.8226 8.89517 27.3629 8.89517H65.4064C70.9468 8.89517 75.5637 10.5573 78.8879 13.8815C82.0274 17.2057 83.8742 21.8226 83.8742 27.1782V65.2218Z" fill="white"/>
</svg>
