<svg width="85" height="86" viewBox="0 0 85 86" fill="none" xmlns="http://www.w3.org/2000/svg">
<mask id="path-1-outside-1" maskUnits="userSpaceOnUse" x="5" y="5" width="44" height="79" fill="black">
<rect fill="white" x="5" y="5" width="44" height="79"/>
<path d="M47.0216 16.3253C46.2063 13.6145 43.6042 9.79621 35.8204 7.01742C31.9953 5.66086 21.4078 5.66086 17.5601 7.01742C9.77632 9.77356 7.17418 13.6145 6.35889 16.3253C5.4983 19.2174 6.20036 22.3359 8.30427 25.092C9.50456 26.6728 11.4499 27.3295 13.2141 26.8766H13.2368C14.7519 27.7349 17.9881 30.4231 18.4637 38.1956C19.0752 48.2055 15.8616 68.1553 15.8389 68.3138C15.5898 69.5119 15.5219 70.7529 15.6578 71.9962C16.2692 78.052 21.4056 82.7966 27.3323 82.7966C33.259 82.7966 38.3976 78.052 39.0295 71.9962C39.1427 70.8209 39.0974 69.6681 38.8256 68.3591H38.8483C38.8257 68.1553 35.5894 48.0697 36.2009 38.1956C36.6538 30.7855 39.6183 27.984 41.2013 27.0125C41.224 27.0125 41.224 27.0125 41.2466 27.0125C42.6938 27.0125 44.1205 26.3353 45.0717 25.092C47.1801 22.3132 47.8822 19.2174 47.0216 16.3253ZM33.9452 38.0619C33.3337 47.8681 36.5021 68.5177 36.6379 68.7894C36.8191 69.761 36.8871 70.7552 36.7738 71.772C36.2756 76.6978 32.1357 80.5387 27.3391 80.5387C22.5651 80.5387 18.4003 76.6978 17.9043 71.772C17.8138 70.7552 17.859 69.7383 17.9949 68.9479C18.1761 68.4724 21.3671 48.1399 20.7329 38.0619C20.3027 30.9666 17.6779 27.4654 15.6193 25.8167C18.7423 24.4149 22.6104 23.6471 26.7072 23.6471C31.1415 23.6471 35.3063 24.5507 38.5629 26.2221C36.613 28.0293 34.3506 31.5079 33.9452 38.0619ZM43.2667 23.7151C42.8591 24.2563 42.2929 24.596 41.7063 24.7093C41.3893 24.7772 41.0722 24.7772 40.7778 24.6866C40.574 24.664 40.3475 24.5734 40.1664 24.4828C36.4998 22.4944 31.7258 21.3869 26.7027 21.3869C21.7022 21.3869 16.9283 22.4717 13.307 24.4375L13.0126 24.5507C12.0161 25.0014 10.8407 24.664 10.116 23.7151C8.44242 21.5455 7.87624 19.1517 8.533 16.9595C9.48418 13.7957 12.8541 11.0848 18.3075 9.14171C21.6796 7.96633 31.7032 7.96633 35.073 9.14171C40.5264 11.0848 43.8986 13.7957 44.8475 16.9595C45.4839 19.1494 44.9403 21.5455 43.2667 23.7151Z"/>
</mask>
<path d="M47.0216 16.3253C46.2063 13.6145 43.6042 9.79621 35.8204 7.01742C31.9953 5.66086 21.4078 5.66086 17.5601 7.01742C9.77632 9.77356 7.17418 13.6145 6.35889 16.3253C5.4983 19.2174 6.20036 22.3359 8.30427 25.092C9.50456 26.6728 11.4499 27.3295 13.2141 26.8766H13.2368C14.7519 27.7349 17.9881 30.4231 18.4637 38.1956C19.0752 48.2055 15.8616 68.1553 15.8389 68.3138C15.5898 69.5119 15.5219 70.7529 15.6578 71.9962C16.2692 78.052 21.4056 82.7966 27.3323 82.7966C33.259 82.7966 38.3976 78.052 39.0295 71.9962C39.1427 70.8209 39.0974 69.6681 38.8256 68.3591H38.8483C38.8257 68.1553 35.5894 48.0697 36.2009 38.1956C36.6538 30.7855 39.6183 27.984 41.2013 27.0125C41.224 27.0125 41.224 27.0125 41.2466 27.0125C42.6938 27.0125 44.1205 26.3353 45.0717 25.092C47.1801 22.3132 47.8822 19.2174 47.0216 16.3253ZM33.9452 38.0619C33.3337 47.8681 36.5021 68.5177 36.6379 68.7894C36.8191 69.761 36.8871 70.7552 36.7738 71.772C36.2756 76.6978 32.1357 80.5387 27.3391 80.5387C22.5651 80.5387 18.4003 76.6978 17.9043 71.772C17.8138 70.7552 17.859 69.7383 17.9949 68.9479C18.1761 68.4724 21.3671 48.1399 20.7329 38.0619C20.3027 30.9666 17.6779 27.4654 15.6193 25.8167C18.7423 24.4149 22.6104 23.6471 26.7072 23.6471C31.1415 23.6471 35.3063 24.5507 38.5629 26.2221C36.613 28.0293 34.3506 31.5079 33.9452 38.0619ZM43.2667 23.7151C42.8591 24.2563 42.2929 24.596 41.7063 24.7093C41.3893 24.7772 41.0722 24.7772 40.7778 24.6866C40.574 24.664 40.3475 24.5734 40.1664 24.4828C36.4998 22.4944 31.7258 21.3869 26.7027 21.3869C21.7022 21.3869 16.9283 22.4717 13.307 24.4375L13.0126 24.5507C12.0161 25.0014 10.8407 24.664 10.116 23.7151C8.44242 21.5455 7.87624 19.1517 8.533 16.9595C9.48418 13.7957 12.8541 11.0848 18.3075 9.14171C21.6796 7.96633 31.7032 7.96633 35.073 9.14171C40.5264 11.0848 43.8986 13.7957 44.8475 16.9595C45.4839 19.1494 44.9403 21.5455 43.2667 23.7151Z" fill="black"/>
<path d="M47.0216 16.3253L47.7405 16.1114L47.7398 16.1093L47.0216 16.3253ZM35.8204 7.01742L36.0726 6.31108L36.0711 6.31055L35.8204 7.01742ZM17.5601 7.01742L17.3107 6.31009L17.3098 6.31043L17.5601 7.01742ZM6.35889 16.3253L5.64067 16.1093L5.64004 16.1114L6.35889 16.3253ZM8.30427 25.092L8.90159 24.6384L8.90043 24.6369L8.30427 25.092ZM13.2141 26.8766V26.1266H13.1194L13.0276 26.1501L13.2141 26.8766ZM13.2368 26.8766L13.6065 26.224L13.4345 26.1266H13.2368V26.8766ZM18.4637 38.1956L19.2123 38.1498L19.2123 38.1498L18.4637 38.1956ZM15.8389 68.3138L16.5732 68.4665L16.578 68.4433L16.5814 68.4199L15.8389 68.3138ZM15.6578 71.9962L16.404 71.9209L16.4033 71.9148L15.6578 71.9962ZM39.0295 71.9962L39.7754 72.0741L39.776 72.0682L39.0295 71.9962ZM38.8256 68.3591V67.6091H37.9039L38.0913 68.5116L38.8256 68.3591ZM38.8483 68.3591V69.1091H39.6862L39.5937 68.2763L38.8483 68.3591ZM36.2009 38.1956L36.9494 38.2419L36.9495 38.2413L36.2009 38.1956ZM41.2013 27.0125V26.2625H40.9895L40.809 26.3733L41.2013 27.0125ZM45.0717 25.092L45.6674 25.5477L45.6692 25.5453L45.0717 25.092ZM33.9452 38.0619L34.6938 38.1086L34.6938 38.1082L33.9452 38.0619ZM36.6379 68.7894L37.3752 68.6519L37.3559 68.5483L37.3088 68.454L36.6379 68.7894ZM36.7738 71.772L36.0284 71.689L36.0276 71.6966L36.7738 71.772ZM17.9043 71.772L17.1572 71.8386L17.1581 71.8472L17.9043 71.772ZM17.9949 68.9479L17.2941 68.6809L17.2681 68.749L17.2558 68.8209L17.9949 68.9479ZM20.7329 38.0619L19.9843 38.1073L19.9844 38.109L20.7329 38.0619ZM15.6193 25.8167L15.3121 25.1325L14.1926 25.635L15.1504 26.4021L15.6193 25.8167ZM38.5629 26.2221L39.0728 26.7722L39.8585 26.044L38.9054 25.5548L38.5629 26.2221ZM43.2667 23.7151L42.6728 23.2569L42.6676 23.2639L43.2667 23.7151ZM41.7063 24.7093L41.5642 23.9729L41.5567 23.9743L41.5492 23.9759L41.7063 24.7093ZM40.7778 24.6866L40.9984 23.9698L40.9309 23.949L40.8606 23.9412L40.7778 24.6866ZM40.1664 24.4828L39.8088 25.1421L39.8198 25.148L39.8309 25.1536L40.1664 24.4828ZM13.307 24.4375L13.5762 25.1375L13.6218 25.12L13.6648 25.0966L13.307 24.4375ZM13.0126 24.5507L12.7433 23.8507L12.7232 23.8585L12.7035 23.8674L13.0126 24.5507ZM10.116 23.7151L10.7121 23.2598L10.7099 23.257L10.116 23.7151ZM8.533 16.9595L7.81476 16.7435L7.81455 16.7442L8.533 16.9595ZM18.3075 9.14171L18.0606 8.43348L18.0557 8.43522L18.3075 9.14171ZM35.073 9.14171L35.3248 8.4352L35.32 8.43355L35.073 9.14171ZM44.8475 16.9595L45.5677 16.7502L45.5659 16.744L44.8475 16.9595ZM47.7398 16.1093C46.8404 13.1188 44.0248 9.15002 36.0726 6.31108L35.5682 7.72376C43.1835 10.4424 45.5722 14.1102 46.3034 16.5413L47.7398 16.1093ZM36.0711 6.31055C34.0281 5.58603 30.3129 5.25 26.6987 5.25C23.0841 5.25 19.3641 5.58614 17.3107 6.31009L17.8095 7.72474C19.6038 7.09213 23.1014 6.75 26.6987 6.75C30.2965 6.75 33.7876 7.09225 35.5697 7.72428L36.0711 6.31055ZM17.3098 6.31043C9.35424 9.12739 6.53966 13.1202 5.64067 16.1093L7.07711 16.5413C7.80871 14.1088 10.1984 10.4197 17.8104 7.72441L17.3098 6.31043ZM5.64004 16.1114C4.69944 19.2724 5.48541 22.6353 7.70811 25.5471L8.90043 24.6369C6.91531 22.0364 6.29717 19.1624 7.07774 16.5392L5.64004 16.1114ZM7.70695 25.5456C9.08461 27.3599 11.3359 28.1331 13.4006 27.603L13.0276 26.1501C11.564 26.5259 9.92451 25.9856 8.90159 24.6384L7.70695 25.5456ZM13.2141 27.6266H13.2368V26.1266H13.2141V27.6266ZM12.8671 27.5291C14.147 28.2542 17.254 30.7053 17.7151 38.2414L19.2123 38.1498C18.7223 30.1409 15.3568 27.2156 13.6065 26.224L12.8671 27.5291ZM17.7151 38.2413C18.0163 43.1721 17.3742 50.6015 16.6442 56.8621C15.9159 63.1078 15.1099 68.1136 15.0965 68.2078L16.5814 68.4199C16.5811 68.422 16.5834 68.4069 16.5911 68.3586C16.5978 68.3159 16.6075 68.2545 16.6198 68.1755C16.6446 68.0175 16.6801 67.7893 16.7247 67.4983C16.8138 66.9161 16.9391 66.0825 17.0869 65.0555C17.3825 63.0017 17.7682 60.1735 18.1341 57.0359C18.8636 50.7795 19.5226 43.229 19.2123 38.1498L17.7151 38.2413ZM15.1046 68.1611C14.84 69.4337 14.7675 70.7538 14.9122 72.0777L16.4033 71.9148C16.2762 70.7521 16.3396 69.59 16.5732 68.4665L15.1046 68.1611ZM14.9115 72.0716C15.5602 78.4954 21.0055 83.5466 27.3323 83.5466V82.0466C21.8056 82.0466 16.9783 77.6087 16.404 71.9209L14.9115 72.0716ZM27.3323 83.5466C33.6593 83.5466 39.1054 78.4955 39.7754 72.0741L38.2835 71.9184C37.6898 77.6086 32.8587 82.0466 27.3323 82.0466V83.5466ZM39.776 72.0682C39.8962 70.8202 39.8476 69.5917 39.56 68.2067L38.0913 68.5116C38.3473 69.7445 38.3892 70.8215 38.2829 71.9243L39.776 72.0682ZM38.8256 69.1091H38.8483V67.6091H38.8256V69.1091ZM39.5937 68.2763C39.5865 68.2115 39.3736 66.8737 39.0815 64.8419C38.7851 62.7804 38.3985 59.9488 38.0317 56.8165C37.2959 50.5322 36.6483 43.1038 36.9494 38.2419L35.4523 38.1492C35.1419 43.1614 35.8068 50.7129 36.5419 56.9909C36.9106 60.1397 37.299 62.9849 37.5967 65.0554C37.7456 66.0908 37.8718 66.9327 37.9615 67.5223C38.0063 67.8171 38.0421 68.0488 38.0669 68.2096C38.0945 68.3886 38.1038 68.4503 38.1029 68.4419L39.5937 68.2763ZM36.9495 38.2413C37.3891 31.0489 40.2406 28.4821 41.5936 27.6517L40.809 26.3733C38.996 27.486 35.9185 30.522 35.4523 38.1498L36.9495 38.2413ZM41.2013 27.7625C41.2014 27.7625 41.2014 27.7625 41.2015 27.7625C41.2015 27.7625 41.2015 27.7625 41.2016 27.7625C41.2016 27.7625 41.2017 27.7625 41.2017 27.7625C41.2018 27.7625 41.2018 27.7625 41.2018 27.7625C41.2019 27.7625 41.2019 27.7625 41.202 27.7625C41.202 27.7625 41.2021 27.7625 41.2021 27.7625C41.2022 27.7625 41.2022 27.7625 41.2022 27.7625C41.2023 27.7625 41.2023 27.7625 41.2024 27.7625C41.2024 27.7625 41.2025 27.7625 41.2025 27.7625C41.2025 27.7625 41.2026 27.7625 41.2026 27.7625C41.2027 27.7625 41.2027 27.7625 41.2027 27.7625C41.2028 27.7625 41.2028 27.7625 41.2029 27.7625C41.2029 27.7625 41.203 27.7625 41.203 27.7625C41.203 27.7625 41.2031 27.7625 41.2031 27.7625C41.2032 27.7625 41.2032 27.7625 41.2033 27.7625C41.2033 27.7625 41.2033 27.7625 41.2034 27.7625C41.2034 27.7625 41.2035 27.7625 41.2035 27.7625C41.2035 27.7625 41.2036 27.7625 41.2036 27.7625C41.2037 27.7625 41.2037 27.7625 41.2038 27.7625C41.2038 27.7625 41.2038 27.7625 41.2039 27.7625C41.2039 27.7625 41.204 27.7625 41.204 27.7625C41.204 27.7625 41.2041 27.7625 41.2041 27.7625C41.2042 27.7625 41.2042 27.7625 41.2042 27.7625C41.2043 27.7625 41.2043 27.7625 41.2044 27.7625C41.2044 27.7625 41.2044 27.7625 41.2045 27.7625C41.2045 27.7625 41.2046 27.7625 41.2046 27.7625C41.2046 27.7625 41.2047 27.7625 41.2047 27.7625C41.2048 27.7625 41.2048 27.7625 41.2048 27.7625C41.2049 27.7625 41.2049 27.7625 41.205 27.7625C41.205 27.7625 41.205 27.7625 41.2051 27.7625C41.2051 27.7625 41.2052 27.7625 41.2052 27.7625C41.2052 27.7625 41.2053 27.7625 41.2053 27.7625C41.2054 27.7625 41.2054 27.7625 41.2054 27.7625C41.2055 27.7625 41.2055 27.7625 41.2055 27.7625C41.2056 27.7625 41.2056 27.7625 41.2057 27.7625C41.2057 27.7625 41.2057 27.7625 41.2058 27.7625C41.2058 27.7625 41.2059 27.7625 41.2059 27.7625C41.2059 27.7625 41.206 27.7625 41.206 27.7625C41.206 27.7625 41.2061 27.7625 41.2061 27.7625C41.2062 27.7625 41.2062 27.7625 41.2062 27.7625C41.2063 27.7625 41.2063 27.7625 41.2063 27.7625C41.2064 27.7625 41.2064 27.7625 41.2065 27.7625C41.2065 27.7625 41.2065 27.7625 41.2066 27.7625C41.2066 27.7625 41.2066 27.7625 41.2067 27.7625C41.2067 27.7625 41.2068 27.7625 41.2068 27.7625C41.2068 27.7625 41.2069 27.7625 41.2069 27.7625C41.2069 27.7625 41.207 27.7625 41.207 27.7625C41.2071 27.7625 41.2071 27.7625 41.2071 27.7625C41.2072 27.7625 41.2072 27.7625 41.2072 27.7625C41.2073 27.7625 41.2073 27.7625 41.2073 27.7625C41.2074 27.7625 41.2074 27.7625 41.2075 27.7625C41.2075 27.7625 41.2075 27.7625 41.2076 27.7625C41.2076 27.7625 41.2076 27.7625 41.2077 27.7625C41.2077 27.7625 41.2077 27.7625 41.2078 27.7625C41.2078 27.7625 41.2079 27.7625 41.2079 27.7625C41.2079 27.7625 41.208 27.7625 41.208 27.7625C41.208 27.7625 41.2081 27.7625 41.2081 27.7625C41.2081 27.7625 41.2082 27.7625 41.2082 27.7625C41.2082 27.7625 41.2083 27.7625 41.2083 27.7625C41.2084 27.7625 41.2084 27.7625 41.2084 27.7625C41.2085 27.7625 41.2085 27.7625 41.2085 27.7625C41.2086 27.7625 41.2086 27.7625 41.2086 27.7625C41.2087 27.7625 41.2087 27.7625 41.2087 27.7625C41.2088 27.7625 41.2088 27.7625 41.2088 27.7625C41.2089 27.7625 41.2089 27.7625 41.2089 27.7625C41.209 27.7625 41.209 27.7625 41.209 27.7625C41.2091 27.7625 41.2091 27.7625 41.2091 27.7625C41.2092 27.7625 41.2092 27.7625 41.2093 27.7625C41.2093 27.7625 41.2093 27.7625 41.2094 27.7625C41.2094 27.7625 41.2094 27.7625 41.2095 27.7625C41.2095 27.7625 41.2095 27.7625 41.2096 27.7625C41.2096 27.7625 41.2096 27.7625 41.2097 27.7625C41.2097 27.7625 41.2097 27.7625 41.2098 27.7625C41.2098 27.7625 41.2098 27.7625 41.2099 27.7625C41.2099 27.7625 41.2099 27.7625 41.21 27.7625C41.21 27.7625 41.21 27.7625 41.2101 27.7625C41.2101 27.7625 41.2101 27.7625 41.2102 27.7625C41.2102 27.7625 41.2102 27.7625 41.2103 27.7625C41.2103 27.7625 41.2103 27.7625 41.2104 27.7625C41.2104 27.7625 41.2104 27.7625 41.2105 27.7625C41.2105 27.7625 41.2105 27.7625 41.2105 27.7625C41.2106 27.7625 41.2106 27.7625 41.2106 27.7625C41.2107 27.7625 41.2107 27.7625 41.2107 27.7625C41.2108 27.7625 41.2108 27.7625 41.2108 27.7625C41.2109 27.7625 41.2109 27.7625 41.2109 27.7625C41.211 27.7625 41.211 27.7625 41.211 27.7625C41.2111 27.7625 41.2111 27.7625 41.2111 27.7625C41.2112 27.7625 41.2112 27.7625 41.2112 27.7625C41.2113 27.7625 41.2113 27.7625 41.2113 27.7625C41.2113 27.7625 41.2114 27.7625 41.2114 27.7625C41.2114 27.7625 41.2115 27.7625 41.2115 27.7625C41.2115 27.7625 41.2116 27.7625 41.2116 27.7625C41.2116 27.7625 41.2117 27.7625 41.2117 27.7625C41.2117 27.7625 41.2118 27.7625 41.2118 27.7625C41.2118 27.7625 41.2118 27.7625 41.2119 27.7625C41.2119 27.7625 41.2119 27.7625 41.212 27.7625C41.212 27.7625 41.212 27.7625 41.2121 27.7625C41.2121 27.7625 41.2121 27.7625 41.2122 27.7625C41.2122 27.7625 41.2122 27.7625 41.2122 27.7625C41.2123 27.7625 41.2123 27.7625 41.2123 27.7625C41.2124 27.7625 41.2124 27.7625 41.2124 27.7625C41.2125 27.7625 41.2125 27.7625 41.2125 27.7625C41.2125 27.7625 41.2126 27.7625 41.2126 27.7625C41.2126 27.7625 41.2127 27.7625 41.2127 27.7625C41.2127 27.7625 41.2128 27.7625 41.2128 27.7625C41.2128 27.7625 41.2128 27.7625 41.2129 27.7625C41.2129 27.7625 41.2129 27.7625 41.213 27.7625C41.213 27.7625 41.213 27.7625 41.2131 27.7625C41.2131 27.7625 41.2131 27.7625 41.2131 27.7625C41.2132 27.7625 41.2132 27.7625 41.2132 27.7625C41.2133 27.7625 41.2133 27.7625 41.2133 27.7625C41.2133 27.7625 41.2134 27.7625 41.2134 27.7625C41.2134 27.7625 41.2135 27.7625 41.2135 27.7625C41.2135 27.7625 41.2136 27.7625 41.2136 27.7625C41.2136 27.7625 41.2136 27.7625 41.2137 27.7625C41.2137 27.7625 41.2137 27.7625 41.2138 27.7625C41.2138 27.7625 41.2138 27.7625 41.2138 27.7625C41.2139 27.7625 41.2139 27.7625 41.2139 27.7625C41.214 27.7625 41.214 27.7625 41.214 27.7625C41.214 27.7625 41.2141 27.7625 41.2141 27.7625C41.2141 27.7625 41.2142 27.7625 41.2142 27.7625C41.2142 27.7625 41.2142 27.7625 41.2143 27.7625C41.2143 27.7625 41.2143 27.7625 41.2143 27.7625C41.2144 27.7625 41.2144 27.7625 41.2144 27.7625C41.2145 27.7625 41.2145 27.7625 41.2145 27.7625C41.2145 27.7625 41.2146 27.7625 41.2146 27.7625C41.2146 27.7625 41.2147 27.7625 41.2147 27.7625C41.2147 27.7625 41.2147 27.7625 41.2148 27.7625C41.2148 27.7625 41.2148 27.7625 41.2149 27.7625C41.2149 27.7625 41.2149 27.7625 41.2149 27.7625C41.215 27.7625 41.215 27.7625 41.215 27.7625C41.215 27.7625 41.2151 27.7625 41.2151 27.7625C41.2151 27.7625 41.2152 27.7625 41.2152 27.7625C41.2152 27.7625 41.2152 27.7625 41.2153 27.7625C41.2153 27.7625 41.2153 27.7625 41.2153 27.7625C41.2154 27.7625 41.2154 27.7625 41.2154 27.7625C41.2154 27.7625 41.2155 27.7625 41.2155 27.7625C41.2155 27.7625 41.2156 27.7625 41.2156 27.7625C41.2156 27.7625 41.2156 27.7625 41.2157 27.7625C41.2157 27.7625 41.2157 27.7625 41.2157 27.7625C41.2158 27.7625 41.2158 27.7625 41.2158 27.7625C41.2159 27.7625 41.2159 27.7625 41.2159 27.7625C41.2159 27.7625 41.216 27.7625 41.216 27.7625C41.216 27.7625 41.216 27.7625 41.2161 27.7625C41.2161 27.7625 41.2161 27.7625 41.2161 27.7625C41.2162 27.7625 41.2162 27.7625 41.2162 27.7625C41.2162 27.7625 41.2163 27.7625 41.2163 27.7625C41.2163 27.7625 41.2164 27.7625 41.2164 27.7625C41.2164 27.7625 41.2164 27.7625 41.2165 27.7625C41.2165 27.7625 41.2165 27.7625 41.2165 27.7625C41.2166 27.7625 41.2166 27.7625 41.2166 27.7625C41.2166 27.7625 41.2167 27.7625 41.2167 27.7625C41.2167 27.7625 41.2167 27.7625 41.2168 27.7625C41.2168 27.7625 41.2168 27.7625 41.2168 27.7625C41.2169 27.7625 41.2169 27.7625 41.2169 27.7625C41.2169 27.7625 41.217 27.7625 41.217 27.7625C41.217 27.7625 41.217 27.7625 41.2171 27.7625C41.2171 27.7625 41.2171 27.7625 41.2171 27.7625C41.2172 27.7625 41.2172 27.7625 41.2172 27.7625C41.2172 27.7625 41.2173 27.7625 41.2173 27.7625C41.2173 27.7625 41.2174 27.7625 41.2174 27.7625C41.2174 27.7625 41.2174 27.7625 41.2175 27.7625C41.2175 27.7625 41.2175 27.7625 41.2175 27.7625C41.2176 27.7625 41.2176 27.7625 41.2176 27.7625C41.2176 27.7625 41.2177 27.7625 41.2177 27.7625C41.2177 27.7625 41.2177 27.7625 41.2178 27.7625C41.2178 27.7625 41.2178 27.7625 41.2178 27.7625C41.2178 27.7625 41.2179 27.7625 41.2179 27.7625C41.2179 27.7625 41.2179 27.7625 41.218 27.7625C41.218 27.7625 41.218 27.7625 41.218 27.7625C41.2181 27.7625 41.2181 27.7625 41.2181 27.7625C41.2181 27.7625 41.2182 27.7625 41.2182 27.7625C41.2182 27.7625 41.2182 27.7625 41.2183 27.7625C41.2183 27.7625 41.2183 27.7625 41.2183 27.7625C41.2184 27.7625 41.2184 27.7625 41.2184 27.7625C41.2184 27.7625 41.2185 27.7625 41.2185 27.7625C41.2185 27.7625 41.2185 27.7625 41.2186 27.7625C41.2186 27.7625 41.2186 27.7625 41.2186 27.7625C41.2187 27.7625 41.2187 27.7625 41.2187 27.7625C41.2187 27.7625 41.2188 27.7625 41.2188 27.7625C41.2188 27.7625 41.2188 27.7625 41.2188 27.7625C41.2189 27.7625 41.2189 27.7625 41.2189 27.7625C41.2189 27.7625 41.219 27.7625 41.219 27.7625C41.219 27.7625 41.219 27.7625 41.2191 27.7625C41.2191 27.7625 41.2191 27.7625 41.2191 27.7625C41.2192 27.7625 41.2192 27.7625 41.2192 27.7625C41.2192 27.7625 41.2193 27.7625 41.2193 27.7625C41.2193 27.7625 41.2193 27.7625 41.2194 27.7625C41.2194 27.7625 41.2194 27.7625 41.2194 27.7625C41.2194 27.7625 41.2195 27.7625 41.2195 27.7625C41.2195 27.7625 41.2195 27.7625 41.2196 27.7625C41.2196 27.7625 41.2196 27.7625 41.2196 27.7625C41.2197 27.7625 41.2197 27.7625 41.2197 27.7625C41.2197 27.7625 41.2198 27.7625 41.2198 27.7625C41.2198 27.7625 41.2198 27.7625 41.2198 27.7625C41.2199 27.7625 41.2199 27.7625 41.2199 27.7625C41.2199 27.7625 41.22 27.7625 41.22 27.7625C41.22 27.7625 41.22 27.7625 41.2201 27.7625C41.2201 27.7625 41.2201 27.7625 41.2201 27.7625C41.2201 27.7625 41.2202 27.7625 41.2202 27.7625C41.2202 27.7625 41.2202 27.7625 41.2203 27.7625C41.2203 27.7625 41.2203 27.7625 41.2203 27.7625C41.2204 27.7625 41.2204 27.7625 41.2204 27.7625C41.2204 27.7625 41.2204 27.7625 41.2205 27.7625C41.2205 27.7625 41.2205 27.7625 41.2205 27.7625C41.2206 27.7625 41.2206 27.7625 41.2206 27.7625C41.2206 27.7625 41.2207 27.7625 41.2207 27.7625C41.2207 27.7625 41.2207 27.7625 41.2207 27.7625C41.2208 27.7625 41.2208 27.7625 41.2208 27.7625C41.2208 27.7625 41.2209 27.7625 41.2209 27.7625C41.2209 27.7625 41.2209 27.7625 41.221 27.7625C41.221 27.7625 41.221 27.7625 41.221 27.7625C41.221 27.7625 41.2211 27.7625 41.2211 27.7625C41.2211 27.7625 41.2211 27.7625 41.2212 27.7625C41.2212 27.7625 41.2212 27.7625 41.2212 27.7625C41.2212 27.7625 41.2213 27.7625 41.2213 27.7625C41.2213 27.7625 41.2213 27.7625 41.2214 27.7625C41.2214 27.7625 41.2214 27.7625 41.2214 27.7625C41.2215 27.7625 41.2215 27.7625 41.2215 27.7625C41.2215 27.7625 41.2215 27.7625 41.2216 27.7625C41.2216 27.7625 41.2216 27.7625 41.2216 27.7625C41.2217 27.7625 41.2217 27.7625 41.2217 27.7625C41.2217 27.7625 41.2217 27.7625 41.2218 27.7625C41.2218 27.7625 41.2218 27.7625 41.2218 27.7625C41.2219 27.7625 41.2219 27.7625 41.2219 27.7625C41.2219 27.7625 41.2219 27.7625 41.222 27.7625C41.222 27.7625 41.222 27.7625 41.222 27.7625C41.2221 27.7625 41.2221 27.7625 41.2221 27.7625C41.2221 27.7625 41.2221 27.7625 41.2222 27.7625C41.2222 27.7625 41.2222 27.7625 41.2222 27.7625C41.2223 27.7625 41.2223 27.7625 41.2223 27.7625C41.2223 27.7625 41.2223 27.7625 41.2224 27.7625C41.2224 27.7625 41.2224 27.7625 41.2224 27.7625C41.2225 27.7625 41.2225 27.7625 41.2225 27.7625C41.2225 27.7625 41.2225 27.7625 41.2226 27.7625C41.2226 27.7625 41.2226 27.7625 41.2226 27.7625C41.2227 27.7625 41.2227 27.7625 41.2227 27.7625C41.2227 27.7625 41.2227 27.7625 41.2228 27.7625C41.2228 27.7625 41.2228 27.7625 41.2228 27.7625C41.2229 27.7625 41.2229 27.7625 41.2229 27.7625C41.2229 27.7625 41.2229 27.7625 41.223 27.7625C41.223 27.7625 41.223 27.7625 41.223 27.7625C41.2231 27.7625 41.2231 27.7625 41.2231 27.7625C41.2231 27.7625 41.2231 27.7625 41.2232 27.7625C41.2232 27.7625 41.2232 27.7625 41.2232 27.7625C41.2233 27.7625 41.2233 27.7625 41.2233 27.7625C41.2233 27.7625 41.2233 27.7625 41.2234 27.7625C41.2234 27.7625 41.2234 27.7625 41.2234 27.7625C41.2235 27.7625 41.2235 27.7625 41.2235 27.7625C41.2235 27.7625 41.2235 27.7625 41.2236 27.7625C41.2236 27.7625 41.2236 27.7625 41.2236 27.7625C41.2237 27.7625 41.2237 27.7625 41.2237 27.7625C41.2237 27.7625 41.2237 27.7625 41.2238 27.7625C41.2238 27.7625 41.2238 27.7625 41.2238 27.7625C41.2239 27.7625 41.2239 27.7625 41.2239 27.7625C41.2239 27.7625 41.2239 27.7625 41.224 27.7625C41.224 27.7625 41.224 27.7625 41.224 27.7625C41.2241 27.7625 41.2241 27.7625 41.2241 27.7625C41.2241 27.7625 41.2241 27.7625 41.2242 27.7625C41.2242 27.7625 41.2242 27.7625 41.2242 27.7625C41.2243 27.7625 41.2243 27.7625 41.2243 27.7625C41.2243 27.7625 41.2243 27.7625 41.2244 27.7625C41.2244 27.7625 41.2244 27.7625 41.2244 27.7625C41.2245 27.7625 41.2245 27.7625 41.2245 27.7625C41.2245 27.7625 41.2245 27.7625 41.2246 27.7625C41.2246 27.7625 41.2246 27.7625 41.2246 27.7625C41.2247 27.7625 41.2247 27.7625 41.2247 27.7625C41.2247 27.7625 41.2247 27.7625 41.2248 27.7625C41.2248 27.7625 41.2248 27.7625 41.2248 27.7625C41.2249 27.7625 41.2249 27.7625 41.2249 27.7625C41.2249 27.7625 41.2249 27.7625 41.225 27.7625C41.225 27.7625 41.225 27.7625 41.225 27.7625C41.2251 27.7625 41.2251 27.7625 41.2251 27.7625C41.2251 27.7625 41.2251 27.7625 41.2252 27.7625C41.2252 27.7625 41.2252 27.7625 41.2252 27.7625C41.2253 27.7625 41.2253 27.7625 41.2253 27.7625C41.2253 27.7625 41.2253 27.7625 41.2254 27.7625C41.2254 27.7625 41.2254 27.7625 41.2254 27.7625C41.2255 27.7625 41.2255 27.7625 41.2255 27.7625C41.2255 27.7625 41.2255 27.7625 41.2256 27.7625C41.2256 27.7625 41.2256 27.7625 41.2256 27.7625C41.2257 27.7625 41.2257 27.7625 41.2257 27.7625C41.2257 27.7625 41.2257 27.7625 41.2258 27.7625C41.2258 27.7625 41.2258 27.7625 41.2258 27.7625C41.2259 27.7625 41.2259 27.7625 41.2259 27.7625C41.2259 27.7625 41.2259 27.7625 41.226 27.7625C41.226 27.7625 41.226 27.7625 41.226 27.7625C41.2261 27.7625 41.2261 27.7625 41.2261 27.7625C41.2261 27.7625 41.2261 27.7625 41.2262 27.7625C41.2262 27.7625 41.2262 27.7625 41.2262 27.7625C41.2263 27.7625 41.2263 27.7625 41.2263 27.7625C41.2263 27.7625 41.2264 27.7625 41.2264 27.7625C41.2264 27.7625 41.2264 27.7625 41.2264 27.7625C41.2265 27.7625 41.2265 27.7625 41.2265 27.7625C41.2265 27.7625 41.2266 27.7625 41.2266 27.7625C41.2266 27.7625 41.2266 27.7625 41.2266 27.7625C41.2267 27.7625 41.2267 27.7625 41.2267 27.7625C41.2267 27.7625 41.2268 27.7625 41.2268 27.7625C41.2268 27.7625 41.2268 27.7625 41.2268 27.7625C41.2269 27.7625 41.2269 27.7625 41.2269 27.7625C41.2269 27.7625 41.227 27.7625 41.227 27.7625C41.227 27.7625 41.227 27.7625 41.2271 27.7625C41.2271 27.7625 41.2271 27.7625 41.2271 27.7625C41.2271 27.7625 41.2272 27.7625 41.2272 27.7625C41.2272 27.7625 41.2272 27.7625 41.2273 27.7625C41.2273 27.7625 41.2273 27.7625 41.2273 27.7625C41.2274 27.7625 41.2274 27.7625 41.2274 27.7625C41.2274 27.7625 41.2274 27.7625 41.2275 27.7625C41.2275 27.7625 41.2275 27.7625 41.2275 27.7625C41.2276 27.7625 41.2276 27.7625 41.2276 27.7625C41.2276 27.7625 41.2277 27.7625 41.2277 27.7625C41.2277 27.7625 41.2277 27.7625 41.2277 27.7625C41.2278 27.7625 41.2278 27.7625 41.2278 27.7625C41.2278 27.7625 41.2279 27.7625 41.2279 27.7625C41.2279 27.7625 41.2279 27.7625 41.228 27.7625C41.228 27.7625 41.228 27.7625 41.228 27.7625C41.228 27.7625 41.2281 27.7625 41.2281 27.7625C41.2281 27.7625 41.2281 27.7625 41.2282 27.7625C41.2282 27.7625 41.2282 27.7625 41.2282 27.7625C41.2283 27.7625 41.2283 27.7625 41.2283 27.7625C41.2283 27.7625 41.2284 27.7625 41.2284 27.7625C41.2284 27.7625 41.2284 27.7625 41.2284 27.7625C41.2285 27.7625 41.2285 27.7625 41.2285 27.7625C41.2285 27.7625 41.2286 27.7625 41.2286 27.7625C41.2286 27.7625 41.2286 27.7625 41.2287 27.7625C41.2287 27.7625 41.2287 27.7625 41.2287 27.7625C41.2288 27.7625 41.2288 27.7625 41.2288 27.7625C41.2288 27.7625 41.2288 27.7625 41.2289 27.7625C41.2289 27.7625 41.2289 27.7625 41.2289 27.7625C41.229 27.7625 41.229 27.7625 41.229 27.7625C41.229 27.7625 41.2291 27.7625 41.2291 27.7625C41.2291 27.7625 41.2291 27.7625 41.2292 27.7625C41.2292 27.7625 41.2292 27.7625 41.2292 27.7625C41.2293 27.7625 41.2293 27.7625 41.2293 27.7625C41.2293 27.7625 41.2294 27.7625 41.2294 27.7625C41.2294 27.7625 41.2294 27.7625 41.2294 27.7625C41.2295 27.7625 41.2295 27.7625 41.2295 27.7625C41.2295 27.7625 41.2296 27.7625 41.2296 27.7625C41.2296 27.7625 41.2296 27.7625 41.2297 27.7625C41.2297 27.7625 41.2297 27.7625 41.2297 27.7625C41.2298 27.7625 41.2298 27.7625 41.2298 27.7625C41.2298 27.7625 41.2299 27.7625 41.2299 27.7625C41.2299 27.7625 41.2299 27.7625 41.23 27.7625C41.23 27.7625 41.23 27.7625 41.23 27.7625C41.2301 27.7625 41.2301 27.7625 41.2301 27.7625C41.2301 27.7625 41.2302 27.7625 41.2302 27.7625C41.2302 27.7625 41.2302 27.7625 41.2303 27.7625C41.2303 27.7625 41.2303 27.7625 41.2303 27.7625C41.2304 27.7625 41.2304 27.7625 41.2304 27.7625C41.2304 27.7625 41.2305 27.7625 41.2305 27.7625C41.2305 27.7625 41.2305 27.7625 41.2306 27.7625C41.2306 27.7625 41.2306 27.7625 41.2306 27.7625C41.2307 27.7625 41.2307 27.7625 41.2307 27.7625C41.2307 27.7625 41.2308 27.7625 41.2308 27.7625C41.2308 27.7625 41.2308 27.7625 41.2309 27.7625C41.2309 27.7625 41.2309 27.7625 41.2309 27.7625C41.231 27.7625 41.231 27.7625 41.231 27.7625C41.231 27.7625 41.2311 27.7625 41.2311 27.7625C41.2311 27.7625 41.2311 27.7625 41.2312 27.7625C41.2312 27.7625 41.2312 27.7625 41.2312 27.7625C41.2313 27.7625 41.2313 27.7625 41.2313 27.7625C41.2314 27.7625 41.2314 27.7625 41.2314 27.7625C41.2314 27.7625 41.2315 27.7625 41.2315 27.7625C41.2315 27.7625 41.2315 27.7625 41.2316 27.7625C41.2316 27.7625 41.2316 27.7625 41.2316 27.7625C41.2317 27.7625 41.2317 27.7625 41.2317 27.7625C41.2317 27.7625 41.2318 27.7625 41.2318 27.7625C41.2318 27.7625 41.2318 27.7625 41.2319 27.7625C41.2319 27.7625 41.2319 27.7625 41.232 27.7625C41.232 27.7625 41.232 27.7625 41.232 27.7625C41.2321 27.7625 41.2321 27.7625 41.2321 27.7625C41.2321 27.7625 41.2322 27.7625 41.2322 27.7625C41.2322 27.7625 41.2322 27.7625 41.2323 27.7625C41.2323 27.7625 41.2323 27.7625 41.2324 27.7625C41.2324 27.7625 41.2324 27.7625 41.2324 27.7625C41.2325 27.7625 41.2325 27.7625 41.2325 27.7625C41.2325 27.7625 41.2326 27.7625 41.2326 27.7625C41.2326 27.7625 41.2326 27.7625 41.2327 27.7625C41.2327 27.7625 41.2327 27.7625 41.2328 27.7625C41.2328 27.7625 41.2328 27.7625 41.2328 27.7625C41.2329 27.7625 41.2329 27.7625 41.2329 27.7625C41.2329 27.7625 41.233 27.7625 41.233 27.7625C41.233 27.7625 41.2331 27.7625 41.2331 27.7625C41.2331 27.7625 41.2331 27.7625 41.2332 27.7625C41.2332 27.7625 41.2332 27.7625 41.2333 27.7625C41.2333 27.7625 41.2333 27.7625 41.2333 27.7625C41.2334 27.7625 41.2334 27.7625 41.2334 27.7625C41.2334 27.7625 41.2335 27.7625 41.2335 27.7625C41.2335 27.7625 41.2336 27.7625 41.2336 27.7625C41.2336 27.7625 41.2336 27.7625 41.2337 27.7625C41.2337 27.7625 41.2337 27.7625 41.2338 27.7625C41.2338 27.7625 41.2338 27.7625 41.2338 27.7625C41.2339 27.7625 41.2339 27.7625 41.2339 27.7625C41.234 27.7625 41.234 27.7625 41.234 27.7625C41.234 27.7625 41.2341 27.7625 41.2341 27.7625C41.2341 27.7625 41.2342 27.7625 41.2342 27.7625C41.2342 27.7625 41.2342 27.7625 41.2343 27.7625C41.2343 27.7625 41.2343 27.7625 41.2344 27.7625C41.2344 27.7625 41.2344 27.7625 41.2344 27.7625C41.2345 27.7625 41.2345 27.7625 41.2345 27.7625C41.2346 27.7625 41.2346 27.7625 41.2346 27.7625C41.2346 27.7625 41.2347 27.7625 41.2347 27.7625C41.2347 27.7625 41.2348 27.7625 41.2348 27.7625C41.2348 27.7625 41.2349 27.7625 41.2349 27.7625C41.2349 27.7625 41.2349 27.7625 41.235 27.7625C41.235 27.7625 41.235 27.7625 41.2351 27.7625C41.2351 27.7625 41.2351 27.7625 41.2351 27.7625C41.2352 27.7625 41.2352 27.7625 41.2352 27.7625C41.2353 27.7625 41.2353 27.7625 41.2353 27.7625C41.2354 27.7625 41.2354 27.7625 41.2354 27.7625C41.2354 27.7625 41.2355 27.7625 41.2355 27.7625C41.2355 27.7625 41.2356 27.7625 41.2356 27.7625C41.2356 27.7625 41.2357 27.7625 41.2357 27.7625C41.2357 27.7625 41.2358 27.7625 41.2358 27.7625C41.2358 27.7625 41.2358 27.7625 41.2359 27.7625C41.2359 27.7625 41.2359 27.7625 41.236 27.7625C41.236 27.7625 41.236 27.7625 41.2361 27.7625C41.2361 27.7625 41.2361 27.7625 41.2362 27.7625C41.2362 27.7625 41.2362 27.7625 41.2362 27.7625C41.2363 27.7625 41.2363 27.7625 41.2363 27.7625C41.2364 27.7625 41.2364 27.7625 41.2364 27.7625C41.2365 27.7625 41.2365 27.7625 41.2365 27.7625C41.2366 27.7625 41.2366 27.7625 41.2366 27.7625C41.2367 27.7625 41.2367 27.7625 41.2367 27.7625C41.2367 27.7625 41.2368 27.7625 41.2368 27.7625C41.2368 27.7625 41.2369 27.7625 41.2369 27.7625C41.2369 27.7625 41.237 27.7625 41.237 27.7625C41.237 27.7625 41.2371 27.7625 41.2371 27.7625C41.2371 27.7625 41.2372 27.7625 41.2372 27.7625C41.2372 27.7625 41.2373 27.7625 41.2373 27.7625C41.2373 27.7625 41.2374 27.7625 41.2374 27.7625C41.2374 27.7625 41.2375 27.7625 41.2375 27.7625C41.2375 27.7625 41.2376 27.7625 41.2376 27.7625C41.2376 27.7625 41.2376 27.7625 41.2377 27.7625C41.2377 27.7625 41.2377 27.7625 41.2378 27.7625C41.2378 27.7625 41.2378 27.7625 41.2379 27.7625C41.2379 27.7625 41.2379 27.7625 41.238 27.7625C41.238 27.7625 41.238 27.7625 41.2381 27.7625C41.2381 27.7625 41.2381 27.7625 41.2382 27.7625C41.2382 27.7625 41.2382 27.7625 41.2383 27.7625C41.2383 27.7625 41.2383 27.7625 41.2384 27.7625C41.2384 27.7625 41.2384 27.7625 41.2385 27.7625C41.2385 27.7625 41.2385 27.7625 41.2386 27.7625C41.2386 27.7625 41.2387 27.7625 41.2387 27.7625C41.2387 27.7625 41.2388 27.7625 41.2388 27.7625C41.2388 27.7625 41.2389 27.7625 41.2389 27.7625C41.2389 27.7625 41.239 27.7625 41.239 27.7625C41.239 27.7625 41.2391 27.7625 41.2391 27.7625C41.2391 27.7625 41.2392 27.7625 41.2392 27.7625C41.2392 27.7625 41.2393 27.7625 41.2393 27.7625C41.2393 27.7625 41.2394 27.7625 41.2394 27.7625C41.2394 27.7625 41.2395 27.7625 41.2395 27.7625C41.2395 27.7625 41.2396 27.7625 41.2396 27.7625C41.2397 27.7625 41.2397 27.7625 41.2397 27.7625C41.2398 27.7625 41.2398 27.7625 41.2398 27.7625C41.2399 27.7625 41.2399 27.7625 41.2399 27.7625C41.24 27.7625 41.24 27.7625 41.24 27.7625C41.2401 27.7625 41.2401 27.7625 41.2402 27.7625C41.2402 27.7625 41.2402 27.7625 41.2403 27.7625C41.2403 27.7625 41.2403 27.7625 41.2404 27.7625C41.2404 27.7625 41.2404 27.7625 41.2405 27.7625C41.2405 27.7625 41.2406 27.7625 41.2406 27.7625C41.2406 27.7625 41.2407 27.7625 41.2407 27.7625C41.2407 27.7625 41.2408 27.7625 41.2408 27.7625C41.2408 27.7625 41.2409 27.7625 41.2409 27.7625C41.241 27.7625 41.241 27.7625 41.241 27.7625C41.2411 27.7625 41.2411 27.7625 41.2411 27.7625C41.2412 27.7625 41.2412 27.7625 41.2413 27.7625C41.2413 27.7625 41.2413 27.7625 41.2414 27.7625C41.2414 27.7625 41.2414 27.7625 41.2415 27.7625C41.2415 27.7625 41.2415 27.7625 41.2416 27.7625C41.2416 27.7625 41.2417 27.7625 41.2417 27.7625C41.2417 27.7625 41.2418 27.7625 41.2418 27.7625C41.2419 27.7625 41.2419 27.7625 41.2419 27.7625C41.242 27.7625 41.242 27.7625 41.242 27.7625C41.2421 27.7625 41.2421 27.7625 41.2422 27.7625C41.2422 27.7625 41.2422 27.7625 41.2423 27.7625C41.2423 27.7625 41.2424 27.7625 41.2424 27.7625C41.2424 27.7625 41.2425 27.7625 41.2425 27.7625C41.2425 27.7625 41.2426 27.7625 41.2426 27.7625C41.2427 27.7625 41.2427 27.7625 41.2427 27.7625C41.2428 27.7625 41.2428 27.7625 41.2429 27.7625C41.2429 27.7625 41.2429 27.7625 41.243 27.7625C41.243 27.7625 41.2431 27.7625 41.2431 27.7625C41.2431 27.7625 41.2432 27.7625 41.2432 27.7625C41.2433 27.7625 41.2433 27.7625 41.2433 27.7625C41.2434 27.7625 41.2434 27.7625 41.2435 27.7625C41.2435 27.7625 41.2435 27.7625 41.2436 27.7625C41.2436 27.7625 41.2437 27.7625 41.2437 27.7625C41.2437 27.7625 41.2438 27.7625 41.2438 27.7625C41.2439 27.7625 41.2439 27.7625 41.2439 27.7625C41.244 27.7625 41.244 27.7625 41.2441 27.7625C41.2441 27.7625 41.2441 27.7625 41.2442 27.7625C41.2442 27.7625 41.2443 27.7625 41.2443 27.7625C41.2444 27.7625 41.2444 27.7625 41.2444 27.7625C41.2445 27.7625 41.2445 27.7625 41.2446 27.7625C41.2446 27.7625 41.2446 27.7625 41.2447 27.7625C41.2447 27.7625 41.2448 27.7625 41.2448 27.7625C41.2448 27.7625 41.2449 27.7625 41.2449 27.7625C41.245 27.7625 41.245 27.7625 41.2451 27.7625C41.2451 27.7625 41.2451 27.7625 41.2452 27.7625C41.2452 27.7625 41.2453 27.7625 41.2453 27.7625C41.2454 27.7625 41.2454 27.7625 41.2454 27.7625C41.2455 27.7625 41.2455 27.7625 41.2456 27.7625C41.2456 27.7625 41.2457 27.7625 41.2457 27.7625C41.2457 27.7625 41.2458 27.7625 41.2458 27.7625C41.2459 27.7625 41.2459 27.7625 41.246 27.7625C41.246 27.7625 41.246 27.7625 41.2461 27.7625C41.2461 27.7625 41.2462 27.7625 41.2462 27.7625C41.2463 27.7625 41.2463 27.7625 41.2464 27.7625C41.2464 27.7625 41.2464 27.7625 41.2465 27.7625C41.2465 27.7625 41.2466 27.7625 41.2466 27.7625V26.2625C41.2466 26.2625 41.2465 26.2625 41.2465 26.2625C41.2464 26.2625 41.2464 26.2625 41.2464 26.2625C41.2463 26.2625 41.2463 26.2625 41.2462 26.2625C41.2462 26.2625 41.2461 26.2625 41.2461 26.2625C41.246 26.2625 41.246 26.2625 41.246 26.2625C41.2459 26.2625 41.2459 26.2625 41.2458 26.2625C41.2458 26.2625 41.2457 26.2625 41.2457 26.2625C41.2457 26.2625 41.2456 26.2625 41.2456 26.2625C41.2455 26.2625 41.2455 26.2625 41.2454 26.2625C41.2454 26.2625 41.2454 26.2625 41.2453 26.2625C41.2453 26.2625 41.2452 26.2625 41.2452 26.2625C41.2451 26.2625 41.2451 26.2625 41.2451 26.2625C41.245 26.2625 41.245 26.2625 41.2449 26.2625C41.2449 26.2625 41.2448 26.2625 41.2448 26.2625C41.2448 26.2625 41.2447 26.2625 41.2447 26.2625C41.2446 26.2625 41.2446 26.2625 41.2446 26.2625C41.2445 26.2625 41.2445 26.2625 41.2444 26.2625C41.2444 26.2625 41.2444 26.2625 41.2443 26.2625C41.2443 26.2625 41.2442 26.2625 41.2442 26.2625C41.2441 26.2625 41.2441 26.2625 41.2441 26.2625C41.244 26.2625 41.244 26.2625 41.2439 26.2625C41.2439 26.2625 41.2439 26.2625 41.2438 26.2625C41.2438 26.2625 41.2437 26.2625 41.2437 26.2625C41.2437 26.2625 41.2436 26.2625 41.2436 26.2625C41.2435 26.2625 41.2435 26.2625 41.2435 26.2625C41.2434 26.2625 41.2434 26.2625 41.2433 26.2625C41.2433 26.2625 41.2433 26.2625 41.2432 26.2625C41.2432 26.2625 41.2431 26.2625 41.2431 26.2625C41.2431 26.2625 41.243 26.2625 41.243 26.2625C41.2429 26.2625 41.2429 26.2625 41.2429 26.2625C41.2428 26.2625 41.2428 26.2625 41.2427 26.2625C41.2427 26.2625 41.2427 26.2625 41.2426 26.2625C41.2426 26.2625 41.2425 26.2625 41.2425 26.2625C41.2425 26.2625 41.2424 26.2625 41.2424 26.2625C41.2424 26.2625 41.2423 26.2625 41.2423 26.2625C41.2422 26.2625 41.2422 26.2625 41.2422 26.2625C41.2421 26.2625 41.2421 26.2625 41.242 26.2625C41.242 26.2625 41.242 26.2625 41.2419 26.2625C41.2419 26.2625 41.2419 26.2625 41.2418 26.2625C41.2418 26.2625 41.2417 26.2625 41.2417 26.2625C41.2417 26.2625 41.2416 26.2625 41.2416 26.2625C41.2415 26.2625 41.2415 26.2625 41.2415 26.2625C41.2414 26.2625 41.2414 26.2625 41.2414 26.2625C41.2413 26.2625 41.2413 26.2625 41.2413 26.2625C41.2412 26.2625 41.2412 26.2625 41.2411 26.2625C41.2411 26.2625 41.2411 26.2625 41.241 26.2625C41.241 26.2625 41.241 26.2625 41.2409 26.2625C41.2409 26.2625 41.2408 26.2625 41.2408 26.2625C41.2408 26.2625 41.2407 26.2625 41.2407 26.2625C41.2407 26.2625 41.2406 26.2625 41.2406 26.2625C41.2406 26.2625 41.2405 26.2625 41.2405 26.2625C41.2404 26.2625 41.2404 26.2625 41.2404 26.2625C41.2403 26.2625 41.2403 26.2625 41.2403 26.2625C41.2402 26.2625 41.2402 26.2625 41.2402 26.2625C41.2401 26.2625 41.2401 26.2625 41.24 26.2625C41.24 26.2625 41.24 26.2625 41.2399 26.2625C41.2399 26.2625 41.2399 26.2625 41.2398 26.2625C41.2398 26.2625 41.2398 26.2625 41.2397 26.2625C41.2397 26.2625 41.2397 26.2625 41.2396 26.2625C41.2396 26.2625 41.2395 26.2625 41.2395 26.2625C41.2395 26.2625 41.2394 26.2625 41.2394 26.2625C41.2394 26.2625 41.2393 26.2625 41.2393 26.2625C41.2393 26.2625 41.2392 26.2625 41.2392 26.2625C41.2392 26.2625 41.2391 26.2625 41.2391 26.2625C41.2391 26.2625 41.239 26.2625 41.239 26.2625C41.239 26.2625 41.2389 26.2625 41.2389 26.2625C41.2389 26.2625 41.2388 26.2625 41.2388 26.2625C41.2388 26.2625 41.2387 26.2625 41.2387 26.2625C41.2387 26.2625 41.2386 26.2625 41.2386 26.2625C41.2385 26.2625 41.2385 26.2625 41.2385 26.2625C41.2384 26.2625 41.2384 26.2625 41.2384 26.2625C41.2383 26.2625 41.2383 26.2625 41.2383 26.2625C41.2382 26.2625 41.2382 26.2625 41.2382 26.2625C41.2381 26.2625 41.2381 26.2625 41.2381 26.2625C41.238 26.2625 41.238 26.2625 41.238 26.2625C41.2379 26.2625 41.2379 26.2625 41.2379 26.2625C41.2378 26.2625 41.2378 26.2625 41.2378 26.2625C41.2377 26.2625 41.2377 26.2625 41.2377 26.2625C41.2376 26.2625 41.2376 26.2625 41.2376 26.2625C41.2376 26.2625 41.2375 26.2625 41.2375 26.2625C41.2375 26.2625 41.2374 26.2625 41.2374 26.2625C41.2374 26.2625 41.2373 26.2625 41.2373 26.2625C41.2373 26.2625 41.2372 26.2625 41.2372 26.2625C41.2372 26.2625 41.2371 26.2625 41.2371 26.2625C41.2371 26.2625 41.237 26.2625 41.237 26.2625C41.237 26.2625 41.2369 26.2625 41.2369 26.2625C41.2369 26.2625 41.2368 26.2625 41.2368 26.2625C41.2368 26.2625 41.2367 26.2625 41.2367 26.2625C41.2367 26.2625 41.2367 26.2625 41.2366 26.2625C41.2366 26.2625 41.2366 26.2625 41.2365 26.2625C41.2365 26.2625 41.2365 26.2625 41.2364 26.2625C41.2364 26.2625 41.2364 26.2625 41.2363 26.2625C41.2363 26.2625 41.2363 26.2625 41.2362 26.2625C41.2362 26.2625 41.2362 26.2625 41.2362 26.2625C41.2361 26.2625 41.2361 26.2625 41.2361 26.2625C41.236 26.2625 41.236 26.2625 41.236 26.2625C41.2359 26.2625 41.2359 26.2625 41.2359 26.2625C41.2358 26.2625 41.2358 26.2625 41.2358 26.2625C41.2358 26.2625 41.2357 26.2625 41.2357 26.2625C41.2357 26.2625 41.2356 26.2625 41.2356 26.2625C41.2356 26.2625 41.2355 26.2625 41.2355 26.2625C41.2355 26.2625 41.2354 26.2625 41.2354 26.2625C41.2354 26.2625 41.2354 26.2625 41.2353 26.2625C41.2353 26.2625 41.2353 26.2625 41.2352 26.2625C41.2352 26.2625 41.2352 26.2625 41.2351 26.2625C41.2351 26.2625 41.2351 26.2625 41.2351 26.2625C41.235 26.2625 41.235 26.2625 41.235 26.2625C41.2349 26.2625 41.2349 26.2625 41.2349 26.2625C41.2349 26.2625 41.2348 26.2625 41.2348 26.2625C41.2348 26.2625 41.2347 26.2625 41.2347 26.2625C41.2347 26.2625 41.2346 26.2625 41.2346 26.2625C41.2346 26.2625 41.2346 26.2625 41.2345 26.2625C41.2345 26.2625 41.2345 26.2625 41.2344 26.2625C41.2344 26.2625 41.2344 26.2625 41.2344 26.2625C41.2343 26.2625 41.2343 26.2625 41.2343 26.2625C41.2342 26.2625 41.2342 26.2625 41.2342 26.2625C41.2342 26.2625 41.2341 26.2625 41.2341 26.2625C41.2341 26.2625 41.234 26.2625 41.234 26.2625C41.234 26.2625 41.234 26.2625 41.2339 26.2625C41.2339 26.2625 41.2339 26.2625 41.2338 26.2625C41.2338 26.2625 41.2338 26.2625 41.2338 26.2625C41.2337 26.2625 41.2337 26.2625 41.2337 26.2625C41.2336 26.2625 41.2336 26.2625 41.2336 26.2625C41.2336 26.2625 41.2335 26.2625 41.2335 26.2625C41.2335 26.2625 41.2334 26.2625 41.2334 26.2625C41.2334 26.2625 41.2334 26.2625 41.2333 26.2625C41.2333 26.2625 41.2333 26.2625 41.2333 26.2625C41.2332 26.2625 41.2332 26.2625 41.2332 26.2625C41.2331 26.2625 41.2331 26.2625 41.2331 26.2625C41.2331 26.2625 41.233 26.2625 41.233 26.2625C41.233 26.2625 41.2329 26.2625 41.2329 26.2625C41.2329 26.2625 41.2329 26.2625 41.2328 26.2625C41.2328 26.2625 41.2328 26.2625 41.2328 26.2625C41.2327 26.2625 41.2327 26.2625 41.2327 26.2625C41.2326 26.2625 41.2326 26.2625 41.2326 26.2625C41.2326 26.2625 41.2325 26.2625 41.2325 26.2625C41.2325 26.2625 41.2325 26.2625 41.2324 26.2625C41.2324 26.2625 41.2324 26.2625 41.2324 26.2625C41.2323 26.2625 41.2323 26.2625 41.2323 26.2625C41.2322 26.2625 41.2322 26.2625 41.2322 26.2625C41.2322 26.2625 41.2321 26.2625 41.2321 26.2625C41.2321 26.2625 41.2321 26.2625 41.232 26.2625C41.232 26.2625 41.232 26.2625 41.232 26.2625C41.2319 26.2625 41.2319 26.2625 41.2319 26.2625C41.2318 26.2625 41.2318 26.2625 41.2318 26.2625C41.2318 26.2625 41.2317 26.2625 41.2317 26.2625C41.2317 26.2625 41.2317 26.2625 41.2316 26.2625C41.2316 26.2625 41.2316 26.2625 41.2316 26.2625C41.2315 26.2625 41.2315 26.2625 41.2315 26.2625C41.2315 26.2625 41.2314 26.2625 41.2314 26.2625C41.2314 26.2625 41.2314 26.2625 41.2313 26.2625C41.2313 26.2625 41.2313 26.2625 41.2312 26.2625C41.2312 26.2625 41.2312 26.2625 41.2312 26.2625C41.2311 26.2625 41.2311 26.2625 41.2311 26.2625C41.2311 26.2625 41.231 26.2625 41.231 26.2625C41.231 26.2625 41.231 26.2625 41.2309 26.2625C41.2309 26.2625 41.2309 26.2625 41.2309 26.2625C41.2308 26.2625 41.2308 26.2625 41.2308 26.2625C41.2308 26.2625 41.2307 26.2625 41.2307 26.2625C41.2307 26.2625 41.2307 26.2625 41.2306 26.2625C41.2306 26.2625 41.2306 26.2625 41.2306 26.2625C41.2305 26.2625 41.2305 26.2625 41.2305 26.2625C41.2305 26.2625 41.2304 26.2625 41.2304 26.2625C41.2304 26.2625 41.2304 26.2625 41.2303 26.2625C41.2303 26.2625 41.2303 26.2625 41.2303 26.2625C41.2302 26.2625 41.2302 26.2625 41.2302 26.2625C41.2302 26.2625 41.2301 26.2625 41.2301 26.2625C41.2301 26.2625 41.2301 26.2625 41.23 26.2625C41.23 26.2625 41.23 26.2625 41.23 26.2625C41.2299 26.2625 41.2299 26.2625 41.2299 26.2625C41.2299 26.2625 41.2298 26.2625 41.2298 26.2625C41.2298 26.2625 41.2298 26.2625 41.2297 26.2625C41.2297 26.2625 41.2297 26.2625 41.2297 26.2625C41.2296 26.2625 41.2296 26.2625 41.2296 26.2625C41.2296 26.2625 41.2295 26.2625 41.2295 26.2625C41.2295 26.2625 41.2295 26.2625 41.2294 26.2625C41.2294 26.2625 41.2294 26.2625 41.2294 26.2625C41.2294 26.2625 41.2293 26.2625 41.2293 26.2625C41.2293 26.2625 41.2293 26.2625 41.2292 26.2625C41.2292 26.2625 41.2292 26.2625 41.2292 26.2625C41.2291 26.2625 41.2291 26.2625 41.2291 26.2625C41.2291 26.2625 41.229 26.2625 41.229 26.2625C41.229 26.2625 41.229 26.2625 41.2289 26.2625C41.2289 26.2625 41.2289 26.2625 41.2289 26.2625C41.2288 26.2625 41.2288 26.2625 41.2288 26.2625C41.2288 26.2625 41.2288 26.2625 41.2287 26.2625C41.2287 26.2625 41.2287 26.2625 41.2287 26.2625C41.2286 26.2625 41.2286 26.2625 41.2286 26.2625C41.2286 26.2625 41.2285 26.2625 41.2285 26.2625C41.2285 26.2625 41.2285 26.2625 41.2284 26.2625C41.2284 26.2625 41.2284 26.2625 41.2284 26.2625C41.2284 26.2625 41.2283 26.2625 41.2283 26.2625C41.2283 26.2625 41.2283 26.2625 41.2282 26.2625C41.2282 26.2625 41.2282 26.2625 41.2282 26.2625C41.2281 26.2625 41.2281 26.2625 41.2281 26.2625C41.2281 26.2625 41.228 26.2625 41.228 26.2625C41.228 26.2625 41.228 26.2625 41.228 26.2625C41.2279 26.2625 41.2279 26.2625 41.2279 26.2625C41.2279 26.2625 41.2278 26.2625 41.2278 26.2625C41.2278 26.2625 41.2278 26.2625 41.2277 26.2625C41.2277 26.2625 41.2277 26.2625 41.2277 26.2625C41.2277 26.2625 41.2276 26.2625 41.2276 26.2625C41.2276 26.2625 41.2276 26.2625 41.2275 26.2625C41.2275 26.2625 41.2275 26.2625 41.2275 26.2625C41.2274 26.2625 41.2274 26.2625 41.2274 26.2625C41.2274 26.2625 41.2274 26.2625 41.2273 26.2625C41.2273 26.2625 41.2273 26.2625 41.2273 26.2625C41.2272 26.2625 41.2272 26.2625 41.2272 26.2625C41.2272 26.2625 41.2271 26.2625 41.2271 26.2625C41.2271 26.2625 41.2271 26.2625 41.2271 26.2625C41.227 26.2625 41.227 26.2625 41.227 26.2625C41.227 26.2625 41.2269 26.2625 41.2269 26.2625C41.2269 26.2625 41.2269 26.2625 41.2268 26.2625C41.2268 26.2625 41.2268 26.2625 41.2268 26.2625C41.2268 26.2625 41.2267 26.2625 41.2267 26.2625C41.2267 26.2625 41.2267 26.2625 41.2266 26.2625C41.2266 26.2625 41.2266 26.2625 41.2266 26.2625C41.2266 26.2625 41.2265 26.2625 41.2265 26.2625C41.2265 26.2625 41.2265 26.2625 41.2264 26.2625C41.2264 26.2625 41.2264 26.2625 41.2264 26.2625C41.2264 26.2625 41.2263 26.2625 41.2263 26.2625C41.2263 26.2625 41.2263 26.2625 41.2262 26.2625C41.2262 26.2625 41.2262 26.2625 41.2262 26.2625C41.2261 26.2625 41.2261 26.2625 41.2261 26.2625C41.2261 26.2625 41.2261 26.2625 41.226 26.2625C41.226 26.2625 41.226 26.2625 41.226 26.2625C41.2259 26.2625 41.2259 26.2625 41.2259 26.2625C41.2259 26.2625 41.2259 26.2625 41.2258 26.2625C41.2258 26.2625 41.2258 26.2625 41.2258 26.2625C41.2257 26.2625 41.2257 26.2625 41.2257 26.2625C41.2257 26.2625 41.2257 26.2625 41.2256 26.2625C41.2256 26.2625 41.2256 26.2625 41.2256 26.2625C41.2255 26.2625 41.2255 26.2625 41.2255 26.2625C41.2255 26.2625 41.2255 26.2625 41.2254 26.2625C41.2254 26.2625 41.2254 26.2625 41.2254 26.2625C41.2253 26.2625 41.2253 26.2625 41.2253 26.2625C41.2253 26.2625 41.2253 26.2625 41.2252 26.2625C41.2252 26.2625 41.2252 26.2625 41.2252 26.2625C41.2251 26.2625 41.2251 26.2625 41.2251 26.2625C41.2251 26.2625 41.2251 26.2625 41.225 26.2625C41.225 26.2625 41.225 26.2625 41.225 26.2625C41.2249 26.2625 41.2249 26.2625 41.2249 26.2625C41.2249 26.2625 41.2249 26.2625 41.2248 26.2625C41.2248 26.2625 41.2248 26.2625 41.2248 26.2625C41.2247 26.2625 41.2247 26.2625 41.2247 26.2625C41.2247 26.2625 41.2247 26.2625 41.2246 26.2625C41.2246 26.2625 41.2246 26.2625 41.2246 26.2625C41.2245 26.2625 41.2245 26.2625 41.2245 26.2625C41.2245 26.2625 41.2245 26.2625 41.2244 26.2625C41.2244 26.2625 41.2244 26.2625 41.2244 26.2625C41.2243 26.2625 41.2243 26.2625 41.2243 26.2625C41.2243 26.2625 41.2243 26.2625 41.2242 26.2625C41.2242 26.2625 41.2242 26.2625 41.2242 26.2625C41.2241 26.2625 41.2241 26.2625 41.2241 26.2625C41.2241 26.2625 41.2241 26.2625 41.224 26.2625C41.224 26.2625 41.224 26.2625 41.224 26.2625C41.2239 26.2625 41.2239 26.2625 41.2239 26.2625C41.2239 26.2625 41.2239 26.2625 41.2238 26.2625C41.2238 26.2625 41.2238 26.2625 41.2238 26.2625C41.2237 26.2625 41.2237 26.2625 41.2237 26.2625C41.2237 26.2625 41.2237 26.2625 41.2236 26.2625C41.2236 26.2625 41.2236 26.2625 41.2236 26.2625C41.2235 26.2625 41.2235 26.2625 41.2235 26.2625C41.2235 26.2625 41.2235 26.2625 41.2234 26.2625C41.2234 26.2625 41.2234 26.2625 41.2234 26.2625C41.2233 26.2625 41.2233 26.2625 41.2233 26.2625C41.2233 26.2625 41.2233 26.2625 41.2232 26.2625C41.2232 26.2625 41.2232 26.2625 41.2232 26.2625C41.2231 26.2625 41.2231 26.2625 41.2231 26.2625C41.2231 26.2625 41.2231 26.2625 41.223 26.2625C41.223 26.2625 41.223 26.2625 41.223 26.2625C41.2229 26.2625 41.2229 26.2625 41.2229 26.2625C41.2229 26.2625 41.2229 26.2625 41.2228 26.2625C41.2228 26.2625 41.2228 26.2625 41.2228 26.2625C41.2227 26.2625 41.2227 26.2625 41.2227 26.2625C41.2227 26.2625 41.2227 26.2625 41.2226 26.2625C41.2226 26.2625 41.2226 26.2625 41.2226 26.2625C41.2225 26.2625 41.2225 26.2625 41.2225 26.2625C41.2225 26.2625 41.2225 26.2625 41.2224 26.2625C41.2224 26.2625 41.2224 26.2625 41.2224 26.2625C41.2223 26.2625 41.2223 26.2625 41.2223 26.2625C41.2223 26.2625 41.2223 26.2625 41.2222 26.2625C41.2222 26.2625 41.2222 26.2625 41.2222 26.2625C41.2221 26.2625 41.2221 26.2625 41.2221 26.2625C41.2221 26.2625 41.2221 26.2625 41.222 26.2625C41.222 26.2625 41.222 26.2625 41.222 26.2625C41.2219 26.2625 41.2219 26.2625 41.2219 26.2625C41.2219 26.2625 41.2219 26.2625 41.2218 26.2625C41.2218 26.2625 41.2218 26.2625 41.2218 26.2625C41.2217 26.2625 41.2217 26.2625 41.2217 26.2625C41.2217 26.2625 41.2217 26.2625 41.2216 26.2625C41.2216 26.2625 41.2216 26.2625 41.2216 26.2625C41.2215 26.2625 41.2215 26.2625 41.2215 26.2625C41.2215 26.2625 41.2215 26.2625 41.2214 26.2625C41.2214 26.2625 41.2214 26.2625 41.2214 26.2625C41.2213 26.2625 41.2213 26.2625 41.2213 26.2625C41.2213 26.2625 41.2212 26.2625 41.2212 26.2625C41.2212 26.2625 41.2212 26.2625 41.2212 26.2625C41.2211 26.2625 41.2211 26.2625 41.2211 26.2625C41.2211 26.2625 41.221 26.2625 41.221 26.2625C41.221 26.2625 41.221 26.2625 41.221 26.2625C41.2209 26.2625 41.2209 26.2625 41.2209 26.2625C41.2209 26.2625 41.2208 26.2625 41.2208 26.2625C41.2208 26.2625 41.2208 26.2625 41.2207 26.2625C41.2207 26.2625 41.2207 26.2625 41.2207 26.2625C41.2207 26.2625 41.2206 26.2625 41.2206 26.2625C41.2206 26.2625 41.2206 26.2625 41.2205 26.2625C41.2205 26.2625 41.2205 26.2625 41.2205 26.2625C41.2204 26.2625 41.2204 26.2625 41.2204 26.2625C41.2204 26.2625 41.2204 26.2625 41.2203 26.2625C41.2203 26.2625 41.2203 26.2625 41.2203 26.2625C41.2202 26.2625 41.2202 26.2625 41.2202 26.2625C41.2202 26.2625 41.2201 26.2625 41.2201 26.2625C41.2201 26.2625 41.2201 26.2625 41.2201 26.2625C41.22 26.2625 41.22 26.2625 41.22 26.2625C41.22 26.2625 41.2199 26.2625 41.2199 26.2625C41.2199 26.2625 41.2199 26.2625 41.2198 26.2625C41.2198 26.2625 41.2198 26.2625 41.2198 26.2625C41.2198 26.2625 41.2197 26.2625 41.2197 26.2625C41.2197 26.2625 41.2197 26.2625 41.2196 26.2625C41.2196 26.2625 41.2196 26.2625 41.2196 26.2625C41.2195 26.2625 41.2195 26.2625 41.2195 26.2625C41.2195 26.2625 41.2194 26.2625 41.2194 26.2625C41.2194 26.2625 41.2194 26.2625 41.2194 26.2625C41.2193 26.2625 41.2193 26.2625 41.2193 26.2625C41.2193 26.2625 41.2192 26.2625 41.2192 26.2625C41.2192 26.2625 41.2192 26.2625 41.2191 26.2625C41.2191 26.2625 41.2191 26.2625 41.2191 26.2625C41.219 26.2625 41.219 26.2625 41.219 26.2625C41.219 26.2625 41.2189 26.2625 41.2189 26.2625C41.2189 26.2625 41.2189 26.2625 41.2188 26.2625C41.2188 26.2625 41.2188 26.2625 41.2188 26.2625C41.2188 26.2625 41.2187 26.2625 41.2187 26.2625C41.2187 26.2625 41.2187 26.2625 41.2186 26.2625C41.2186 26.2625 41.2186 26.2625 41.2186 26.2625C41.2185 26.2625 41.2185 26.2625 41.2185 26.2625C41.2185 26.2625 41.2184 26.2625 41.2184 26.2625C41.2184 26.2625 41.2184 26.2625 41.2183 26.2625C41.2183 26.2625 41.2183 26.2625 41.2183 26.2625C41.2182 26.2625 41.2182 26.2625 41.2182 26.2625C41.2182 26.2625 41.2181 26.2625 41.2181 26.2625C41.2181 26.2625 41.2181 26.2625 41.218 26.2625C41.218 26.2625 41.218 26.2625 41.218 26.2625C41.2179 26.2625 41.2179 26.2625 41.2179 26.2625C41.2179 26.2625 41.2178 26.2625 41.2178 26.2625C41.2178 26.2625 41.2178 26.2625 41.2178 26.2625C41.2177 26.2625 41.2177 26.2625 41.2177 26.2625C41.2177 26.2625 41.2176 26.2625 41.2176 26.2625C41.2176 26.2625 41.2176 26.2625 41.2175 26.2625C41.2175 26.2625 41.2175 26.2625 41.2175 26.2625C41.2174 26.2625 41.2174 26.2625 41.2174 26.2625C41.2174 26.2625 41.2173 26.2625 41.2173 26.2625C41.2173 26.2625 41.2172 26.2625 41.2172 26.2625C41.2172 26.2625 41.2172 26.2625 41.2171 26.2625C41.2171 26.2625 41.2171 26.2625 41.2171 26.2625C41.217 26.2625 41.217 26.2625 41.217 26.2625C41.217 26.2625 41.2169 26.2625 41.2169 26.2625C41.2169 26.2625 41.2169 26.2625 41.2168 26.2625C41.2168 26.2625 41.2168 26.2625 41.2168 26.2625C41.2167 26.2625 41.2167 26.2625 41.2167 26.2625C41.2167 26.2625 41.2166 26.2625 41.2166 26.2625C41.2166 26.2625 41.2166 26.2625 41.2165 26.2625C41.2165 26.2625 41.2165 26.2625 41.2165 26.2625C41.2164 26.2625 41.2164 26.2625 41.2164 26.2625C41.2164 26.2625 41.2163 26.2625 41.2163 26.2625C41.2163 26.2625 41.2162 26.2625 41.2162 26.2625C41.2162 26.2625 41.2162 26.2625 41.2161 26.2625C41.2161 26.2625 41.2161 26.2625 41.2161 26.2625C41.216 26.2625 41.216 26.2625 41.216 26.2625C41.216 26.2625 41.2159 26.2625 41.2159 26.2625C41.2159 26.2625 41.2159 26.2625 41.2158 26.2625C41.2158 26.2625 41.2158 26.2625 41.2157 26.2625C41.2157 26.2625 41.2157 26.2625 41.2157 26.2625C41.2156 26.2625 41.2156 26.2625 41.2156 26.2625C41.2156 26.2625 41.2155 26.2625 41.2155 26.2625C41.2155 26.2625 41.2154 26.2625 41.2154 26.2625C41.2154 26.2625 41.2154 26.2625 41.2153 26.2625C41.2153 26.2625 41.2153 26.2625 41.2153 26.2625C41.2152 26.2625 41.2152 26.2625 41.2152 26.2625C41.2152 26.2625 41.2151 26.2625 41.2151 26.2625C41.2151 26.2625 41.215 26.2625 41.215 26.2625C41.215 26.2625 41.215 26.2625 41.2149 26.2625C41.2149 26.2625 41.2149 26.2625 41.2149 26.2625C41.2148 26.2625 41.2148 26.2625 41.2148 26.2625C41.2147 26.2625 41.2147 26.2625 41.2147 26.2625C41.2147 26.2625 41.2146 26.2625 41.2146 26.2625C41.2146 26.2625 41.2145 26.2625 41.2145 26.2625C41.2145 26.2625 41.2145 26.2625 41.2144 26.2625C41.2144 26.2625 41.2144 26.2625 41.2143 26.2625C41.2143 26.2625 41.2143 26.2625 41.2143 26.2625C41.2142 26.2625 41.2142 26.2625 41.2142 26.2625C41.2142 26.2625 41.2141 26.2625 41.2141 26.2625C41.2141 26.2625 41.214 26.2625 41.214 26.2625C41.214 26.2625 41.214 26.2625 41.2139 26.2625C41.2139 26.2625 41.2139 26.2625 41.2138 26.2625C41.2138 26.2625 41.2138 26.2625 41.2138 26.2625C41.2137 26.2625 41.2137 26.2625 41.2137 26.2625C41.2136 26.2625 41.2136 26.2625 41.2136 26.2625C41.2136 26.2625 41.2135 26.2625 41.2135 26.2625C41.2135 26.2625 41.2134 26.2625 41.2134 26.2625C41.2134 26.2625 41.2133 26.2625 41.2133 26.2625C41.2133 26.2625 41.2133 26.2625 41.2132 26.2625C41.2132 26.2625 41.2132 26.2625 41.2131 26.2625C41.2131 26.2625 41.2131 26.2625 41.2131 26.2625C41.213 26.2625 41.213 26.2625 41.213 26.2625C41.2129 26.2625 41.2129 26.2625 41.2129 26.2625C41.2128 26.2625 41.2128 26.2625 41.2128 26.2625C41.2128 26.2625 41.2127 26.2625 41.2127 26.2625C41.2127 26.2625 41.2126 26.2625 41.2126 26.2625C41.2126 26.2625 41.2125 26.2625 41.2125 26.2625C41.2125 26.2625 41.2125 26.2625 41.2124 26.2625C41.2124 26.2625 41.2124 26.2625 41.2123 26.2625C41.2123 26.2625 41.2123 26.2625 41.2122 26.2625C41.2122 26.2625 41.2122 26.2625 41.2122 26.2625C41.2121 26.2625 41.2121 26.2625 41.2121 26.2625C41.212 26.2625 41.212 26.2625 41.212 26.2625C41.2119 26.2625 41.2119 26.2625 41.2119 26.2625C41.2118 26.2625 41.2118 26.2625 41.2118 26.2625C41.2118 26.2625 41.2117 26.2625 41.2117 26.2625C41.2117 26.2625 41.2116 26.2625 41.2116 26.2625C41.2116 26.2625 41.2115 26.2625 41.2115 26.2625C41.2115 26.2625 41.2114 26.2625 41.2114 26.2625C41.2114 26.2625 41.2113 26.2625 41.2113 26.2625C41.2113 26.2625 41.2113 26.2625 41.2112 26.2625C41.2112 26.2625 41.2112 26.2625 41.2111 26.2625C41.2111 26.2625 41.2111 26.2625 41.211 26.2625C41.211 26.2625 41.211 26.2625 41.2109 26.2625C41.2109 26.2625 41.2109 26.2625 41.2108 26.2625C41.2108 26.2625 41.2108 26.2625 41.2107 26.2625C41.2107 26.2625 41.2107 26.2625 41.2106 26.2625C41.2106 26.2625 41.2106 26.2625 41.2105 26.2625C41.2105 26.2625 41.2105 26.2625 41.2105 26.2625C41.2104 26.2625 41.2104 26.2625 41.2104 26.2625C41.2103 26.2625 41.2103 26.2625 41.2103 26.2625C41.2102 26.2625 41.2102 26.2625 41.2102 26.2625C41.2101 26.2625 41.2101 26.2625 41.2101 26.2625C41.21 26.2625 41.21 26.2625 41.21 26.2625C41.2099 26.2625 41.2099 26.2625 41.2099 26.2625C41.2098 26.2625 41.2098 26.2625 41.2098 26.2625C41.2097 26.2625 41.2097 26.2625 41.2097 26.2625C41.2096 26.2625 41.2096 26.2625 41.2096 26.2625C41.2095 26.2625 41.2095 26.2625 41.2095 26.2625C41.2094 26.2625 41.2094 26.2625 41.2094 26.2625C41.2093 26.2625 41.2093 26.2625 41.2093 26.2625C41.2092 26.2625 41.2092 26.2625 41.2091 26.2625C41.2091 26.2625 41.2091 26.2625 41.209 26.2625C41.209 26.2625 41.209 26.2625 41.2089 26.2625C41.2089 26.2625 41.2089 26.2625 41.2088 26.2625C41.2088 26.2625 41.2088 26.2625 41.2087 26.2625C41.2087 26.2625 41.2087 26.2625 41.2086 26.2625C41.2086 26.2625 41.2086 26.2625 41.2085 26.2625C41.2085 26.2625 41.2085 26.2625 41.2084 26.2625C41.2084 26.2625 41.2084 26.2625 41.2083 26.2625C41.2083 26.2625 41.2082 26.2625 41.2082 26.2625C41.2082 26.2625 41.2081 26.2625 41.2081 26.2625C41.2081 26.2625 41.208 26.2625 41.208 26.2625C41.208 26.2625 41.2079 26.2625 41.2079 26.2625C41.2079 26.2625 41.2078 26.2625 41.2078 26.2625C41.2077 26.2625 41.2077 26.2625 41.2077 26.2625C41.2076 26.2625 41.2076 26.2625 41.2076 26.2625C41.2075 26.2625 41.2075 26.2625 41.2075 26.2625C41.2074 26.2625 41.2074 26.2625 41.2073 26.2625C41.2073 26.2625 41.2073 26.2625 41.2072 26.2625C41.2072 26.2625 41.2072 26.2625 41.2071 26.2625C41.2071 26.2625 41.2071 26.2625 41.207 26.2625C41.207 26.2625 41.2069 26.2625 41.2069 26.2625C41.2069 26.2625 41.2068 26.2625 41.2068 26.2625C41.2068 26.2625 41.2067 26.2625 41.2067 26.2625C41.2066 26.2625 41.2066 26.2625 41.2066 26.2625C41.2065 26.2625 41.2065 26.2625 41.2065 26.2625C41.2064 26.2625 41.2064 26.2625 41.2063 26.2625C41.2063 26.2625 41.2063 26.2625 41.2062 26.2625C41.2062 26.2625 41.2062 26.2625 41.2061 26.2625C41.2061 26.2625 41.206 26.2625 41.206 26.2625C41.206 26.2625 41.2059 26.2625 41.2059 26.2625C41.2059 26.2625 41.2058 26.2625 41.2058 26.2625C41.2057 26.2625 41.2057 26.2625 41.2057 26.2625C41.2056 26.2625 41.2056 26.2625 41.2055 26.2625C41.2055 26.2625 41.2055 26.2625 41.2054 26.2625C41.2054 26.2625 41.2054 26.2625 41.2053 26.2625C41.2053 26.2625 41.2052 26.2625 41.2052 26.2625C41.2052 26.2625 41.2051 26.2625 41.2051 26.2625C41.205 26.2625 41.205 26.2625 41.205 26.2625C41.2049 26.2625 41.2049 26.2625 41.2048 26.2625C41.2048 26.2625 41.2048 26.2625 41.2047 26.2625C41.2047 26.2625 41.2046 26.2625 41.2046 26.2625C41.2046 26.2625 41.2045 26.2625 41.2045 26.2625C41.2044 26.2625 41.2044 26.2625 41.2044 26.2625C41.2043 26.2625 41.2043 26.2625 41.2042 26.2625C41.2042 26.2625 41.2042 26.2625 41.2041 26.2625C41.2041 26.2625 41.204 26.2625 41.204 26.2625C41.204 26.2625 41.2039 26.2625 41.2039 26.2625C41.2038 26.2625 41.2038 26.2625 41.2038 26.2625C41.2037 26.2625 41.2037 26.2625 41.2036 26.2625C41.2036 26.2625 41.2035 26.2625 41.2035 26.2625C41.2035 26.2625 41.2034 26.2625 41.2034 26.2625C41.2033 26.2625 41.2033 26.2625 41.2033 26.2625C41.2032 26.2625 41.2032 26.2625 41.2031 26.2625C41.2031 26.2625 41.203 26.2625 41.203 26.2625C41.203 26.2625 41.2029 26.2625 41.2029 26.2625C41.2028 26.2625 41.2028 26.2625 41.2027 26.2625C41.2027 26.2625 41.2027 26.2625 41.2026 26.2625C41.2026 26.2625 41.2025 26.2625 41.2025 26.2625C41.2025 26.2625 41.2024 26.2625 41.2024 26.2625C41.2023 26.2625 41.2023 26.2625 41.2022 26.2625C41.2022 26.2625 41.2022 26.2625 41.2021 26.2625C41.2021 26.2625 41.202 26.2625 41.202 26.2625C41.2019 26.2625 41.2019 26.2625 41.2018 26.2625C41.2018 26.2625 41.2018 26.2625 41.2017 26.2625C41.2017 26.2625 41.2016 26.2625 41.2016 26.2625C41.2015 26.2625 41.2015 26.2625 41.2015 26.2625C41.2014 26.2625 41.2014 26.2625 41.2013 26.2625V27.7625ZM41.2466 27.7625C42.9278 27.7625 44.5746 26.9761 45.6674 25.5477L44.476 24.6363C43.6664 25.6945 42.4597 26.2625 41.2466 26.2625V27.7625ZM45.6692 25.5453C47.8939 22.6133 48.6815 19.2738 47.7404 16.1114L46.3028 16.5392C47.0829 19.1609 46.4664 22.0131 44.4742 24.6387L45.6692 25.5453ZM33.1967 38.0153C32.8863 42.9924 33.5339 50.667 34.2662 57.0861C34.6334 60.3054 35.0241 63.2259 35.3316 65.3596C35.4853 66.4263 35.6185 67.2978 35.7177 67.9128C35.7673 68.2198 35.8089 68.4656 35.8406 68.6409C35.8563 68.7278 35.8705 68.8021 35.8826 68.8596C35.8885 68.8877 35.8952 68.9181 35.9025 68.9466C35.9061 68.9606 35.9113 68.9802 35.918 69.0019C35.9218 69.0142 35.9376 69.0657 35.9671 69.1248L37.3088 68.454C37.3362 68.5088 37.3495 68.5537 37.3504 68.5567C37.3525 68.5636 37.354 68.5688 37.3548 68.5716C37.3556 68.5746 37.3561 68.5766 37.3563 68.5771C37.3564 68.5775 37.3545 68.57 37.3505 68.5508C37.3426 68.5136 37.3314 68.4553 37.3166 68.3737C37.2873 68.2118 37.2474 67.9765 37.1986 67.6737C37.101 67.0691 36.9691 66.2062 36.8162 65.1456C36.5106 63.0246 36.1219 60.1188 35.7565 56.9161C35.0235 50.4909 34.3926 42.9377 34.6938 38.1086L33.1967 38.0153ZM35.9007 68.9269C36.0711 69.8409 36.1319 70.7595 36.0284 71.689L37.5192 71.855C37.6422 70.7509 37.5672 69.6811 37.3752 68.6519L35.9007 68.9269ZM36.0276 71.6966C35.5663 76.2575 31.7327 79.7887 27.3391 79.7887V81.2887C32.5388 81.2887 36.9849 77.138 37.52 71.8475L36.0276 71.6966ZM27.3391 79.7887C22.9667 79.7887 19.1096 76.2561 18.6506 71.6969L17.1581 71.8472C17.691 77.1394 22.1634 81.2887 27.3391 81.2887V79.7887ZM18.6514 71.7055C18.5661 70.7478 18.6101 69.7963 18.7341 69.075L17.2558 68.8209C17.108 69.6804 17.0614 70.7626 17.1573 71.8386L18.6514 71.7055ZM18.6958 69.2149C18.7258 69.1361 18.7456 69.0416 18.7538 69.0037C18.7671 68.9415 18.7826 68.8629 18.7997 68.7712C18.8342 68.5868 18.8784 68.3337 18.9304 68.0207C19.0347 67.394 19.1725 66.5167 19.3303 65.4482C19.646 63.3109 20.0431 60.402 20.4147 57.1921C21.1557 50.7909 21.8032 43.128 21.4815 38.0148L19.9844 38.109C20.2968 43.0738 19.6659 50.6161 18.9246 57.0196C18.5551 60.212 18.1601 63.1052 17.8464 65.229C17.6895 66.291 17.5532 67.1589 17.4508 67.7745C17.3995 68.0827 17.3571 68.325 17.3253 68.4957C17.3092 68.5814 17.2966 68.6452 17.2873 68.6885C17.2728 68.756 17.2754 68.7301 17.2941 68.6809L18.6958 69.2149ZM21.4816 38.0165C21.0399 30.7336 18.3298 27.0266 16.0881 25.2313L15.1504 26.4021C17.026 27.9042 19.5654 31.1997 19.9843 38.1073L21.4816 38.0165ZM15.9264 26.5009C18.9376 25.1493 22.6982 24.3971 26.7072 24.3971V22.8971C22.5226 22.8971 18.547 23.6804 15.3121 25.1325L15.9264 26.5009ZM26.7072 24.3971C31.0475 24.3971 35.0901 25.2828 38.2205 26.8893L38.9054 25.5548C35.5225 23.8187 31.2355 22.8971 26.7072 22.8971V24.3971ZM38.0531 25.672C35.9461 27.6248 33.6125 31.2918 33.1966 38.0156L34.6938 38.1082C35.0887 31.724 37.2799 28.4338 39.0728 26.7722L38.0531 25.672ZM42.6676 23.2639C42.3703 23.6587 41.966 23.8953 41.5642 23.9729L41.8485 25.4457C42.6198 25.2968 43.3479 24.854 43.8658 24.1663L42.6676 23.2639ZM41.5492 23.9759C41.3303 24.0228 41.1464 24.0153 40.9984 23.9698L40.5573 25.4035C40.9981 25.5391 41.4482 25.5316 41.8635 25.4426L41.5492 23.9759ZM40.8606 23.9412C40.7887 23.9332 40.6564 23.8893 40.5018 23.812L39.8309 25.1536C40.0386 25.2575 40.3593 25.3947 40.695 25.432L40.8606 23.9412ZM40.5239 23.8235C36.7285 21.7652 31.8271 20.6369 26.7027 20.6369V22.1369C31.6246 22.1369 36.2711 23.2235 39.8088 25.1421L40.5239 23.8235ZM26.7027 20.6369C21.6042 20.6369 16.7017 21.7413 12.9492 23.7784L13.6648 25.0966C17.1548 23.2022 21.8003 22.1369 26.7027 22.1369V20.6369ZM13.0378 23.7375L12.7433 23.8507L13.2818 25.2507L13.5762 25.1375L13.0378 23.7375ZM12.7035 23.8674C12.0633 24.1569 11.2515 23.9662 10.7121 23.2598L9.51998 24.1703C10.43 25.3618 11.9689 25.8459 13.3216 25.2341L12.7035 23.8674ZM10.7099 23.257C9.14954 21.2342 8.67869 19.0865 9.25146 17.1747L7.81455 16.7442C7.07379 19.2168 7.7353 21.8567 9.52218 24.1732L10.7099 23.257ZM9.25125 17.1754C10.0961 14.3653 13.1692 11.7687 18.5592 9.8482L18.0557 8.43522C12.539 10.4009 8.87226 13.2261 7.81476 16.7435L9.25125 17.1754ZM18.5543 9.84992C20.1091 9.30799 23.344 9.01017 26.6911 9.01017C30.0383 9.01017 33.2725 9.308 34.826 9.84987L35.32 8.43355C33.5037 7.80004 30.0412 7.51017 26.6911 7.51017C23.341 7.51017 19.8779 7.80005 18.0606 8.4335L18.5543 9.84992ZM34.8213 9.8482C40.2117 11.7689 43.2864 14.3654 44.1291 17.1749L45.5659 16.744C44.5107 13.226 40.8411 10.4008 35.3248 8.43522L34.8213 9.8482ZM44.1273 17.1687C44.6846 19.0865 44.2295 21.2391 42.6729 23.257L43.8606 24.1732C45.6512 21.8518 46.2832 19.2123 45.5677 16.7502L44.1273 17.1687Z" fill="black" mask="url(#path-1-outside-1)"/>
<path d="M53.7858 33.145C49.853 33.5845 46 33.4644 46 30C46 27.3464 54.0702 17.5959 64.13 20.7819C88.5 28.5 78.737 42.2648 76.635 42.2544C74.5331 42.2439 73.5 39.5313 71.685 38.0026M53.7858 33.145C56.7125 32.818 60.2075 33.0332 64.0631 34.2252C67.2369 35.2064 68.9113 35.6664 71.685 38.0026M53.7858 33.145C55.712 33.2504 55.7639 38.311 54.9169 40.5C49.7584 53.8328 36.3924 70.5037 39 74.5C41.6076 78.4963 48.5889 81.4501 54.9169 77.0004C61.245 72.5506 58.8845 56.7311 65 44.5C67 40.5 67.6297 39.8879 71.685 38.0026" stroke="black" stroke-width="3.4"/>
</svg>
