<svg width="52" height="56" viewBox="0 0 52 56" fill="none" xmlns="http://www.w3.org/2000/svg">
<path d="M51.7818 11.2622C51.7771 11.0444 51.709 10.8327 51.5858 10.653C51.4626 10.4732 51.2898 10.3333 51.0883 10.2503L26.3228 0.0832581C26.0517 -0.0277527 25.7478 -0.0277527 25.4767 0.0832581L0.706798 10.2459C0.471244 10.3374 0.274042 10.5067 0.147903 10.7256C0.0217632 10.9446 -0.0257324 11.2001 0.0132944 11.4497C0.0114685 11.4861 0.0114685 11.5225 0.0132944 11.5588V43.7653C0.0128533 43.9808 0.0748055 44.1919 0.191673 44.373C0.308541 44.5541 0.475329 44.6975 0.671905 44.7859L25.0754 55.7424L25.1714 55.7729L25.2499 55.7991C25.4335 55.853 25.6288 55.853 25.8125 55.7991L25.8867 55.7773L25.9783 55.7468L51.1145 44.7903C51.3142 44.7035 51.4842 44.5603 51.6035 44.3782C51.7229 44.1961 51.7864 43.983 51.7862 43.7653V11.5588C51.788 11.5225 51.788 11.4861 51.7862 11.4497C51.7901 11.3872 51.7886 11.3245 51.7818 11.2622ZM18.6332 5.49608L40.0054 14.8824L35.0898 17.1199L13.7176 7.60712L18.6332 5.49608ZM41.75 16.6532V30.7283L36.2107 33.1272L36.2151 19.0783L41.75 16.6532ZM25.8997 2.32515L47.852 11.3407L42.7576 13.6437L21.2938 4.21375L25.8997 2.32515ZM10.5205 8.63211L32.3245 18.3194L25.7471 21.2111L3.93879 11.3407L10.5205 8.63211ZM2.23338 13.2816L24.4168 23.2393V52.9989L2.24646 43.0456L2.23338 13.2816ZM49.5487 43.0369L26.65 53.0207V23.4051L33.9819 20.064L34.0342 34.8239C34.0348 35.0088 34.0813 35.1907 34.1696 35.3533C34.2579 35.5158 34.3851 35.6538 34.5399 35.755C34.6947 35.8562 34.8722 35.9174 35.0565 35.933C35.2408 35.9486 35.4261 35.9182 35.5957 35.8445L43.3638 32.4817C43.5644 32.3956 43.7353 32.2526 43.8554 32.0704C43.9756 31.8883 44.0397 31.6749 44.0399 31.4567V15.6762L49.5748 13.2642L49.5487 43.0369Z" fill="black"/>
</svg>
