<svg width="124" height="75" viewBox="0 0 124 75" fill="none" xmlns="http://www.w3.org/2000/svg">
<path d="M48.9138 62.2387C48.9138 62.652 49.078 63.0484 49.3702 63.3406C49.6625 63.6329 50.0588 63.7971 50.4721 63.7971H56.0822C56.4379 65.8494 57.5068 67.7103 59.1005 69.0516C60.6942 70.3928 62.7103 71.1283 64.7933 71.1283C66.8763 71.1283 68.8924 70.3928 70.4861 69.0516C72.0797 67.7103 73.1487 65.8494 73.5044 63.7971H97.6067C97.9625 65.8494 99.0314 67.7103 100.625 69.0516C102.219 70.3928 104.235 71.1283 106.318 71.1283C108.401 71.1283 110.417 70.3928 112.011 69.0516C113.604 67.7103 114.673 65.8494 115.029 63.7971H120.442C120.855 63.7971 121.251 63.6329 121.544 63.3406C121.836 63.0484 122 62.652 122 62.2387V48.1617C121.999 47.8246 121.89 47.4968 121.688 47.2267L111.04 33.1497C110.894 32.9561 110.706 32.7991 110.49 32.6909C110.273 32.5827 110.035 32.5263 109.793 32.5263H93.7524V20.5583C93.7524 20.145 93.5883 19.7486 93.296 19.4564C93.0038 19.1641 92.6074 18.9999 92.1941 18.9999H50.4825C50.0692 18.9999 49.6729 19.1641 49.3806 19.4564C49.0884 19.7486 48.9242 20.145 48.9242 20.5583C48.9242 35.6203 48.9138 22.6419 48.9138 62.2387ZM106.313 68.015C105.18 68.0149 104.073 67.6796 103.131 67.0513C102.189 66.423 101.454 65.5298 101.019 64.4843C100.583 63.4389 100.467 62.288 100.685 61.1767C100.903 60.0654 101.445 59.0435 102.243 58.2399C103.041 57.4363 104.059 56.8868 105.169 56.6609C106.278 56.4349 107.43 56.5426 108.479 56.9703C109.527 57.3979 110.426 58.1265 111.061 59.0641C111.696 60.0017 112.039 61.1063 112.047 62.2387C112.051 62.9949 111.906 63.7445 111.62 64.4444C111.334 65.1444 110.912 65.7809 110.379 66.3176C109.847 66.8542 109.213 67.2804 108.515 67.5717C107.817 67.863 107.069 68.0136 106.313 68.015ZM93.7524 35.5911H109.014L118.873 48.6708V60.7219H115.019C114.663 58.6695 113.594 56.8087 112 55.4674C110.407 54.1262 108.39 53.3907 106.307 53.3907C104.225 53.3907 102.208 54.1262 100.615 55.4674C99.021 56.8087 97.9521 58.6695 97.5964 60.7219H93.7524V35.5911ZM64.7881 68.015C63.6556 68.0149 62.5486 67.6796 61.6064 67.0513C60.6643 66.423 59.9292 65.5298 59.494 64.4843C59.0588 63.4389 58.9428 62.288 59.1607 61.1767C59.3787 60.0654 59.9207 59.0435 60.7186 58.2399C61.5164 57.4363 62.5344 56.8868 63.644 56.6609C64.7537 56.4349 65.9054 56.5426 66.954 56.9703C68.0026 57.3979 68.9011 58.1265 69.5362 59.0641C70.1713 60.0017 70.5146 61.1063 70.5228 62.2387C70.5269 62.9949 70.3817 63.7445 70.0954 64.4444C69.8092 65.1444 69.3876 65.7809 68.8548 66.3176C68.322 66.8542 67.6885 67.2804 66.9907 67.5717C66.2928 67.863 65.5443 68.0136 64.7881 68.015ZM52.0305 22.1166H90.6358V60.7219H73.494C73.1383 58.6695 72.0694 56.8087 70.4757 55.4674C68.882 54.1262 66.8659 53.3907 64.7829 53.3907C62.6999 53.3907 60.6838 54.1262 59.0901 55.4674C57.4964 56.8087 56.4275 58.6695 56.0718 60.7219H52.0201L52.0305 22.1166Z" fill="#373737"/>
<path d="M10.2789 31.1683H36.2195" stroke="#373737" stroke-width="2.53887"/>
<path d="M2 39.4472H36.2195" stroke="#373737" stroke-width="2.53887"/>
</svg>
