<svg width="120" height="53" viewBox="0 0 120 53" fill="none" xmlns="http://www.w3.org/2000/svg">
<path d="M46.9138 43.2387C46.9138 43.652 47.078 44.0484 47.3702 44.3406C47.6625 44.6329 48.0588 44.7971 48.4721 44.7971H54.0822C54.4379 46.8494 55.5068 48.7103 57.1005 50.0516C58.6942 51.3928 60.7103 52.1283 62.7933 52.1283C64.8763 52.1283 66.8924 51.3928 68.4861 50.0516C70.0798 48.7103 71.1487 46.8494 71.5044 44.7971H95.6067C95.9625 46.8494 97.0314 48.7103 98.6251 50.0516C100.219 51.3928 102.235 52.1283 104.318 52.1283C106.401 52.1283 108.417 51.3928 110.011 50.0516C111.604 48.7103 112.673 46.8494 113.029 44.7971H118.442C118.855 44.7971 119.251 44.6329 119.544 44.3406C119.836 44.0484 120 43.652 120 43.2387V29.1617C119.999 28.8246 119.89 28.4968 119.688 28.2267L109.04 14.1497C108.894 13.9561 108.706 13.7991 108.49 13.6909C108.273 13.5827 108.035 13.5263 107.793 13.5263H91.7524V1.55828C91.7524 1.14498 91.5883 0.748613 91.296 0.456367C91.0038 0.164122 90.6074 -6.10352e-05 90.1941 -6.10352e-05H48.4825C48.0692 -6.10352e-05 47.6729 0.164122 47.3806 0.456367C47.0884 0.748613 46.9242 1.14498 46.9242 1.55828C46.9242 16.6203 46.9138 3.64192 46.9138 43.2387ZM104.313 49.015C103.18 49.0149 102.073 48.6796 101.131 48.0513C100.189 47.423 99.4538 46.5298 99.0186 45.4843C98.5834 44.4389 98.4674 43.288 98.6853 42.1767C98.9032 41.0654 99.4453 40.0435 100.243 39.2399C101.041 38.4362 102.059 37.8868 103.169 37.6609C104.278 37.4349 105.43 37.5426 106.479 37.9703C107.527 38.3979 108.426 39.1265 109.061 40.0641C109.696 41.0017 110.039 42.1063 110.047 43.2387C110.051 43.9949 109.906 44.7445 109.62 45.4444C109.334 46.1444 108.912 46.7809 108.379 47.3176C107.847 47.8542 107.213 48.2804 106.515 48.5717C105.817 48.863 105.069 49.0136 104.313 49.015ZM91.7524 16.5911H107.014L116.873 29.6708V41.7219H113.019C112.663 39.6695 111.594 37.8087 110 36.4674C108.407 35.1262 106.39 34.3907 104.307 34.3907C102.225 34.3907 100.208 35.1262 98.6147 36.4674C97.021 37.8087 95.9521 39.6695 95.5964 41.7219H91.7524V16.5911ZM62.7881 49.015C61.6556 49.0149 60.5486 48.6796 59.6064 48.0513C58.6643 47.423 57.9292 46.5298 57.494 45.4843C57.0588 44.4389 56.9428 43.288 57.1607 42.1767C57.3787 41.0654 57.9207 40.0435 58.7186 39.2399C59.5164 38.4362 60.5344 37.8868 61.644 37.6609C62.7537 37.4349 63.9054 37.5426 64.954 37.9703C66.0026 38.3979 66.9011 39.1265 67.5362 40.0641C68.1713 41.0017 68.5146 42.1063 68.5228 43.2387C68.5269 43.9949 68.3817 44.7445 68.0954 45.4444C67.8092 46.1444 67.3876 46.7809 66.8548 47.3176C66.322 47.8542 65.6885 48.2804 64.9907 48.5717C64.2928 48.863 63.5443 49.0136 62.7881 49.015ZM50.0305 3.11662H88.6358V41.7219H71.494C71.1383 39.6695 70.0694 37.8087 68.4757 36.4674C66.882 35.1262 64.8659 34.3907 62.7829 34.3907C60.6999 34.3907 58.6838 35.1262 57.0901 36.4674C55.4964 37.8087 54.4275 39.6695 54.0718 41.7219H50.0201L50.0305 3.11662Z" fill="black"/>
<path d="M8.2789 12.1683H34.2195" stroke="black" stroke-width="2.53887"/>
<path d="M0 20.4472H34.2195" stroke="black" stroke-width="2.53887"/>
</svg>
