<svg width="150" height="150" viewBox="0 0 150 150" fill="none" xmlns="http://www.w3.org/2000/svg">
<path fill-rule="evenodd" clip-rule="evenodd" d="M74.7135 149.999L74.7806 150H74.7574L74.7135 149.999ZM75.2426 150H75.2194L75.2865 149.999L75.2426 150ZM74.4844 149.998L74.5567 149.999H74.5151L74.4844 149.998ZM75.4849 149.999H75.4433L75.5156 149.998L75.4849 149.999ZM74.2635 149.996L74.3118 149.997L74.2731 149.996H74.2635ZM75.7269 149.996L75.6882 149.997L75.7365 149.996H75.7269ZM75.9688 149.994L75.9519 149.994L76.0172 149.993L75.9688 149.994ZM73.9828 149.993L74.0481 149.994L74.0312 149.994L73.9828 149.993ZM76.2105 149.99L76.171 149.991L76.2516 149.99L76.2105 149.99ZM73.7484 149.99L73.829 149.991L73.7895 149.99L73.7484 149.99ZM76.452 149.986L76.3986 149.987L76.4731 149.986L76.452 149.986ZM73.527 149.986L73.6014 149.987L73.548 149.986L73.527 149.986ZM73.2524 149.98L73.3184 149.982L73.3066 149.981L73.2524 149.98ZM76.6934 149.981L76.6816 149.982L76.7476 149.98L76.6934 149.981ZM73.0116 149.974L73.1021 149.976L73.0655 149.975L73.0116 149.974ZM76.9345 149.975L76.8979 149.976L76.9884 149.974L76.9345 149.975ZM77.1756 149.969L77.1167 149.971L77.2093 149.968L77.1756 149.969ZM72.7907 149.968L72.8833 149.971L72.8244 149.969L72.7907 149.968ZM72.5798 149.962L72.6457 149.964L72.5836 149.962L72.5268 149.96L72.5798 149.962ZM77.4164 149.962L77.3543 149.964L77.4202 149.962L77.4732 149.96L77.4164 149.962ZM77.6569 149.954L77.6241 149.955L77.7252 149.951L77.6569 149.954ZM72.2748 149.951L72.3759 149.955L72.3431 149.954L72.2748 149.951ZM72.0554 149.943L72.1614 149.947L72.1025 149.945L72.0554 149.943ZM77.8975 149.945L77.8386 149.947L77.9446 149.943L77.8975 149.945ZM71.84 149.934L71.9437 149.939L71.8626 149.936L71.84 149.934ZM78.1374 149.936L78.0563 149.939L78.16 149.934L78.1374 149.936ZM71.5383 149.921L71.6496 149.926L71.6224 149.925L71.5383 149.921ZM78.3776 149.925L78.3504 149.926L78.4617 149.921L78.3776 149.925ZM71.3218 149.911L71.4372 149.917L71.3827 149.914L71.3218 149.911ZM78.6173 149.914L78.5628 149.917L78.6782 149.911L78.6173 149.914ZM71.1085 149.9L71.2248 149.906L71.1431 149.902L71.1085 149.9ZM78.8569 149.902L78.7752 149.906L78.8915 149.9L78.8569 149.902ZM79.0966 149.89L78.9905 149.895L79.0846 149.89L79.1953 149.884L79.0966 149.89ZM70.9154 149.89L71.0095 149.895L70.9034 149.89L70.8047 149.884L70.9154 149.89ZM79.3356 149.876L79.2888 149.879L79.4077 149.872L79.3356 149.876ZM70.5923 149.872L70.7112 149.879L70.6644 149.876L70.5923 149.872ZM70.3808 149.86L70.4994 149.867L70.4253 149.863L70.3808 149.86ZM79.5747 149.863L79.5006 149.867L79.6192 149.86L79.5747 149.863ZM70.1789 149.847L70.2858 149.854L70.1862 149.848L70.086 149.841L70.1789 149.847ZM79.8138 149.848L79.7142 149.854L79.8211 149.847L79.914 149.841L79.8138 149.848ZM80.0522 149.832L80.0165 149.834L80.1299 149.827L80.0522 149.832ZM69.8701 149.827L69.9835 149.834L69.9478 149.832L69.8701 149.827ZM69.6589 149.812L69.7702 149.82L69.7093 149.816L69.6589 149.812ZM80.2907 149.816L80.2298 149.82L80.3411 149.812L80.2907 149.816ZM69.4482 149.797L69.5505 149.805L69.4711 149.799L69.4482 149.797ZM80.5289 149.799L80.4495 149.805L80.5518 149.797L80.5289 149.799ZM69.1649 149.776L69.2546 149.783L69.2329 149.781L69.1649 149.776ZM80.7671 149.781L80.7454 149.783L80.8351 149.776L80.7671 149.781ZM81.0047 149.763L80.9619 149.766L81.053 149.759L81.0047 149.763ZM68.947 149.759L69.0381 149.766L68.9953 149.763L68.947 149.759ZM68.7346 149.741L68.8119 149.748L68.7574 149.743L68.7346 149.741ZM81.2426 149.743L81.1881 149.748L81.2654 149.741L81.2426 149.743ZM68.5008 149.722L68.5239 149.724L68.5201 149.723L68.5008 149.722ZM81.4799 149.723L81.4761 149.724L81.4992 149.722L81.4799 149.723ZM81.7172 149.703L81.6961 149.704L81.7491 149.7L81.7172 149.703ZM68.2509 149.7L68.3039 149.704L68.2828 149.703L68.2509 149.7ZM68.0312 149.68L68.0707 149.684L68.0461 149.681L68.0312 149.68ZM81.9539 149.681L81.9293 149.684L81.9688 149.68L81.9539 149.681ZM63.2812 149.088C27.4456 143.455 0 112.407 0 75C0 33.6064 33.6064 0 75 0C116.394 0 150 33.6064 150 75C150 112.407 122.554 143.455 86.7188 149.088V96.6797H104.194L107.52 75H86.7188V60.9314C86.7188 55.0002 89.6244 49.2188 98.9411 49.2188H108.398V30.7617C108.398 30.7617 99.8156 29.2969 91.6099 29.2969C74.4782 29.2969 63.2812 39.6797 63.2812 58.4766V75H44.2383V96.6797H63.2812V149.088Z" fill="#103A61"/>
</svg>
