<svg width="69" height="69" viewBox="0 0 69 69" fill="none" xmlns="http://www.w3.org/2000/svg">
<circle cx="34.6763" cy="34.6763" r="33.6763" fill="#1C71C0"/>
<path d="M15.9834 10.7508C16.4859 10.8538 17.0376 10.0085 16.5874 9.80548C15.9702 9.52666 15.9084 10.5434 16.1533 10.8362" fill="#7BCB3D"/>
<path d="M15.9834 10.7508C16.4859 10.8538 17.0376 10.0085 16.5874 9.80548C15.9702 9.52666 15.9084 10.5434 16.1533 10.8362" stroke="#7BCB3D" stroke-width="0.213174" stroke-miterlimit="10" stroke-linecap="round" stroke-linejoin="round"/>
<path d="M14.8725 12.2876C14.8527 12.4186 14.8961 12.4936 14.8056 12.6069C14.6982 12.2317 14.8321 11.7705 15.0432 11.5189" fill="#7BCB3D"/>
<path d="M14.8725 12.2876C14.8527 12.4186 14.8961 12.4936 14.8056 12.6069C14.6982 12.2317 14.8321 11.7705 15.0432 11.5189" stroke="#7BCB3D" stroke-width="0.213174" stroke-miterlimit="10" stroke-linecap="round" stroke-linejoin="round"/>
<path d="M14.1869 15.9609C13.9721 16.8665 13.5572 17.7382 13.591 18.6733C13.627 19.6385 13.95 20.4264 14.1273 21.3658C14.3252 22.4193 14.0986 23.5669 14.5091 24.5704C14.8608 25.4297 15.3515 25.8887 15.5729 26.8024C15.8304 27.8632 16.1298 28.7269 16.7301 29.6288C17.287 30.466 18.0484 31.162 18.5685 31.9359C19.0901 32.7128 19.3895 33.6912 19.6742 34.5622C19.9766 35.4914 20.4136 36.3455 20.752 37.2268C21.1927 38.3767 22.4565 38.7129 23.0466 39.7855C23.2437 40.143 23.6079 40.7242 23.4865 41.1538C23.1746 42.2588 22.6272 41.493 22.3881 40.9868C21.8393 39.8296 20.4379 39.6928 20.0193 38.2994C19.5014 39.4662 20.3761 41.3819 20.7454 42.5178C21.2169 43.967 22.0483 45.292 22.6235 46.7067C22.8553 47.2761 23.1297 47.9338 23.499 48.4223C23.6792 48.6591 23.9904 48.8202 24.1626 49.0932C24.4311 49.5169 24.3384 50.0106 24.4966 50.4453C24.8703 51.4745 25.8024 52.3772 26.3203 53.2659C26.3784 53.3667 26.2313 53.6558 26.3269 53.7389C26.4946 53.8846 26.7095 53.7882 26.8308 53.8846C27.1185 54.1141 27.4701 53.8066 27.5246 54.4695C28.1933 54.6056 28.6906 54.3039 28.5155 53.6352C28.3544 54.4415 28.8679 55.1926 29.8221 55.2345C30.0339 55.2441 30.5217 54.991 30.6041 55.0102C31.2986 55.1794 31.25 55.8253 30.6078 56.0239C29.8493 56.2586 29.0651 55.2824 28.7061 56.3528C28.4876 57.0031 29.196 58.3192 29.8206 58.4119C30.4194 58.5002 30.3856 57.8969 30.6637 57.8491C31.0374 57.7844 31.3478 58.2155 31.8746 58.1596C32.1769 58.1272 32.3741 57.8668 32.7265 57.8131C33.1848 57.7439 33.6924 57.8535 34.1103 57.9985C34.9865 58.303 35.7288 58.8349 36.6579 59.0093C37.501 59.1682 38.2168 59.294 38.9341 59.778C39.3482 59.216 39.3379 58.1772 39.6646 57.5122C40.0045 56.8199 40.735 56.5742 41.08 55.9364C41.3478 55.4413 41.2794 54.1119 41.1823 53.5403C41.0484 52.7487 40.2097 52.3051 40.1641 51.4951C40.7512 51.7798 42.1511 54.8571 42.9398 54.2936C43.262 54.0641 43.1083 52.1484 43.3297 51.6658C43.7387 50.7793 43.944 49.7546 44.4258 48.9306C44.5619 48.6996 45.0261 47.972 45.174 47.8852C45.6066 47.627 46.1113 47.9088 46.5482 47.4784C46.6556 48.1353 46.1377 48.2714 46.0311 48.6819C45.9288 49.0718 46.3437 49.6898 46.1193 50.0209C45.8096 50.4792 45.2204 50.0356 44.9511 49.7921C44.9158 49.9679 44.9025 50.2276 44.9437 50.399C46.3599 49.3124 46.4526 48.3921 47.089 47.0657C47.7856 46.9082 47.6643 47.5608 48.0277 47.8212C48.5294 48.1817 49.1356 48.0677 49.7293 48.0794C50.0684 48.8225 50.2567 49.4595 50.2207 50.2835C49.1687 50.3372 48.6236 50.3129 48.6832 49.113C47.8335 49.0365 48.6824 50.5196 47.6841 50.4799C47.6348 51.4591 47.9982 53.8831 49.4519 53.0091C50.0544 52.6472 49.6881 52.108 50.4914 52.5854C51.0241 52.9017 50.9461 53.221 51.7605 53.0842C51.784 52.5567 51.8068 51.966 51.8333 51.4731C51.8502 51.156 51.9628 50.939 51.8634 50.6168C51.7737 50.3254 51.4176 50.2732 51.3397 49.8929C51.2102 49.2594 52.0062 48.6253 51.6685 47.9904C51.2698 47.2393 50.526 47.8153 50.167 48.2582C49.3953 47.7064 51.1131 45.0897 51.1727 44.1458C51.2021 43.6831 50.9851 43.4925 50.9166 43.1828C50.7747 42.5406 50.6989 42.9673 51.1756 42.4368C51.6008 41.9638 51.6736 42.1029 51.7715 41.4121C51.823 41.0486 51.7178 40.6624 51.7715 40.299C51.8796 39.5648 52.1702 38.888 52.2835 38.0765C52.399 37.2474 52.58 36.4058 53.3127 35.8556C55.0298 34.5659 55.3137 36.8715 55.3689 38.153C56.4651 38.3024 55.5271 36.6839 55.5293 36.2013C55.5344 35.1287 55.683 34.5152 55.2703 33.486C54.5126 31.596 55.7492 30.0195 55.4432 28.0641C55.3056 27.1886 54.7024 26.5302 54.9099 25.5246C55.0548 24.8198 55.6602 24.2165 55.6992 23.564C55.7367 22.9409 55.4233 22.907 55.2049 22.4553C54.8326 21.6851 54.9746 21.0789 54.9305 20.2255C54.8503 18.6799 55.5558 17.2836 53.8343 16.3949C53.7938 16.6745 53.5621 17.1438 53.22 17.0695C52.8132 16.9812 53.078 16.6737 52.9662 16.3868C52.4233 14.9839 51.6604 15.7821 50.7747 16.3235C50.2935 16.6178 49.8455 16.8635 49.2629 16.8039C48.5206 16.7282 48.1748 16.1521 47.5179 16.8326C47.0514 17.3152 46.883 18.0766 46.3857 18.5011C46.0855 18.7571 45.1468 19.1463 44.7635 18.93C44.3964 18.7226 44.5994 18.2745 44.2544 18.0869C43.9182 17.9038 43.3657 18.2238 43.1266 18.329C42.0813 18.788 41.5045 18.791 40.3031 18.8623C39.3026 18.9219 39.1849 19.2147 38.4456 19.737C37.793 20.1976 37.181 19.7937 36.4806 20.0563C35.5279 20.4139 35.8619 21.5093 35.436 22.2714C34.8629 22.1736 35.2204 21.6417 34.9534 21.4188C34.5546 21.0855 33.8175 21.2694 33.3128 21.3437C32.6926 21.4357 32.0894 21.6822 31.5082 21.3408C31.0808 21.0899 30.9925 20.6294 30.6085 20.3528C30.2774 20.1152 29.9957 20.1792 29.647 20.0637C29.366 19.9703 29.1239 19.8158 28.8164 19.7392C28.3117 19.6134 27.4267 19.7922 27.0096 19.5487C26.7506 19.3979 26.6918 19.0168 26.491 18.7549C26.1342 18.2885 25.9524 18.2554 25.4559 17.981C24.9622 17.7088 24.4061 17.3719 23.908 17.1696C22.8339 16.7333 20.9102 16.9003 21.0058 15.2877C20.2378 14.5793 20.173 15.8019 19.7368 16.0462C19.0526 16.4287 18.815 15.6776 18.2022 15.4422C17.5393 15.1877 16.7536 15.4768 16.0628 15.1928C15.3912 14.9169 14.9395 14.2467 14.3075 13.8988C14.206 14.5807 14.3487 15.2782 14.1869 15.9609Z" fill="#7BCB3D" stroke="#7BCB3D" stroke-width="0.213174" stroke-miterlimit="10" stroke-linecap="round" stroke-linejoin="round"/>
<path d="M16.6668 12.971C17.0155 13.4985 16.1592 13.9186 16.4233 14.3203C16.591 14.5748 17.5864 14.4233 17.8512 14.41C17.7983 13.6552 16.544 14.154 16.7522 13.2271" fill="#7BCB3D"/>
<path d="M16.6668 12.971C17.0155 13.4985 16.1592 13.9186 16.4233 14.3203C16.591 14.5748 17.5864 14.4233 17.8512 14.41C17.7983 13.6552 16.544 14.154 16.7522 13.2271" stroke="#7BCB3D" stroke-width="0.213174" stroke-miterlimit="10" stroke-linecap="round" stroke-linejoin="round"/>
<path d="M55.1887 38.6812C54.9135 38.5562 54.4589 38.5915 54.0918 38.6062C54.0874 38.7099 54.08 38.7982 54.0874 38.9056C54.5663 38.9387 54.9106 39.2279 55.3468 39.4235C55.444 39.1065 55.3682 38.8519 55.1041 38.6805" fill="#7BCB3D"/>
<path d="M55.1887 38.6812C54.9135 38.5562 54.4589 38.5915 54.0918 38.6062C54.0874 38.7099 54.08 38.7982 54.0874 38.9056C54.5663 38.9387 54.9106 39.2279 55.3468 39.4235C55.444 39.1065 55.3682 38.8519 55.1041 38.6805" stroke="#7BCB3D" stroke-width="0.213174" stroke-miterlimit="10" stroke-linecap="round" stroke-linejoin="round"/>
<path d="M52.797 44.5754C52.4594 44.763 52.3681 45.1603 52.2416 45.5024C52.3799 45.5428 52.5609 45.5355 52.6992 45.5046C53.0251 44.5982 52.8066 44.4651 53.8851 44.4894C53.0119 44.443 52.9206 43.9457 52.7352 43.2395C51.9621 43.8589 52.8846 44.2598 52.8824 44.7468" fill="#7BCB3D"/>
<path d="M52.797 44.5754C52.4594 44.763 52.3681 45.1603 52.2416 45.5024C52.3799 45.5428 52.5609 45.5355 52.6992 45.5046C53.0251 44.5982 52.8066 44.4651 53.8851 44.4894C53.0119 44.443 52.9206 43.9457 52.7352 43.2395C51.9621 43.8589 52.8846 44.2598 52.8824 44.7468" stroke="#7BCB3D" stroke-width="0.213174" stroke-miterlimit="10" stroke-linecap="round" stroke-linejoin="round"/>
<path d="M44.5273 51.1523C44.8481 51.7798 44.2713 52.133 43.9211 52.5913C44.0705 52.7274 44.734 53.6161 44.7546 53.8706C44.8017 54.4621 44.2448 54.4444 43.8733 54.671C43.2134 55.0727 43.2943 55.4096 43.1928 56.1821C43.1398 56.5874 42.9177 57.9109 42.3034 57.0193C42.3461 57.7056 42.8632 57.2422 43.1332 57.2547C43.5165 57.2745 43.9704 57.5107 44.4435 57.5475C44.4736 56.7897 44.3971 56.2659 44.8201 55.6958C44.1757 55.2014 44.1676 53.7926 45.1865 53.7816C45.3115 53.2011 44.9327 52.9996 44.8179 52.5118C44.7186 52.0888 45.0842 51.3083 44.378 51.4716" fill="#7BCB3D"/>
<path d="M44.5273 51.1523C44.8481 51.7798 44.2713 52.133 43.9211 52.5913C44.0705 52.7274 44.734 53.6161 44.7546 53.8706C44.8017 54.4621 44.2448 54.4444 43.8733 54.671C43.2134 55.0727 43.2943 55.4096 43.1928 56.1821C43.1398 56.5874 42.9177 57.9109 42.3034 57.0193C42.3461 57.7056 42.8632 57.2422 43.1332 57.2547C43.5165 57.2745 43.9704 57.5107 44.4435 57.5475C44.4736 56.7897 44.3971 56.2659 44.8201 55.6958C44.1757 55.2014 44.1676 53.7926 45.1865 53.7816C45.3115 53.2011 44.9327 52.9996 44.8179 52.5118C44.7186 52.0888 45.0842 51.3083 44.378 51.4716" stroke="#7BCB3D" stroke-width="0.213174" stroke-miterlimit="10" stroke-linecap="round" stroke-linejoin="round"/>
<path d="M34.1711 33.0113L27.8404 27.9174C27.008 27.2476 27.4816 25.9035 28.55 25.9035H42.6002C43.2253 25.9035 43.7321 26.4103 43.7321 27.0355V32.1294C43.7321 32.7546 43.2253 33.2614 42.6002 33.2614H34.8807C34.6226 33.2614 34.3722 33.1731 34.1711 33.0113Z" fill="white"/>
<path d="M34.0624 35.1866L28.827 31.4329C28.078 30.8959 27.0355 31.4312 27.0355 32.3529L27.0355 45.5716C27.0355 46.1968 27.5423 46.7036 28.1675 46.7036L33.4029 46.7036C34.028 46.7036 34.5348 46.1968 34.5348 45.5716L34.5348 36.1066C34.5348 35.7417 34.359 35.3992 34.0624 35.1866Z" fill="white"/>
<rect x="35.5253" y="35.8083" width="6.79186" height="5.0939" rx="0.625566" fill="white"/>
</svg>
