<svg width="267" height="75" viewBox="0 0 267 75" fill="none" xmlns="http://www.w3.org/2000/svg">
<g clip-path="url(#clip0_16_21)">
<path d="M134.377 13.2931L135.349 6.8488H137.399L135.574 17.1033H133.497L132.3 11.0605L131.116 17.1033H129.032L127.2 6.8488H129.264L130.229 13.286L131.433 6.8488H133.173L134.377 13.2931ZM150.81 12.6662H147.585V15.3848H151.402V17.1033H145.514V6.8488H151.388V8.57431H147.585V10.9971H150.81V12.6662ZM175.204 12.9198H171.985V17.1033H169.915V6.8488H175.591V8.57431H171.985V11.2013H175.204V12.9198ZM187.312 15.0045H184.488L183.939 17.1033H181.749L184.953 6.8488H186.848L190.073 17.1033H187.862L187.312 15.0045ZM184.939 13.279H186.855L185.897 9.6237L184.939 13.279ZM201.14 13.3564H200.111V17.1033H198.041V6.8488H201.344C202.382 6.8488 203.182 7.11878 203.746 7.65873C204.314 8.19399 204.598 8.95697 204.598 9.94768C204.598 11.3093 204.102 12.2624 203.112 12.8071L204.908 17.0047V17.1033H202.682L201.14 13.3564ZM200.111 11.6309H201.288C201.701 11.6309 202.011 11.4948 202.217 11.2224C202.424 10.9454 202.527 10.5768 202.527 10.1167C202.527 9.08844 202.126 8.57431 201.323 8.57431H200.111V11.6309ZM215.72 6.8488L217.657 14.265L219.587 6.8488H222.291V17.1033H220.214V14.3284L220.404 10.0533L218.354 17.1033H216.946L214.896 10.0533L215.087 14.3284V17.1033H213.016V6.8488H215.72Z" fill="#5EC20F"/>
<path d="M149.318 65.1508V68.4891H147.402V58.9958H150.636C151.574 58.9958 152.322 59.287 152.878 59.8695C153.439 60.452 153.72 61.2083 153.72 62.1385C153.72 63.0687 153.444 63.8033 152.892 64.3423C152.339 64.8813 151.574 65.1508 150.596 65.1508H149.318ZM149.318 63.5534H150.636C151.001 63.5534 151.283 63.4338 151.483 63.1948C151.683 62.9557 151.783 62.608 151.783 62.1515C151.783 61.6778 151.681 61.3018 151.477 61.0236C151.272 60.741 150.998 60.5976 150.655 60.5932H149.318V63.5534ZM163.089 60.5932H160.742V68.4891H158.818V60.5932H156.51V58.9958H163.089V60.5932ZM169.094 63.26L170.521 58.9958H172.608L170.065 65.0465V68.4891H168.122V65.0465L165.573 58.9958H167.659L169.094 63.26ZM182.348 66.8982H185.713V68.4891H180.432V58.9958H182.348V66.8982ZM193.563 60.5932H191.216V68.4891H189.292V60.5932H186.984V58.9958H193.563V60.5932ZM196.601 68.4891V58.9958H199.111C200.22 58.9958 201.102 59.3479 201.758 60.0521C202.419 60.7562 202.756 61.7212 202.769 62.947V64.4858C202.769 65.7333 202.439 66.7135 201.778 67.4263C201.122 68.1349 200.215 68.4891 199.059 68.4891H196.601ZM198.518 60.5932V66.8982H199.092C199.731 66.8982 200.181 66.7309 200.441 66.3962C200.702 66.0571 200.839 65.4747 200.852 64.6488V62.9992C200.852 62.1124 200.728 61.4952 200.48 61.1474C200.233 60.7954 199.811 60.6106 199.216 60.5932H198.518Z" fill="#1C71C0"/>
<path d="M149.318 65.1508V64.9454H149.113V65.1508H149.318ZM149.318 68.4891V68.6946H149.524V68.4891H149.318ZM147.402 68.4891H147.196V68.6946H147.402V68.4891ZM147.402 58.9958V58.7904H147.196V58.9958H147.402ZM152.878 59.8695L152.73 60.0114L152.73 60.012L152.878 59.8695ZM152.892 64.3423L152.748 64.1953L152.892 64.3423ZM149.318 63.5534H149.113V63.7588H149.318V63.5534ZM151.477 61.0236L151.31 61.1439L151.311 61.1452L151.477 61.0236ZM150.655 60.5932L150.658 60.3878H150.655V60.5932ZM149.318 60.5932V60.3878H149.113V60.5932H149.318ZM149.113 65.1508V68.4891H149.524V65.1508H149.113ZM149.318 68.2837H147.402V68.6946H149.318V68.2837ZM147.607 68.4891V58.9958H147.196V68.4891H147.607ZM147.402 59.2012H150.636V58.7904H147.402V59.2012ZM150.636 59.2012C151.528 59.2012 152.219 59.4763 152.73 60.0114L153.027 59.7276C152.425 59.0978 151.62 58.7904 150.636 58.7904V59.2012ZM152.73 60.012C153.249 60.5504 153.514 61.2528 153.514 62.1385H153.925C153.925 61.1638 153.63 60.3536 153.026 59.727L152.73 60.012ZM153.514 62.1385C153.514 63.0256 153.252 63.7028 152.748 64.1953L153.035 64.4893C153.635 63.9039 153.925 63.1118 153.925 62.1385H153.514ZM152.748 64.1953C152.244 64.6875 151.536 64.9454 150.596 64.9454V65.3563C151.613 65.3563 152.435 65.0751 153.035 64.4893L152.748 64.1953ZM150.596 64.9454H149.318V65.3563H150.596V64.9454ZM149.318 63.7588H150.636V63.3479H149.318V63.7588ZM150.636 63.7588C151.05 63.7588 151.395 63.6205 151.641 63.3266L151.326 63.063C151.172 63.2472 150.951 63.3479 150.636 63.3479V63.7588ZM151.641 63.3266C151.883 63.0367 151.989 62.6344 151.989 62.1515H151.578C151.578 62.5815 151.483 62.8747 151.326 63.063L151.641 63.3266ZM151.989 62.1515C151.989 61.65 151.88 61.2264 151.642 60.902L151.311 61.1452C151.481 61.3771 151.578 61.7055 151.578 62.1515H151.989ZM151.643 60.9032C151.401 60.5689 151.067 60.393 150.658 60.3878L150.653 60.7987C150.93 60.8022 151.143 60.9131 151.31 61.1439L151.643 60.9032ZM150.655 60.3878H149.318V60.7987H150.655V60.3878ZM149.113 60.5932V63.5534H149.524V60.5932H149.113ZM163.089 60.5932V60.7987H163.294V60.5932H163.089ZM160.742 60.5932V60.3878H160.536V60.5932H160.742ZM160.742 68.4891V68.6946H160.947V68.4891H160.742ZM158.818 68.4891H158.613V68.6946H158.818V68.4891ZM158.818 60.5932H159.024V60.3878H158.818V60.5932ZM156.51 60.5932H156.304V60.7987H156.51V60.5932ZM156.51 58.9958V58.7904H156.304V58.9958H156.51ZM163.089 58.9958H163.294V58.7904H163.089V58.9958ZM163.089 60.3878H160.742V60.7987H163.089V60.3878ZM160.536 60.5932V68.4891H160.947V60.5932H160.536ZM160.742 68.2837H158.818V68.6946H160.742V68.2837ZM159.024 68.4891V60.5932H158.613V68.4891H159.024ZM158.818 60.3878H156.51V60.7987H158.818V60.3878ZM156.715 60.5932V58.9958H156.304V60.5932H156.715ZM156.51 59.2012H163.089V58.7904H156.51V59.2012ZM162.883 58.9958V60.5932H163.294V58.9958H162.883ZM169.094 63.26L168.899 63.3255L169.094 63.9056L169.288 63.3252L169.094 63.26ZM170.521 58.9958V58.7904H170.374L170.327 58.9306L170.521 58.9958ZM172.608 58.9958L172.797 59.0754L172.917 58.7904H172.608V58.9958ZM170.065 65.0465L169.876 64.9669L169.86 65.0051V65.0465H170.065ZM170.065 68.4891V68.6946H170.27V68.4891H170.065ZM168.122 68.4891H167.917V68.6946H168.122V68.4891ZM168.122 65.0465H168.327V65.005L168.311 64.9667L168.122 65.0465ZM165.573 58.9958V58.7904H165.263L165.383 59.0756L165.573 58.9958ZM167.659 58.9958L167.854 58.9303L167.807 58.7904H167.659V58.9958ZM169.288 63.3252L170.716 59.061L170.327 58.9306L168.899 63.1947L169.288 63.3252ZM170.521 59.2012H172.608V58.7904H170.521V59.2012ZM172.419 58.9162L169.876 64.9669L170.254 65.1261L172.797 59.0754L172.419 58.9162ZM169.86 65.0465V68.4891H170.27V65.0465H169.86ZM170.065 68.2837H168.122V68.6946H170.065V68.2837ZM168.327 68.4891V65.0465H167.917V68.4891H168.327ZM168.311 64.9667L165.762 58.916L165.383 59.0756L167.933 65.1263L168.311 64.9667ZM165.573 59.2012H167.659V58.7904H165.573V59.2012ZM167.464 59.0613L168.899 63.3255L169.288 63.1945L167.854 58.9303L167.464 59.0613ZM182.348 66.8982H182.143V67.1037H182.348V66.8982ZM185.713 66.8982H185.918V66.6928H185.713V66.8982ZM185.713 68.4891V68.6946H185.918V68.4891H185.713ZM180.432 68.4891H180.226V68.6946H180.432V68.4891ZM180.432 58.9958V58.7904H180.226V58.9958H180.432ZM182.348 58.9958H182.554V58.7904H182.348V58.9958ZM182.348 67.1037H185.713V66.6928H182.348V67.1037ZM185.507 66.8982V68.4891H185.918V66.8982H185.507ZM185.713 68.2837H180.432V68.6946H185.713V68.2837ZM180.637 68.4891V58.9958H180.226V68.4891H180.637ZM180.432 59.2012H182.348V58.7904H180.432V59.2012ZM182.143 58.9958V66.8982H182.554V58.9958H182.143ZM193.563 60.5932V60.7987H193.768V60.5932H193.563ZM191.216 60.5932V60.3878H191.01V60.5932H191.216ZM191.216 68.4891V68.6946H191.421V68.4891H191.216ZM189.292 68.4891H189.087V68.6946H189.292V68.4891ZM189.292 60.5932H189.498V60.3878H189.292V60.5932ZM186.984 60.5932H186.779V60.7987H186.984V60.5932ZM186.984 58.9958V58.7904H186.779V58.9958H186.984ZM193.563 58.9958H193.768V58.7904H193.563V58.9958ZM193.563 60.3878H191.216V60.7987H193.563V60.3878ZM191.01 60.5932V68.4891H191.421V60.5932H191.01ZM191.216 68.2837H189.292V68.6946H191.216V68.2837ZM189.498 68.4891V60.5932H189.087V68.4891H189.498ZM189.292 60.3878H186.984V60.7987H189.292V60.3878ZM187.189 60.5932V58.9958H186.779V60.5932H187.189ZM186.984 59.2012H193.563V58.7904H186.984V59.2012ZM193.357 58.9958V60.5932H193.768V58.9958H193.357ZM196.601 68.4891H196.396V68.6946H196.601V68.4891ZM196.601 58.9958V58.7904H196.396V58.9958H196.601ZM201.758 60.0521L201.608 60.1921L201.609 60.1926L201.758 60.0521ZM202.769 62.947H202.975L202.974 62.9448L202.769 62.947ZM201.778 67.4263L201.627 67.2867L201.627 67.2867L201.778 67.4263ZM198.518 60.5932V60.3878H198.312V60.5932H198.518ZM198.518 66.8982H198.312V67.1037H198.518V66.8982ZM200.441 66.3962L200.603 66.5224L200.604 66.5214L200.441 66.3962ZM200.852 64.6488L201.058 64.652V64.6488H200.852ZM200.48 61.1474L200.312 61.2657L200.313 61.2667L200.48 61.1474ZM199.216 60.5932L199.222 60.3878H199.216V60.5932ZM196.806 68.4891V58.9958H196.396V68.4891H196.806ZM196.601 59.2012H199.111V58.7904H196.601V59.2012ZM199.111 59.2012C200.172 59.2012 200.997 59.5361 201.608 60.1921L201.909 59.912C201.207 59.1597 200.267 58.7904 199.111 58.7904V59.2012ZM201.609 60.1926C202.225 60.85 202.551 61.7605 202.564 62.9492L202.974 62.9448C202.961 61.682 202.613 60.6625 201.908 59.9115L201.609 60.1926ZM202.564 62.947V64.4858H202.975V62.947H202.564ZM202.564 64.4858C202.564 65.6967 202.244 66.6217 201.627 67.2867L201.929 67.566C202.634 66.8053 202.975 65.7699 202.975 64.4858H202.564ZM201.627 67.2867C201.017 67.9451 200.17 68.2837 199.059 68.2837V68.6946C200.26 68.6946 201.226 68.3247 201.929 67.566L201.627 67.2867ZM199.059 68.2837H196.601V68.6946H199.059V68.2837ZM198.312 60.5932V66.8982H198.723V60.5932H198.312ZM198.518 67.1037H199.092V66.6928H198.518V67.1037ZM199.092 67.1037C199.761 67.1037 200.287 66.9283 200.603 66.5224L200.279 66.2699C200.074 66.5334 199.7 66.6928 199.092 66.6928V67.1037ZM200.604 66.5214C200.907 66.1272 201.044 65.4871 201.058 64.652L200.647 64.6455C200.634 65.4622 200.497 65.987 200.279 66.2709L200.604 66.5214ZM201.058 64.6488V62.9992H200.647V64.6488H201.058ZM201.058 62.9992C201.058 62.1073 200.936 61.4323 200.648 61.0282L200.313 61.2667C200.521 61.5581 200.647 62.1176 200.647 62.9992H201.058ZM200.649 61.0292C200.35 60.6057 199.855 60.4064 199.222 60.3879L199.21 60.7986C199.767 60.8149 200.115 60.985 200.312 61.2657L200.649 61.0292ZM199.216 60.3878H198.518V60.7987H199.216V60.3878Z" fill="#1C71C0"/>
<circle cx="33.6763" cy="36.6763" r="33.6763" fill="#1C71C0"/>
<path d="M14.9834 12.7508C15.4859 12.8538 16.0376 12.0085 15.5874 11.8055C14.9702 11.5267 14.9084 12.5434 15.1533 12.8362" fill="#7BCB3D"/>
<path d="M14.9834 12.7508C15.4859 12.8538 16.0376 12.0085 15.5874 11.8055C14.9702 11.5267 14.9084 12.5434 15.1533 12.8362" stroke="#7BCB3D" stroke-width="0.213174" stroke-miterlimit="10" stroke-linecap="round" stroke-linejoin="round"/>
<path d="M13.8725 14.2876C13.8527 14.4186 13.8961 14.4936 13.8056 14.6069C13.6982 14.2317 13.8321 13.7705 14.0432 13.5189" fill="#7BCB3D"/>
<path d="M13.8725 14.2876C13.8527 14.4186 13.8961 14.4936 13.8056 14.6069C13.6982 14.2317 13.8321 13.7705 14.0432 13.5189" stroke="#7BCB3D" stroke-width="0.213174" stroke-miterlimit="10" stroke-linecap="round" stroke-linejoin="round"/>
<path d="M13.1869 17.9609C12.9721 18.8665 12.5572 19.7382 12.591 20.6733C12.627 21.6385 12.95 22.4264 13.1273 23.3658C13.3252 24.4193 13.0986 25.5669 13.5091 26.5704C13.8608 27.4297 14.3515 27.8887 14.5729 28.8024C14.8304 29.8632 15.1298 30.7269 15.7301 31.6288C16.287 32.466 17.0484 33.162 17.5685 33.9359C18.0901 34.7128 18.3895 35.6912 18.6742 36.5622C18.9766 37.4914 19.4136 38.3455 19.752 39.2268C20.1927 40.3767 21.4565 40.7129 22.0466 41.7855C22.2437 42.143 22.6079 42.7242 22.4865 43.1538C22.1746 44.2588 21.6272 43.493 21.3881 42.9868C20.8393 41.8296 19.4379 41.6928 19.0193 40.2994C18.5014 41.4662 19.3761 43.3819 19.7454 44.5178C20.2169 45.967 21.0483 47.292 21.6235 48.7067C21.8553 49.2761 22.1297 49.9338 22.499 50.4223C22.6792 50.6591 22.9904 50.8202 23.1626 51.0932C23.4311 51.5169 23.3384 52.0106 23.4966 52.4453C23.8703 53.4745 24.8024 54.3772 25.3203 55.2659C25.3784 55.3667 25.2313 55.6558 25.3269 55.7389C25.4946 55.8846 25.7095 55.7882 25.8308 55.8846C26.1185 56.1141 26.4701 55.8066 26.5246 56.4695C27.1933 56.6056 27.6906 56.3039 27.5155 55.6352C27.3544 56.4415 27.8679 57.1926 28.8221 57.2345C29.0339 57.2441 29.5217 56.991 29.6041 57.0102C30.2986 57.1794 30.25 57.8253 29.6078 58.0239C28.8493 58.2586 28.0651 57.2824 27.7061 58.3528C27.4876 59.0031 28.196 60.3192 28.8206 60.4119C29.4194 60.5002 29.3856 59.8969 29.6637 59.8491C30.0374 59.7844 30.3478 60.2155 30.8746 60.1596C31.1769 60.1272 31.3741 59.8668 31.7265 59.8131C32.1848 59.7439 32.6924 59.8535 33.1103 59.9985C33.9865 60.303 34.7288 60.8349 35.6579 61.0093C36.501 61.1682 37.2168 61.294 37.9341 61.778C38.3482 61.216 38.3379 60.1772 38.6646 59.5122C39.0045 58.8199 39.735 58.5742 40.08 57.9364C40.3478 57.4413 40.2794 56.1119 40.1823 55.5403C40.0484 54.7487 39.2097 54.3051 39.1641 53.4951C39.7512 53.7798 41.1511 56.8571 41.9398 56.2936C42.262 56.0641 42.1083 54.1484 42.3297 53.6658C42.7387 52.7793 42.944 51.7546 43.4258 50.9306C43.5619 50.6996 44.0261 49.972 44.174 49.8852C44.6066 49.627 45.1113 49.9088 45.5482 49.4784C45.6556 50.1353 45.1377 50.2714 45.0311 50.6819C44.9288 51.0718 45.3437 51.6898 45.1193 52.0209C44.8096 52.4792 44.2204 52.0356 43.9511 51.7921C43.9158 51.9679 43.9025 52.2276 43.9437 52.399C45.3599 51.3124 45.4526 50.3921 46.089 49.0657C46.7856 48.9082 46.6643 49.5608 47.0277 49.8212C47.5294 50.1817 48.1356 50.0677 48.7293 50.0794C49.0684 50.8225 49.2567 51.4595 49.2207 52.2835C48.1687 52.3372 47.6236 52.3129 47.6832 51.113C46.8335 51.0365 47.6824 52.5196 46.6841 52.4799C46.6348 53.4591 46.9982 55.8831 48.4519 55.0091C49.0544 54.6472 48.6881 54.108 49.4914 54.5854C50.0241 54.9017 49.9461 55.221 50.7605 55.0842C50.784 54.5567 50.8068 53.966 50.8333 53.4731C50.8502 53.156 50.9628 52.939 50.8634 52.6168C50.7737 52.3254 50.4176 52.2732 50.3397 51.8929C50.2102 51.2594 51.0062 50.6253 50.6685 49.9904C50.2698 49.2393 49.526 49.8153 49.167 50.2582C48.3953 49.7064 50.1131 47.0897 50.1727 46.1458C50.2021 45.6831 49.9851 45.4925 49.9166 45.1828C49.7747 44.5406 49.6989 44.9673 50.1756 44.4368C50.6008 43.9638 50.6736 44.1029 50.7715 43.4121C50.823 43.0486 50.7178 42.6624 50.7715 42.299C50.8796 41.5648 51.1702 40.888 51.2835 40.0765C51.399 39.2474 51.58 38.4058 52.3127 37.8556C54.0298 36.5659 54.3137 38.8715 54.3689 40.153C55.4651 40.3024 54.5271 38.6839 54.5293 38.2013C54.5344 37.1287 54.683 36.5152 54.2703 35.486C53.5126 33.596 54.7492 32.0195 54.4432 30.0641C54.3056 29.1886 53.7024 28.5302 53.9099 27.5246C54.0548 26.8198 54.6602 26.2165 54.6992 25.564C54.7367 24.9409 54.4233 24.907 54.2049 24.4553C53.8326 23.6851 53.9746 23.0789 53.9305 22.2255C53.8503 20.6799 54.5558 19.2836 52.8343 18.3949C52.7938 18.6745 52.5621 19.1438 52.22 19.0695C51.8132 18.9812 52.078 18.6737 51.9662 18.3868C51.4233 16.9839 50.6604 17.7821 49.7747 18.3235C49.2935 18.6178 48.8455 18.8635 48.2629 18.8039C47.5206 18.7282 47.1748 18.1521 46.5179 18.8326C46.0514 19.3152 45.883 20.0766 45.3857 20.5011C45.0855 20.7571 44.1468 21.1463 43.7635 20.93C43.3964 20.7226 43.5994 20.2745 43.2544 20.0869C42.9182 19.9038 42.3657 20.2238 42.1266 20.329C41.0813 20.788 40.5045 20.791 39.3031 20.8623C38.3026 20.9219 38.1849 21.2147 37.4456 21.737C36.793 22.1976 36.181 21.7937 35.4806 22.0563C34.5279 22.4139 34.8619 23.5093 34.436 24.2714C33.8629 24.1736 34.2204 23.6417 33.9534 23.4188C33.5546 23.0855 32.8175 23.2694 32.3128 23.3437C31.6926 23.4357 31.0894 23.6822 30.5082 23.3408C30.0808 23.0899 29.9925 22.6294 29.6085 22.3528C29.2774 22.1152 28.9957 22.1792 28.647 22.0637C28.366 21.9703 28.1239 21.8158 27.8164 21.7392C27.3117 21.6134 26.4267 21.7922 26.0096 21.5487C25.7506 21.3979 25.6918 21.0168 25.491 20.7549C25.1342 20.2885 24.9524 20.2554 24.4559 19.981C23.9622 19.7088 23.4061 19.3719 22.908 19.1696C21.8339 18.7333 19.9102 18.9003 20.0058 17.2877C19.2378 16.5793 19.173 17.8019 18.7368 18.0462C18.0526 18.4287 17.815 17.6776 17.2022 17.4422C16.5393 17.1877 15.7536 17.4768 15.0628 17.1928C14.3912 16.9169 13.9395 16.2467 13.3075 15.8988C13.206 16.5807 13.3487 17.2782 13.1869 17.9609Z" fill="#7BCB3D" stroke="#7BCB3D" stroke-width="0.213174" stroke-miterlimit="10" stroke-linecap="round" stroke-linejoin="round"/>
<path d="M15.6668 14.971C16.0155 15.4985 15.1592 15.9186 15.4233 16.3203C15.591 16.5748 16.5864 16.4233 16.8512 16.41C16.7983 15.6552 15.544 16.154 15.7522 15.2271" fill="#7BCB3D"/>
<path d="M15.6668 14.971C16.0155 15.4985 15.1592 15.9186 15.4233 16.3203C15.591 16.5748 16.5864 16.4233 16.8512 16.41C16.7983 15.6552 15.544 16.154 15.7522 15.2271" stroke="#7BCB3D" stroke-width="0.213174" stroke-miterlimit="10" stroke-linecap="round" stroke-linejoin="round"/>
<path d="M54.1887 40.6812C53.9135 40.5562 53.4589 40.5915 53.0918 40.6062C53.0874 40.7099 53.08 40.7982 53.0874 40.9056C53.5663 40.9387 53.9106 41.2279 54.3468 41.4235C54.444 41.1065 54.3682 40.8519 54.1041 40.6805" fill="#7BCB3D"/>
<path d="M54.1887 40.6812C53.9135 40.5562 53.4589 40.5915 53.0918 40.6062C53.0874 40.7099 53.08 40.7982 53.0874 40.9056C53.5663 40.9387 53.9106 41.2279 54.3468 41.4235C54.444 41.1065 54.3682 40.8519 54.1041 40.6805" stroke="#7BCB3D" stroke-width="0.213174" stroke-miterlimit="10" stroke-linecap="round" stroke-linejoin="round"/>
<path d="M51.797 46.5754C51.4593 46.763 51.3681 47.1603 51.2416 47.5024C51.3799 47.5428 51.5609 47.5355 51.6992 47.5046C52.0251 46.5982 51.8066 46.4651 52.8851 46.4894C52.0118 46.443 51.9206 45.9457 51.7352 45.2395C50.962 45.8589 51.8846 46.2598 51.8824 46.7468" fill="#7BCB3D"/>
<path d="M51.797 46.5754C51.4593 46.763 51.3681 47.1603 51.2416 47.5024C51.3799 47.5428 51.5609 47.5355 51.6992 47.5046C52.0251 46.5982 51.8066 46.4651 52.8851 46.4894C52.0118 46.443 51.9206 45.9457 51.7352 45.2395C50.962 45.8589 51.8846 46.2598 51.8824 46.7468" stroke="#7BCB3D" stroke-width="0.213174" stroke-miterlimit="10" stroke-linecap="round" stroke-linejoin="round"/>
<path d="M43.5273 53.1523C43.8481 53.7798 43.2713 54.133 42.9211 54.5913C43.0705 54.7274 43.734 55.6161 43.7546 55.8706C43.8017 56.4621 43.2448 56.4444 42.8733 56.671C42.2134 57.0727 42.2943 57.4096 42.1928 58.1821C42.1398 58.5874 41.9177 59.9109 41.3034 59.0193C41.3461 59.7056 41.8632 59.2422 42.1332 59.2547C42.5165 59.2745 42.9704 59.5107 43.4435 59.5475C43.4736 58.7897 43.3971 58.2659 43.8201 57.6958C43.1757 57.2014 43.1676 55.7926 44.1865 55.7816C44.3115 55.2011 43.9327 54.9996 43.8179 54.5118C43.7186 54.0888 44.0842 53.3083 43.378 53.4716" fill="#7BCB3D"/>
<path d="M43.5273 53.1523C43.8481 53.7798 43.2713 54.133 42.9211 54.5913C43.0705 54.7274 43.734 55.6161 43.7546 55.8706C43.8017 56.4621 43.2448 56.4444 42.8733 56.671C42.2134 57.0727 42.2943 57.4096 42.1928 58.1821C42.1398 58.5874 41.9177 59.9109 41.3034 59.0193C41.3461 59.7056 41.8632 59.2422 42.1332 59.2547C42.5165 59.2745 42.9704 59.5107 43.4435 59.5475C43.4736 58.7897 43.3971 58.2659 43.8201 57.6958C43.1757 57.2014 43.1676 55.7926 44.1865 55.7816C44.3115 55.2011 43.9327 54.9996 43.8179 54.5118C43.7186 54.0888 44.0842 53.3083 43.378 53.4716" stroke="#7BCB3D" stroke-width="0.213174" stroke-miterlimit="10" stroke-linecap="round" stroke-linejoin="round"/>
<path d="M33.1711 35.0113L26.8404 29.9174C26.008 29.2476 26.4816 27.9035 27.55 27.9035H41.6002C42.2253 27.9035 42.7321 28.4103 42.7321 29.0355V34.1294C42.7321 34.7546 42.2253 35.2614 41.6002 35.2614H33.8807C33.6226 35.2614 33.3722 35.1731 33.1711 35.0113Z" fill="white"/>
<path d="M33.0624 37.1866L27.827 33.4329C27.078 32.8959 26.0355 33.4312 26.0355 34.3529L26.0355 47.5716C26.0355 48.1968 26.5423 48.7036 27.1675 48.7036L32.4029 48.7036C33.028 48.7036 33.5348 48.1968 33.5348 47.5716L33.5348 38.1066C33.5348 37.7417 33.359 37.3992 33.0624 37.1866Z" fill="white"/>
<rect x="34.5253" y="37.8083" width="6.79186" height="5.0939" rx="0.625566" fill="white"/>
<path d="M102.449 27.8187H95.1407V52.4022H89.1522V27.8187H81.9659V22.8452H102.449V27.8187ZM117.552 46.3527H109.412L107.828 52.4022H101.515L110.752 22.8452H116.212L125.51 52.4022H119.135L117.552 46.3527ZM110.711 41.3792H116.233L113.472 30.8434L110.711 41.3792ZM140.775 44.6475C140.775 43.4431 140.464 42.5363 139.842 41.9273C139.233 41.3048 138.116 40.6619 136.492 39.9988C133.528 38.8755 131.397 37.5628 130.098 36.0606C128.798 34.5448 128.149 32.7584 128.149 30.7013C128.149 28.2112 129.028 26.215 130.788 24.7128C132.561 23.1971 134.807 22.4392 137.527 22.4392C139.341 22.4392 140.958 22.8249 142.379 23.5963C143.8 24.3542 144.89 25.4301 145.647 26.824C146.419 28.218 146.805 29.8014 146.805 31.5742H140.857C140.857 30.1938 140.559 29.145 139.963 28.4277C139.381 27.6969 138.536 27.3315 137.426 27.3315C136.384 27.3315 135.572 27.6428 134.99 28.2653C134.408 28.8743 134.117 29.6999 134.117 30.7419C134.117 31.5539 134.442 32.2915 135.091 32.9547C135.741 33.6043 136.891 34.2809 138.542 34.9847C141.425 36.0267 143.516 37.3056 144.815 38.8214C146.128 40.3371 146.784 42.2656 146.784 44.6069C146.784 47.1783 145.965 49.188 144.328 50.6361C142.69 52.0841 140.464 52.8082 137.649 52.8082C135.741 52.8082 134.002 52.4157 132.432 51.6308C130.862 50.8458 129.631 49.7226 128.737 48.2609C127.858 46.7993 127.418 45.0738 127.418 43.0844H133.406C133.406 44.7896 133.738 46.0279 134.401 46.7993C135.064 47.5707 136.147 47.9564 137.649 47.9564C139.733 47.9564 140.775 46.8535 140.775 44.6475ZM158.538 22.8452L164.121 44.2212L169.683 22.8452H177.478V52.4022H171.489V44.4039L172.038 32.0817L166.13 52.4022H162.07L156.163 32.0817L156.711 44.4039V52.4022H150.743V22.8452H158.538ZM196.763 46.3527H188.623L187.039 52.4022H180.726L189.963 22.8452H195.423L204.721 52.4022H198.347L196.763 46.3527ZM189.922 41.3792H195.444L192.683 30.8434L189.922 41.3792ZM228.167 52.4022H222.199L213.47 33.0156V52.4022H207.502V22.8452H213.47L222.22 42.2521V22.8452H228.167V52.4022ZM239.19 52.4022H233.222V22.8452H239.19V52.4022ZM258.679 46.3527H250.538L248.955 52.4022H242.641L251.878 22.8452H257.339L266.636 52.4022H260.262L258.679 46.3527ZM251.837 41.3792H257.359L254.598 30.8434L251.837 41.3792Z" fill="#1C71C0"/>
</g>
<defs>
<clipPath id="clip0_16_21">
<rect width="267" height="75" fill="white"/>
</clipPath>
</defs>
</svg>
